<svg xmlns="http://www.w3.org/2000/svg" xmlns:xlink="http://www.w3.org/1999/xlink" viewBox="0 0 6000 4000"><defs><style>.cls-1{fill:none;}.cls-2{fill:#ebe9da;}.cls-3{fill:#fff;}.cls-4{fill:#0c0a0a;}.Graphic-Style-46{fill:#fecd3b;}.cls-5{clip-path:url(#clip-path);}.cls-6{fill:#692f0a;}.cls-7{fill:#3a78dd;}.Graphic-Style-4{fill:#381746;}.Graphic-Style-20{fill:#b2b0a1;}.Graphic-Style-9{fill:#ff2d60;}.Graphic-Style-29{fill:#ffe49f;}.Graphic-Style-28{fill:#ffa810;}.cls-8{fill:#bf7e0c;}.cls-9{fill:#12346c;}.cls-10{fill:#2d030d;}.cls-11{fill:#656352;}.Graphic-Style-30{fill:#bf2248;}.cls-12{fill:#848274;}.Graphic-Style-8{fill:#6799fc;}.cls-13{fill:#174690;}.cls-14{fill:#456ba6;}.Graphic-Style-35{fill:#cae2f5;}.cls-15{fill:#ffa99c;}.Graphic-Style-3{fill:#050505;}.cls-16{fill:#f47d65;}.cls-17{fill:#848275;}.Graphic-Style-31{fill:#801730;}.cls-18{fill:#060606;}.cls-19{fill:#b2af9c;}</style><clipPath id="clip-path"><path class="cls-1" d="M4671.4,732.75v939.86a76.18,76.18,0,0,1-.42,7.89l-1933.31-.61q-.35-3.6-.35-7.28v-27.95c91.41-81.1,316.41-274.15,386.68-274.15,89,0,215.67-196.42,301.94-196.42s261.71,144.64,365.25,89.51,745.57-570.7,849.29-592.44h0C4659.4,686,4671.4,708.07,4671.4,732.75Z"/></clipPath></defs><g id="Vectors"><circle class="cls-2" cx="2791.2" cy="1684.17" r="177.5"/><circle class="cls-2" cx="4299.28" cy="2855.06" r="199.96"/><path class="cls-3" d="M4671.4,732.75v939.86a76.19,76.19,0,0,1-.41,7.89c-4.3,40.93-41.7,72.93-87.21,72.93H2824.94c-45.73,0-83.28-32.32-87.26-73.54-.24-2.4-.36-4.82-.36-7.28V732.75c0-44.63,39.23-80.8,87.62-80.8H4583.78a91.73,91.73,0,0,1,56.71,19.21h0C4659.41,686,4671.4,708.07,4671.4,732.75Z"/><path class="cls-4" d="M4583.78,1755.93H2824.94A94.07,94.07,0,0,1,2764,1734c-16.6-14.08-26.84-33.22-28.84-53.89a74.69,74.69,0,0,1-.37-7.52V732.75c0-45.93,40.43-83.3,90.12-83.3H4583.78a94.68,94.68,0,0,1,58.11,19.63l.15.11c20.25,15.87,31.86,39,31.86,63.56v939.86a76.58,76.58,0,0,1-.43,8.15c-2.15,20.53-12.46,39.52-29,53.46A94.12,94.12,0,0,1,4583.78,1755.93ZM2824.94,654.45c-46.94,0-85.12,35.12-85.12,78.3v939.86a68.09,68.09,0,0,0,.35,7c3.86,40,41.09,71.29,84.77,71.29H4583.78c44.07,0,80.49-30.39,84.72-70.69a74.69,74.69,0,0,0,.4-7.63V732.75c0-22.92-10.87-44.61-29.81-59.52l-.15-.11a89.65,89.65,0,0,0-55.16-18.67Z"/><path class="cls-3" d="M4671.4,732.75v939.86a76.19,76.19,0,0,1-.41,7.89c-4.3,40.93-41.7,72.93-87.21,72.93H2824.94c-45.73,0-83.28-32.32-87.26-73.54-.24-2.4-.36-4.82-.36-7.28V732.75c0-44.63,39.23-80.8,87.62-80.8H4583.78a91.73,91.73,0,0,1,56.71,19.21h0C4659.41,686,4671.4,708.07,4671.4,732.75Z"/><path class="cls-4" d="M4583.78,1755.93H2824.94A94.07,94.07,0,0,1,2764,1734c-16.6-14.08-26.84-33.22-28.84-53.89a74.69,74.69,0,0,1-.37-7.52V732.75c0-45.93,40.43-83.3,90.12-83.3H4583.78a94.68,94.68,0,0,1,58.11,19.63l.15.11c20.25,15.87,31.86,39,31.86,63.56v939.86a76.58,76.58,0,0,1-.43,8.15c-2.15,20.53-12.46,39.52-29,53.46A94.12,94.12,0,0,1,4583.78,1755.93ZM2824.94,654.45c-46.94,0-85.12,35.12-85.12,78.3v939.86a68.09,68.09,0,0,0,.35,7c3.86,40,41.09,71.29,84.77,71.29H4583.78c44.07,0,80.49-30.39,84.72-70.69a74.69,74.69,0,0,0,.4-7.63V732.75c0-22.92-10.87-44.61-29.81-59.52l-.15-.11a89.65,89.65,0,0,0-55.16-18.67Z"/><path class="Graphic-Style-46" d="M4671.4,732.75v939.86a76.18,76.18,0,0,1-.42,7.89l-1933.31-.61q-.35-3.6-.35-7.28v-27.95c91.41-81.1,316.41-274.15,386.68-274.15,89,0,215.67-196.42,301.94-196.42s261.71,144.64,365.25,89.51,745.57-570.7,849.29-592.44h0C4659.4,686,4671.4,708.07,4671.4,732.75Z"/><g class="cls-5"><path class="cls-6" d="M2843.12,1678a1.5,1.5,0,0,1-1.5-1.5V783.57a1.5,1.5,0,0,1,3,0v892.89A1.5,1.5,0,0,1,2843.12,1678Z"/><path class="cls-6" d="M2966.85,1678a1.5,1.5,0,0,1-1.5-1.5V783.57a1.5,1.5,0,0,1,3,0v892.89A1.5,1.5,0,0,1,2966.85,1678Z"/><path class="cls-6" d="M3090.59,1678a1.5,1.5,0,0,1-1.5-1.5V783.57a1.5,1.5,0,0,1,3,0v892.89A1.5,1.5,0,0,1,3090.59,1678Z"/><path class="cls-6" d="M3214.32,1678a1.5,1.5,0,0,1-1.5-1.5V783.57a1.5,1.5,0,0,1,3,0v892.89A1.5,1.5,0,0,1,3214.32,1678Z"/><path class="cls-6" d="M3338.06,1678a1.5,1.5,0,0,1-1.5-1.5V783.57a1.5,1.5,0,0,1,3,0v892.89A1.5,1.5,0,0,1,3338.06,1678Z"/><path class="cls-6" d="M3461.79,1678a1.5,1.5,0,0,1-1.5-1.5V783.57a1.5,1.5,0,1,1,3,0v892.89A1.5,1.5,0,0,1,3461.79,1678Z"/><path class="cls-6" d="M3585.52,1678a1.5,1.5,0,0,1-1.5-1.5V783.57a1.5,1.5,0,0,1,3,0v892.89A1.5,1.5,0,0,1,3585.52,1678Z"/><path class="cls-6" d="M3709.26,1678a1.5,1.5,0,0,1-1.5-1.5V783.57a1.5,1.5,0,1,1,3,0v892.89A1.5,1.5,0,0,1,3709.26,1678Z"/><path class="cls-6" d="M3833,1678a1.5,1.5,0,0,1-1.5-1.5V783.57a1.5,1.5,0,1,1,3,0v892.89A1.5,1.5,0,0,1,3833,1678Z"/><path class="cls-6" d="M3956.73,1678a1.5,1.5,0,0,1-1.5-1.5V783.57a1.5,1.5,0,0,1,3,0v892.89A1.5,1.5,0,0,1,3956.73,1678Z"/><path class="cls-6" d="M4080.46,1678a1.5,1.5,0,0,1-1.5-1.5V783.57a1.5,1.5,0,1,1,3,0v892.89A1.5,1.5,0,0,1,4080.46,1678Z"/><path class="cls-6" d="M4204.19,1678a1.5,1.5,0,0,1-1.5-1.5V783.57a1.5,1.5,0,1,1,3,0v892.89A1.5,1.5,0,0,1,4204.19,1678Z"/><path class="cls-6" d="M4327.93,1678a1.5,1.5,0,0,1-1.5-1.5V783.57a1.5,1.5,0,1,1,3,0v892.89A1.5,1.5,0,0,1,4327.93,1678Z"/><path class="cls-6" d="M4451.66,1678a1.5,1.5,0,0,1-1.5-1.5V783.57a1.5,1.5,0,1,1,3,0v892.89A1.5,1.5,0,0,1,4451.66,1678Z"/><path class="cls-6" d="M4575.4,1678a1.5,1.5,0,0,1-1.5-1.5V783.57a1.5,1.5,0,1,1,3,0v892.89A1.5,1.5,0,0,1,4575.4,1678Z"/></g><path class="cls-2" d="M3576.18,1131.82l-38.88-84.68c16.84-5.84,28.82-20.83,28.82-38.4v-92c0-22.66-19.92-41-44.48-41H3156.89c-24.56,0-44.48,18.37-44.48,41v92c0,22.66,19.92,41,44.48,41h336.26Z"/><ellipse class="cls-3" cx="3735.95" cy="1023.66" rx="99.8" ry="92.05"/><path class="cls-6" d="M3736,1118.21c-56.41,0-102.3-42.41-102.3-94.55s45.89-94.55,102.3-94.55,102.3,42.42,102.3,94.55S3792.36,1118.21,3736,1118.21Zm0-184.1c-53.65,0-97.3,40.17-97.3,89.55s43.65,89.55,97.3,89.55,97.3-40.17,97.3-89.55S3789.6,934.11,3736,934.11Z"/><rect class="cls-7" x="2946.21" y="884.27" width="104.36" height="147.94" rx="14.84"/><path class="Graphic-Style-4" d="M4671.4,732.75V780.9H2737.32V732.75c0-44.63,39.23-80.8,87.62-80.8H4583.78C4632.17,652,4671.4,688.12,4671.4,732.75Z"/><ellipse class="cls-3" cx="2893.91" cy="717.11" rx="29.41" ry="27.12"/><ellipse class="cls-3" cx="3030.78" cy="717.11" rx="29.41" ry="27.12"/><ellipse class="cls-3" cx="3167.65" cy="717.11" rx="29.41" ry="27.12"/><polygon class="cls-3" points="4380.35 1194.84 4334.99 1194.84 4334.99 1363.06 4275.69 1363.06 4275.69 1194.84 4230.35 1194.84 4305.35 1075.02 4380.35 1194.84"/><polygon class="cls-3" points="3576.18 1367.85 3576.18 1267.33 3514.53 1267.33 3514.53 1367.85 3470.56 1367.85 3545.36 1487.34 3620.15 1367.85 3576.18 1367.85"/><ellipse class="cls-3" cx="4161.89" cy="719.08" rx="183.31" ry="169.08"/><path class="cls-6" d="M4161.89,890.65c-102.46,0-185.82-77-185.82-171.57s83.36-171.58,185.82-171.58,185.81,77,185.81,171.58S4264.35,890.65,4161.89,890.65Zm0-338.15c-99.7,0-180.82,74.73-180.82,166.58s81.12,166.57,180.82,166.57,180.81-74.72,180.81-166.57S4261.59,552.5,4161.89,552.5Z"/><path class="Graphic-Style-20" d="M4671,1680.5c-4.29,40.93-41.7,72.93-87.21,72.93H2824.94c-45.74,0-83.29-32.32-87.27-73.54Z"/><ellipse class="Graphic-Style-9" cx="3750.96" cy="1278.78" rx="35.29" ry="32.55"/><ellipse class="Graphic-Style-29" cx="4161.89" cy="719.08" rx="143.46" ry="132.31"/><path class="cls-3" d="M4161.89,711.28c-17.49,0-31.59-13.38-30.92-29.65.61-14.79,13.68-26.84,29.71-27.41,15.81-.55,29.1,9.83,31.69,23.6a6.25,6.25,0,0,0,6.27,4.92h0c3.95,0,6.93-3.29,6.26-6.89-3.6-19.26-22-33.84-44.07-33.35-23.16.5-42,17.92-42.58,39.27-.58,22.68,19.18,41.23,43.64,41.23h0c17.49,0,31.58,13.38,30.91,29.64-.6,14.79-13.67,26.85-29.71,27.41-15.8.55-29.09-9.83-31.68-23.6a6.27,6.27,0,0,0-6.27-4.92h0c-4,0-6.94,3.3-6.27,6.89,3.6,19.26,22,33.84,44.08,33.36,23.15-.5,42-17.93,42.58-39.28C4206.1,729.82,4186.34,711.28,4161.89,711.28Z"/><path class="cls-3" d="M4161.89,624.58c-3.46,0-6.26,2.33-6.26,5.2V808.37c0,2.87,2.8,5.2,6.26,5.2s6.26-2.33,6.26-5.2V629.78C4168.15,626.91,4165.35,624.58,4161.89,624.58Z"/><ellipse class="Graphic-Style-28" cx="3735.95" cy="1023.66" rx="79.95" ry="73.74"/><path class="cls-3" d="M3736,1019.31c-9.74,0-17.6-7.45-17.23-16.52.34-8.24,7.62-15,16.56-15.27s16.21,5.48,17.66,13.15a3.48,3.48,0,0,0,3.49,2.74h0a3.36,3.36,0,0,0,3.49-3.84c-2-10.73-12.28-18.86-24.56-18.59-12.9.28-23.43,10-23.73,21.89-.32,12.64,10.69,23,24.32,23h0c9.75,0,17.61,7.45,17.23,16.52-.34,8.24-7.62,15-16.56,15.27s-16.21-5.48-17.66-13.15a3.47,3.47,0,0,0-3.49-2.74h0a3.37,3.37,0,0,0-3.49,3.84c2,10.73,12.28,18.86,24.56,18.59,12.91-.28,23.43-10,23.73-21.89C3760.59,1029.65,3749.58,1019.31,3736,1019.31Z"/><path class="cls-3" d="M3736,971a3.24,3.24,0,0,0-3.49,2.9v99.53a3.55,3.55,0,0,0,7,0V973.9A3.24,3.24,0,0,0,3736,971Z"/><rect class="cls-7" x="3150.01" y="903.57" width="93.03" height="18.74" rx="9.27"/><rect class="cls-3" x="3269.77" y="903.57" width="129.56" height="18.74" rx="9.27"/><rect class="Graphic-Style-28" x="3433.73" y="903.57" width="74.94" height="18.74" rx="9.27"/><rect class="Graphic-Style-28" x="3150.01" y="948.87" width="140.26" height="18.74" rx="9.27"/><rect class="cls-7" x="3150.01" y="999.28" width="218.44" height="18.74" rx="9.27"/><rect class="cls-3" x="3308.8" y="948.87" width="90.53" height="18.74" rx="9.27"/><rect class="cls-7" x="3420.13" y="948.87" width="46.25" height="18.74" rx="9.27"/><rect class="cls-3" x="2824.58" y="1709.34" width="272.32" height="19.73" rx="9.76"/><rect class="cls-3" x="3194.21" y="1709.34" width="196.4" height="19.73" rx="9.76"/><rect class="cls-2" x="3024.55" y="1285.2" width="111.21" height="34.22" rx="17.11"/><rect class="cls-2" x="3243.4" y="1154.03" width="111.21" height="34.22" rx="17.11"/><rect class="cls-2" x="3846.49" y="1098.43" width="111.21" height="34.22" rx="17.11"/><rect class="cls-2" x="4019.01" y="980.09" width="111.21" height="34.22" rx="17.11"/><path class="cls-3" d="M2769.82,1671.06a4,4,0,0,1-2.45-7.16,750.61,750.61,0,0,1,79.88-52.45c59.49-33.53,105-46.34,135.34-38.07,71.65,19.54,119,28.75,172-8,27.69-19.17,65-43.06,108.46-57.71,50.56-17.07,99.44-18,145.3-2.68,10.16,3.38,20.06,6.76,29.64,10,87.07,29.63,150,51,188.68,12.33,45.61-45.61,101.85-86.46,128-93a4,4,0,0,1,1.94,7.76c-25,6.25-79.59,46.18-124.32,90.91-19.6,19.6-45.69,26.52-82.09,21.8-32.6-4.23-70.71-17.2-114.83-32.22-9.56-3.26-19.46-6.62-29.59-10-96.28-32.09-182.4,14.87-246.68,59.37-55.92,38.72-104.81,29.28-178.69,9.13-67.87-18.51-206.83,88.05-208.23,89.13A4,4,0,0,1,2769.82,1671.06Z"/><path class="cls-2" d="M3601.15,3402.72a488.46,488.46,0,0,1-34.82,45.12H1381c-51.23-97.75-31.75-223.67,41.31-310.47,81.5-96.81,218.86-145.91,351.7-142.74s260.67,54,367.83,126.52c54.95,37.19,113.19,82.55,181.12,77.51,73.45-5.44,124.54-67,168.42-121.63,74.81-93.09,161.24-184.53,277.22-229.09s268.06-28.19,342.1,65.42c40.46,51.18,57.07,122,116.35,154,85.37,46,195-19.91,291.38.44,70.88,15,122.65,77.49,133.89,143.75S3639.72,3345.87,3601.15,3402.72Z"/><ellipse class="cls-2" cx="3348.41" cy="2933.1" rx="71.72" ry="66.15"/><ellipse class="cls-2" cx="1191.62" cy="2300.69" rx="233.68" ry="215.53"/><polygon class="cls-8" points="2587.23 2023.09 2698.86 2091.73 2697.62 2222.14 2587.23 2233.58 2587.23 2023.09"/><polygon class="cls-9" points="2698.44 2019.14 2810.07 2087.78 2808.83 2218.2 2698.44 2229.64 2698.44 2019.14"/><rect class="Graphic-Style-28" x="2541.86" y="2023.19" width="45.89" height="210.49"/><rect class="cls-7" x="2652.25" y="2019.76" width="45.89" height="210.49"/><rect class="Graphic-Style-9" x="2755.2" y="2012.9" width="45.89" height="210.49"/><polygon class="cls-10" points="2801.09 2012.9 2912.72 2081.54 2911.48 2211.95 2801.09 2223.39 2801.09 2012.9"/><rect class="cls-2" x="2500.93" y="2191.36" width="368.38" height="42.11"/><rect class="cls-11" x="2855.67" y="2191.36" width="90.54" height="42.11"/><rect class="Graphic-Style-30" x="2368.51" y="2233.3" width="1798.1" height="64.65" rx="16.65"/><path class="cls-2" d="M4012.88,2159.51a45.54,45.54,0,0,1-15.08,33.58,53.55,53.55,0,0,1-36.38,13.9h-86.21v-16.78h83.85a34.62,34.62,0,0,0,23.53-9,29.41,29.41,0,0,0,9.75-21.71c0-17-14.89-30.69-33.28-30.69h-83.85V2112h86.21C3989.84,2112,4012.88,2133.29,4012.88,2159.51Z"/><path class="cls-2" d="M3922.34,2092.6v91.87a48.84,48.84,0,0,1-48.84,48.84H3805a48.84,48.84,0,0,1-48.84-48.84V2092.6Z"/><path class="cls-2" d="M3789.1,2068.16c-7.76-12-9.37-20.46-7.58-31.27,1.39-8.36,5.34-16.16,7.76-24.32s3.15-17.38-1.54-24.65-13.29-9-23-11.42c0,0,19.13-7.45,30.18,10.3s-4.45,35.83-5.17,40.11S3780.8,2046.3,3789.1,2068.16Z"/><path class="cls-2" d="M3844.38,2047.43c-4.24-7.86-3.21-17.17-2.07-25.89l4.81-37s6.93,15.36,5.15,30.81S3844.38,2047.43,3844.38,2047.43Z"/><path class="cls-2" d="M3888,2044.68l12.41-35.4c2.87-8.19,5.77-16.72,4.49-25.24s-8.09-17-17.39-17.69c0,0,13.93,9.27,9.65,23.08S3888,2044.68,3888,2044.68Z"/><polygon class="cls-11" points="3624.6 2192.5 3204.14 2192.5 3273.59 1956.84 3694.06 1956.84 3624.6 2192.5"/><polygon class="Graphic-Style-20" points="3609.87 2192.5 3189.4 2192.5 3258.86 1956.84 3679.33 1956.84 3609.87 2192.5"/><polygon class="cls-3" points="3653.17 1975.29 3634.81 2037.58 3594.58 2174.06 3215.57 2174.06 3232.73 2115.82 3274.15 1975.29 3653.17 1975.29"/><rect class="cls-11" x="3230.33" y="2194.02" width="351.32" height="36.9" rx="18.26"/><rect class="cls-12" x="3009.56" y="2194.02" width="363.03" height="36.9" rx="14.19"/><path class="cls-3" d="M2658.49,1304.75s-14.26,39.45-5.71,104.55,33.86,88.43,33.86,88.43h31.73l-22.82-198.57Z"/><path class="cls-3" d="M2658.49,1304.75s-14.26,39.45-5.71,104.55,33.86,88.43,33.86,88.43h31.73l-22.82-198.57Z"/><path class="cls-3" d="M2658.49,1304.75s-14.26,39.45-5.71,104.55,33.86,88.43,33.86,88.43h31.73l-22.82-198.57Z"/><path class="cls-3" d="M2658.49,1304.75s-14.26,39.45-5.71,104.55,33.86,88.43,33.86,88.43h31.73l-22.82-198.57Z"/><polygon class="Graphic-Style-20" points="2282.74 3443.61 2234.21 3443.61 2536.14 2334.78 2592.75 2305.41 2282.74 3443.61"/><polygon class="Graphic-Style-20" points="4272.23 3443.61 4320.75 3443.61 4018.82 2334.78 3962.21 2305.41 4272.23 3443.61"/><rect class="cls-11" x="2488.47" y="2297.95" width="1606.7" height="181.51"/><rect class="Graphic-Style-20" x="3315.91" y="2324.06" width="607.65" height="129.29" rx="19.72"/><ellipse class="cls-3" cx="3619.74" cy="2367.99" rx="22.23" ry="20.5"/><rect class="Graphic-Style-20" x="2660.07" y="2324.06" width="607.65" height="129.29" rx="19.72"/><ellipse class="cls-3" cx="2963.9" cy="2367.99" rx="22.23" ry="20.5"/><rect class="cls-3" x="2765.72" y="2050.94" width="25.84" height="13.54" rx="3.21"/><rect class="cls-3" x="2770.53" y="2077.32" width="15.68" height="88.75" rx="6.95"/><rect class="cls-3" x="2660.51" y="2041.56" width="32.32" height="11.88" rx="5.47"/><rect class="cls-3" x="2660.51" y="2060.09" width="32.32" height="11.88" rx="5.47"/><rect class="cls-3" x="2665.74" y="2083.73" width="19.01" height="49.78" rx="8.58"/><rect class="cls-3" x="2556.31" y="2104.41" width="19.01" height="49.78" rx="8.58"/><rect class="cls-3" x="2556.31" y="2046.67" width="19.01" height="49.78" rx="8.58"/><path class="Graphic-Style-8" d="M4473.57,2642.92c-6-5.58-15.09-7.16-23.61-7.52-44.74-1.86-87.13,23.25-113.09,56.9s-37.79,74.82-45,115.59a613.31,613.31,0,0,0-3.11,193.21l-9.92,24.16c.7,43.27-85.54,152.32-55.68,185.7,38.82-20.58,167.62-124.47,180-164.16s13.07-81.61,12.3-122.91-2.91-82.87,4.09-123.67c6.48-37.75,20.93-74.54,43.94-106.33,5.66-7.83,11.93-15.52,15-24.5S4480.77,2649.6,4473.57,2642.92Z"/><path class="cls-3" d="M4314.49,3153.7a4.11,4.11,0,0,1-1.24-.19,4,4,0,0,1-2.57-5c.38-1.18,38.07-119.12,24.42-248.86-7.3-69.42,15.28-121.38,35.5-152.74,21.94-34,45.33-51.37,46.31-52.1a4,4,0,0,1,4.73,6.45c-.34.26-23.42,17.48-44.49,50.27-19.44,30.23-41.13,80.33-34.09,147.29,13.83,131.48-24.38,251-24.77,252.16A4,4,0,0,1,4314.49,3153.7Z"/><path class="cls-13" d="M4135,2714.56c-2.71-11.57-7.24-24.85-19.31-28.88-10.25-3.41-22,1.9-28.53,10s-8.95,18.23-11,28.1c-28.66,140.11-7.34,288.53,59.9,416.92l9-80.74,3.25,4.15A918.93,918.93,0,0,0,4135,2714.56Z"/><path class="cls-3" d="M4109.2,3123.15a4,4,0,0,1-3.87-2.92c-.23-.8-5.43-20.58,7.37-109.18,12.61-87.2-7.29-246.84-7.49-248.44a4,4,0,0,1,7.94-1c.2,1.62,20.23,162.32,7.47,250.6-12.38,85.65-7.78,105.1-7.58,105.88a4,4,0,0,1-2.76,4.92A4,4,0,0,1,4109.2,3123.15Z"/><path class="cls-7" d="M4305.2,2890.94c-5.38-17.06-12.49-34.24-25.7-47.16s-33.78-20.76-52.18-15.51c-22.7,6.49-34.4,29.4-40.57,50.57a250.54,250.54,0,0,0-2.58,130.41l50.47,239.08,47.77-32.88C4318.05,3207.56,4330.85,2972.36,4305.2,2890.94Z"/><path class="cls-3" d="M4274.92,3239.51a4,4,0,0,1-4-3.84c-.06-1.59-6.54-159.08-19.15-215.28-12.77-56.93-15-148.78-15.07-149.7a4,4,0,0,1,3.91-4.1h.1a4,4,0,0,1,4,3.91c0,.91,2.28,92,14.88,148.14,12.76,56.9,19.08,210.21,19.34,216.7a4,4,0,0,1-3.84,4.16Z"/><path class="cls-7" d="M4537.29,2946c-2.4-14.81-10.95-29.52-25.38-36.4-15.36-7.34-34.66-4.46-49.52,3.72s-26,20.94-36,33.95c-58.5,76-88.38,170.3-83.41,263.36l85.18,4.25c50.37-67.56,86.32-144.22,105.21-224.33C4536.79,2976,4539.69,2960.86,4537.29,2946Z"/><path class="cls-3" d="M4385.77,3222.43a4,4,0,0,1-4-4c0-37.85,17.06-90.72,50.69-157.16,24.94-49.26,50.23-88,50.48-88.43a4,4,0,1,1,6.7,4.38c-1,1.53-99.87,153.71-99.87,241.21A4,4,0,0,1,4385.77,3222.43Z"/><path class="cls-13" d="M4079.77,3105.82c-23.69-28.61-59.23-48.65-97.64-55.05-27.84-4.64-58.52-1.69-81,14.18s-33.44,46.69-19.67,69.48c10.35,17.15,31.52,26.3,52.27,30.65s42.35,5,62.71,10.72,40.34,18,46.5,36.79l68.67-5.4C4115.05,3171.33,4103.45,3134.43,4079.77,3105.82Z"/><path class="cls-3" d="M4098.48,3234.57a4,4,0,0,1-4-3.59c-4.77-47.39-51.43-75.75-89.74-91.2-42.21-17-83.89-22.55-84.3-22.6a4,4,0,1,1,1-7.94c.43.06,43,5.69,86.13,23.07,25.5,10.27,46.28,22.58,61.76,36.6,19.66,17.82,30.79,38.43,33.09,61.26a4,4,0,0,1-3.58,4.38A2.88,2.88,0,0,1,4098.48,3234.57Z"/><path class="Graphic-Style-8" d="M4062.39,2903.57c-9.35-14.19-20.3-28.89-37.06-34.94-18.74-6.77-41-.51-55.63,12.26s-22.42,31-25.87,49.26c-9.9,52.48,13,105.83,44.17,150.71s70.69,84.52,99.94,130.46l82.09,3.74C4161.54,3105.34,4124.31,2997.59,4062.39,2903.57Z"/><path class="cls-3" d="M4119.87,3229.64h-.13a4,4,0,0,1-3.87-4.12c1-30-22.07-95.65-66.62-158.32-42.87-60.29-53.74-143.29-54.18-146.79a4,4,0,0,1,7.94-1c.1.84,11.08,84.55,52.76,143.17,40.65,57.18,69.29,125.82,68.1,163.2A4,4,0,0,1,4119.87,3229.64Z"/><path class="cls-14" d="M4248.53,3061.92c-3.59-18.92-9.89-37.73-21.61-53.6s-29.39-28.62-49.84-32.3-43.45,2.92-55.68,18.46c-12,15.25-12.15,35.65-10.78,54.45a526.65,526.65,0,0,0,40,166.19l72.53-4.16C4249.05,3165.65,4258.12,3112.36,4248.53,3061.92Z"/><path class="cls-4" d="M4186.17,3233.59a4.34,4.34,0,0,1-.71-.06,4,4,0,0,1-3.23-4.65c15.68-87.74-18.78-202.12-19.13-203.26a4,4,0,1,1,7.65-2.34c.35,1.16,35.38,117.35,19.36,207A4,4,0,0,1,4186.17,3233.59Z"/><path class="cls-13" d="M4404.48,3138.82c-6.15-8.15-20.5-11.42-27.75-4.1,7.85-25.57-13.38-55.25-41.95-58.66-29.69-3.55-57.28,18.6-67.85,44.43s-8.15,54.44-5.58,82l124.93,21.26a130.18,130.18,0,0,0,22.82-56.13C4410.56,3157.74,4410.62,3147,4404.48,3138.82Z"/><polygon class="cls-2" points="4435.84 3236.89 4382.61 3448.2 4092.84 3448.2 4041.41 3236.89 4435.84 3236.89"/><path class="Graphic-Style-20" d="M4435.84,3236.89l-53.22,211.31H4232.26c11.56-11.9,65-67.76,98.26-115.06,28.88-41.1,17.65-80.43,11-96.25Z"/><path class="Graphic-Style-20" d="M4497.85,3233.45v-4.57c0-14.53-12.77-26.31-28.53-26.31H4006.68c-15.75,0-28.52,11.78-28.52,26.31v4.57a24.54,24.54,0,0,0,1.33,8h517A24.28,24.28,0,0,0,4497.85,3233.45Z"/><path class="cls-11" d="M3979.49,3241.42c3.66,10.64,14.45,18.35,27.19,18.35h462.64c12.75,0,23.53-7.71,27.19-18.35Z"/><path class="cls-3" d="M1344.87,1323.41v169.3c0,20.41-17.95,37-40.08,37H1121.24c-22.13,0-40.07-16.55-40.07-37v-169.3c0-20.42,17.94-37,40.07-37h183.55C1326.92,1286.45,1344.87,1303,1344.87,1323.41Z"/><path class="cls-6" d="M1304.79,1532.17H1121.24c-23.48,0-42.57-17.7-42.57-39.46v-169.3c0-21.76,19.09-39.46,42.57-39.46h183.55c23.47,0,42.58,17.7,42.58,39.46v169.3C1347.37,1514.47,1328.26,1532.17,1304.79,1532.17ZM1121.24,1289c-20.72,0-37.57,15.46-37.57,34.46v169.3c0,19,16.85,34.46,37.57,34.46h183.55c20.72,0,37.58-15.46,37.58-34.46v-169.3c0-19-16.86-34.46-37.58-34.46Z"/><rect class="cls-3" x="1277.96" y="845.45" width="351.56" height="385.39" rx="49.96"/><path class="cls-6" d="M1579.56,1233.34H1327.92a52.51,52.51,0,0,1-52.46-52.46V895.41A52.51,52.51,0,0,1,1327.92,843h251.64A52.52,52.52,0,0,1,1632,895.41v285.47A52.52,52.52,0,0,1,1579.56,1233.34ZM1327.92,848a47.51,47.51,0,0,0-47.46,47.46v285.47a47.51,47.51,0,0,0,47.46,47.46h251.64a47.51,47.51,0,0,0,47.46-47.46V895.41A47.51,47.51,0,0,0,1579.56,848Z"/><path class="Graphic-Style-35" d="M1574.73,932.75v210.79c0,16.63-14.62,30.12-32.66,30.12H1365.41c-18,0-32.66-13.49-32.66-30.12V932.75c0-16.63,14.62-30.11,32.66-30.11h176.66C1560.11,902.64,1574.73,916.12,1574.73,932.75Z"/><polygon class="cls-7" points="4317.92 2037.47 4317.92 1905.85 4442.21 1991.21 4360.95 1979.3 4317.92 2037.47"/><polygon class="cls-7" points="4584.49 2112.69 4522.35 1969.97 4684.88 1999.7 4594.06 2024.21 4584.49 2112.69"/><polygon class="Graphic-Style-46" points="4512.56 2323.3 4483.77 2149.97 4632.48 2208.65 4540.59 2223.1 4512.56 2323.3"/><polygon class="cls-7" points="2101.96 870.99 2153.18 930.66 2101.96 1000.28 2287.97 935.64 2101.96 870.99"/><polygon class="Graphic-Style-29" points="2349.31 726.7 2364.3 806.41 2275.06 878.29 2500.01 861.81 2349.31 726.7"/><path class="cls-7" d="M1574.73,968.92v174.62c0,16.63-14.62,30.12-32.66,30.12H1365.41c-18,0-32.66-13.49-32.66-30.12V1095.3c22.28-8.45,52.57-19.88,71.09-26.72,32.08-11.84,49.18-15.78,71.64,7.89s38.49-32.55,37.43-54.24,6.41-41.42,21.38-50.31C1539.81,968.66,1556.21,968.2,1574.73,968.92Z"/><path class="Graphic-Style-9" d="M1344.87,1401.53v91.18c0,20.41-17.95,37-40.08,37H1121.24c-22.13,0-40.07-16.55-40.07-37V1468.2c30.61-23.63,65.63-46.54,86.35-46.54,42.77,0,55.6,42.41,88.75,32.55C1277.83,1447.79,1318.83,1420.1,1344.87,1401.53Z"/><ellipse class="Graphic-Style-46" cx="1165.91" cy="1349.17" rx="27.27" ry="25.15"/><rect class="cls-3" x="4748.22" y="1527.16" width="156.36" height="211.35" rx="26.87"/><path class="cls-6" d="M4877.7,1741H4775.09a29.41,29.41,0,0,1-29.37-29.38V1554a29.41,29.41,0,0,1,29.37-29.37H4877.7a29.41,29.41,0,0,1,29.38,29.37v157.6A29.41,29.41,0,0,1,4877.7,1741Zm-102.61-211.35a24.39,24.39,0,0,0-24.37,24.37v157.6a24.4,24.4,0,0,0,24.37,24.38H4877.7a24.41,24.41,0,0,0,24.38-24.38V1554a24.4,24.4,0,0,0-24.38-24.37Z"/><rect class="Graphic-Style-20" x="4787.78" y="1576.4" width="14.26" height="17.1" rx="4.91"/><rect class="Graphic-Style-20" x="4850.75" y="1576.4" width="14.26" height="17.1" rx="4.91"/><rect class="Graphic-Style-20" x="4787.78" y="1672.17" width="14.26" height="17.1" rx="4.91"/><rect class="Graphic-Style-20" x="4850.75" y="1672.17" width="14.26" height="17.1" rx="4.91"/><polygon class="cls-15" points="2665.26 3300.34 2616.07 3239.2 2692.88 3148.21 2772.19 3266.81 2665.26 3300.34"/><path class="cls-15" d="M1571.78,3200s-66.3,62.47-80.56,95.34c0,0,111.92,35.51,138.3,23,0,0,10-44.05,18.53-58.51S1571.78,3200,1571.78,3200Z"/><path class="Graphic-Style-3" d="M1734.31,1395.81s58,7.31,38.23,59.16-48.81,23.41-48.81,23.41l-52.58-55.78Z"/><path class="Graphic-Style-46" d="M2125.68,1735.08c-106.93,41.42-206-37.64-312.1-42-38.66-1.57,91.82,115,91.82,115s12.83,84.82,168.95,63.12a344.35,344.35,0,0,0,86.83-23.58c-8.68-39.85-16.32-79.77-18.31-120C2137,1730.4,2131.26,1732.92,2125.68,1735.08Z"/><path class="Graphic-Style-28" d="M1888.68,1742.16s59.9,14.75,82.51,47.49c0,0,17,57.95,72.34,57.95s-17,67.57-17,67.57l-92.09-22.59-58.69-63.92Z"/><path class="cls-15" d="M2628.25,1486.54s-25,30.11-74.29,55.24a303.15,303.15,0,0,1-71.13,25.64s-62,43.4-121.91,108.48c-47.45,51.58-101.62,130.4-199.74,171.7-8.69-39.85-16.31-79.77-18.3-120,106.49-51,268.24-222.95,268.24-222.95l116.55,1Z"/><path class="cls-16" d="M2554,1541.78a303.15,303.15,0,0,1-71.13,25.64s-62,43.4-121.91,108.48c-47.45,51.58-101.62,130.4-199.74,171.7l23.24-40.19s51.4-33.22,92.36-71,196.24-177.22,206.69-182.79,37.07-5.91,48.48-8.87A98.55,98.55,0,0,1,2554,1541.78Z"/><path class="Graphic-Style-4" d="M2718.54,3165.31s-24.73,40.15-61.3,63.53c-12.28,7.85-26.12,12.34-41.17,10.35-59.88-7.88-379.18-375.83-458.32-513.92-20.22-35.28-51.6-85-87.12-139.42C1967.1,2427.19,1828.4,2228.2,1828.4,2228.2l254.5-102.57s213.86,284,310.1,434S2718.54,3165.31,2718.54,3165.31Z"/><path class="Graphic-Style-3" d="M2657.24,3228.84c-12.28,7.85-26.12,12.34-41.17,10.35-59.88-7.88-379.18-375.83-458.32-513.92-20.22-35.28-51.6-85-87.12-139.42l-44.47-135.07,31.08-100.28s83,113.43,102.94,168.66,196.77,352.42,273.75,436.58C2491.63,3018.8,2597.42,3165.65,2657.24,3228.84Z"/><path class="Graphic-Style-4" d="M1648.76,3269.69c-16,4-63.59-25.67-92.43-45.1-13.61-9.17-23-16.05-23-16.05L1905.39,2672s-128.3-167.66-181.77-284c-47.52-103.46-10.55-155.47-1.75-165.74a24.32,24.32,0,0,1,1.75-1.92l9.81.74,95,7.14,31.18,16.66,197.66,105.64s102.65,203.17,106.93,347.16S1672.29,3263.77,1648.76,3269.69Z"/><path class="Graphic-Style-3" d="M1988.74,2691.09s-336.45,425.54-432.41,533.5c-13.61-9.17-23-16.05-23-16.05L1905.39,2672s-128.3-167.66-181.77-284c-47.52-103.46-10.55-155.47-1.75-165.74l11.56-1.18,94.56-9.62,36.36,27s-1.71,2.46-4.77,6.46c-11.69,15.24-43.2,53-76.5,63.9L1741,2322.57s151.48,293.56,199.61,331Z"/><path class="Graphic-Style-46" d="M2098.3,2138.67S1908,2243.22,1801,2266.89c-10.4,2.3-19.88,4.14-28.5,5.58-80,13.34-87-7.56-87-7.56s-119.76-282.06-139-394.5c-5.37-31.36,1.24-58.26,13.56-80.76,31.87-58.18,101.93-86.9,101.93-86.9,231-69,271.61,80.87,318.65,153.86S2098.3,2138.67,2098.3,2138.67Z"/><path class="Graphic-Style-30" d="M3015.93,3405.79c-24.95-23-42.71-36.41-111.15-74.54-28.11-15.67-54.78-31.89-77-45.29-31.86-19.23-54.55-32.65-59.17-30.33-7.84,3.95-116.19,33.54-116.19,33.54s4.27,7.89,12.11,37.47c4.72,17.79,12.26,57.42,17.53,86.22l345,10.76C3026.05,3418.23,3022.86,3412.19,3015.93,3405.79Z"/><path class="Graphic-Style-3" d="M2682.07,3412.86c3.5,19.11,6,33.45,6,33.45l329.28.9s12.26-9.59,9.69-23.59Z"/><path class="Graphic-Style-30" d="M1827.61,3418.74c-39.28,1.17-126.53,2.93-188.29-2-65.22-5.22-152.55-43.75-185.53-59.27,10.94-28,31.92-80.63,38.15-89.74,8.54-12.48,32.07,12.5,32.07,12.5s95.52,30.9,119.06,19.07c0,0,60.9,33.85,110.48,57.2,33.52,15.78,64.87,26.29,72,47.34C1826.92,3407.85,1827.49,3413.2,1827.61,3418.74Z"/><path class="Graphic-Style-28" d="M1772.54,2272.47c-80,13.34-87-7.56-87-7.56s-119.76-282.06-139-394.5c-5.37-31.36,1.24-58.26,13.56-80.76,2.44,41.3,18.66,104.93,66.31,202.13C1711.89,2166.1,1755.29,2238.38,1772.54,2272.47Z"/><path class="cls-15" d="M1755.7,1634.48h0c.16.31,4,7.58,8.54,18.36,8.81,20.72,29.54,42.37,24,64.26-8.56,33.54-135.47,35.61-147.08-7.33-17.88-66.12-71.48-136.45-71.48-136.45s96.24-163.71,147.56-149.9,87.69,147.93,77,175.54S1755.7,1634.48,1755.7,1634.48Z"/><path class="cls-17" d="M2803.19,1485.56l-1037.94,53.92c-22.46-18.5-25.35-36.51-4.27-53.92l28.24-5.49,978.33-190.44,15.34,84.28Z"/><path class="cls-11" d="M2803.19,1485.56l-1037.94,53.92c-22.46-18.5-25.35-36.51-4.27-53.92l28.24-5.49c-6,9.5-13,24.55-8.13,37.47,69.71-3,980.77-57.29,980.77-57.29l21-86.34Z"/><path class="Graphic-Style-31" d="M2658.49,1304.75s-14.26,39.45-5.71,104.55,33.86,88.43,33.86,88.43h31.73l-22.82-198.57Z"/><path class="Graphic-Style-20" d="M2691.28,1275.82c-31,86.31-21.9,165.64,23.52,238.68l162.54-13.81c-62.78-79.69-71.66-161.5-23.53-245.58Z"/><path class="Graphic-Style-4" d="M2853.81,1255.11s49.19-20,69.15,50.3,29.23,205.8-45.62,195.28S2803.2,1279.77,2853.81,1255.11Z"/><path class="Graphic-Style-35" d="M2869.51,1270.91a27.55,27.55,0,0,0-7.13.95c-5,3.27-14.66,16.86-20.35,48.94l46.33-41.13C2883.35,1274.37,2877.16,1270.91,2869.51,1270.91Z"/><path class="cls-3" d="M2842,1320.8l-.12.62a261.42,261.42,0,0,0-3.49,33.7l55.85-67.58a47.18,47.18,0,0,0-5.91-7.87Z"/><path class="Graphic-Style-35" d="M2894.27,1287.54l-55.85,67.58a284.26,284.26,0,0,0,4,61.69c.92,5,2,9.83,3.14,14.38l62.82-102.11c-1.43-6.51-3-12.88-4.76-19A92.94,92.94,0,0,0,2894.27,1287.54Z"/><path class="cls-3" d="M2908.37,1329.08l-62.82,102.11c3.29,12.78,7.5,23.6,12.36,32l55.74-104.2C2912.28,1348.85,2910.5,1338.8,2908.37,1329.08Z"/><path class="Graphic-Style-35" d="M2913.65,1359l-55.74,104.2c6.54,11.3,14.26,18.14,22.44,19.29a35.07,35.07,0,0,0,5,.37c6.84,0,11.68-2.29,16.18-7.67C2917.67,1455.82,2920.17,1406.86,2913.65,1359Z"/><path class="Graphic-Style-3" d="M1607.22,1631.38s-52.55,13-78.22-79.74-32.08-122.3,40.64-161.75,134.73-53.26,141.15-75,47,21.69,23.52,80.87-32.08,98.62-59.88,92.71,8.55,31.56-2.14,51.28-15-49.31-47-35.5-21.39,41.42-6.42,69S1607.22,1631.38,1607.22,1631.38Z"/><path class="cls-16" d="M1764.24,1652.85c-17.51-.65-62.15-14.34-46.6-14.34,17.26,0,38.06-4,38.06-4h0C1755.86,1634.8,1759.65,1642.07,1764.24,1652.85Z"/><path class="Graphic-Style-3" d="M1633.61,1689.83l-9,32.87s35.17,21.48,83.65,33.76,46.1,2.19,46.1,2.19l6.18-21Z"/><path class="Graphic-Style-3" d="M1801.38,1732.35l-19.49-7s-1.42-42.08-7.6-52.16l17.11,1.76s20,23.23,20,33.75S1801.38,1732.35,1801.38,1732.35Z"/><path class="Graphic-Style-4" d="M2265.75,1598.83c-.07.45-.14.89-.23,1.34.08-.51.12-1,.18-1.51A1.09,1.09,0,0,0,2265.75,1598.83Z"/><path class="Graphic-Style-3" d="M1825.55,3446.55l-191.76-5.25s-20,5.25-98.37-29.59-88.4-36.82-88.4-36.82,2.69-7,6.77-17.44c33,15.52,120.31,54.05,185.53,59.27,61.76,5,149,3.19,188.29,2A179.11,179.11,0,0,1,1825.55,3446.55Z"/><path class="cls-3" d="M2842.76,3280l-30.65,28.93s7.84,11.84,16.4,10.52,30.65-22.35,30.65-22.35Z"/><path class="cls-3" d="M2875.55,3303l-21.38,27.62s6.41,21,15.68,13.15,25-23.67,25-23.67Z"/><path class="cls-3" d="M1668.19,3293.6l-30.65,28.93s7.84,11.84,16.39,10.52,30.65-22.35,30.65-22.35Z"/><path class="cls-3" d="M1701,3316.62l-21.39,27.61s6.42,21,15.69,13.15,25-23.67,25-23.67Z"/><path class="Graphic-Style-3" d="M1807.32,2370.42s40.87-1.32,53.7-18.41C1864.35,2381.37,1827.75,2384.88,1807.32,2370.42Z"/><path class="Graphic-Style-3" d="M2083.44,2714.51s37.07,7.89,50.61-.66C2140.47,2743.44,2094.13,2728.32,2083.44,2714.51Z"/><path class="Graphic-Style-3" d="M2065.61,2761.85s38.5,21,59.17,10.52C2114.8,2809.19,2072.74,2780.92,2065.61,2761.85Z"/><path class="Graphic-Style-3" d="M2417.06,2627.72s-31.72,16.77-45.62,18.74C2414.92,2660.27,2417.06,2627.72,2417.06,2627.72Z"/><path class="Graphic-Style-3" d="M2449.5,2674.73s-31,19.4-47.41,21.37C2448.43,2710.89,2449.5,2674.73,2449.5,2674.73Z"/><path class="cls-15" d="M2265.75,1598.83c-.07.45-.14.89-.23,1.34-1.79,10.58-3.82,21.55-6.07,32.83-24.78,123.78-77.37,283.92-165.85,354.56-46.65,37.23-102.46,47.34-156.56,44-112.08-6.84-216.69-71.3-216.69-71.3l233.9-83.19c160.4-13.81,199.22-222.64,199.22-291.93,0-32.69-72.5-62.09-72.5-62.09l76.78-4s23.53-30.58,27.8-91.72,79.13-2,89.83,47.34C2278.85,1490.68,2276,1538.11,2265.75,1598.83Z"/><path class="Graphic-Style-46" d="M1988.8,1851.46c0,13.61-2,93-3.3,140.93-.57,21.46-1,36.59-1,36.59a542.58,542.58,0,0,1-56.43,4.14c-1.87.06-3.75.09-5.69.13-62.5,1.13-158.1-6.27-218.74-54.39a157.94,157.94,0,0,1-16.4-15l47-146s131.68,7.15,205.6,18.5c2.28.35,4.5.71,6.67,1.06C1971.79,1841.66,1988.8,1846.35,1988.8,1851.46Z"/><path class="cls-16" d="M2259.45,1633c-24.78,123.78-77.37,283.92-165.85,354.56-46.65,37.23-102.46,47.34-156.56,44l.73-38.43s91.54,8.91,136.87-21C2175.16,1905.71,2229.8,1753.44,2259.45,1633Z"/><path class="Graphic-Style-28" d="M1985.5,1992.39c-.57,21.46-1,36.59-1,36.59s-25.32,3.62-62.12,4.27c-62.5,1.13-158.1-6.27-218.74-54.39,28.5,9.42,90.61,26.58,157.57,23.81,22.65-.94,42.1-2.12,58.56-3.35C1954.14,1996.75,1975.47,1993.91,1985.5,1992.39Z"/><path class="Graphic-Style-3" d="M1988.8,1851.46c0,13.61-2,93-3.3,140.93-.57,21.46-1,36.59-1,36.59a542.58,542.58,0,0,1-56.43,4.14c1.39-17.88,4.13-51.25,7.55-84,3.74-36,8.69-87.94,10.93-111.63C1971.79,1841.66,1988.8,1846.35,1988.8,1851.46Z"/><path class="cls-4" d="M1963,1847.69a3.88,3.88,0,0,1-1.06-.15c-33.75-9.33-194.62-21.88-196.24-22a4,4,0,1,1,.62-8c6.65.52,163.26,12.74,197.75,22.27a4,4,0,0,1-1.07,7.86Z"/><path class="cls-18" d="M1704.79,1519.5c-.38-.19-.54-.71-.46-1.55a4.68,4.68,0,0,1,.34-1.47,16.08,16.08,0,0,1,.85-1.74c.38-.59.85-1.2,1.37-1.86s1.17-1.21,1.84-1.84a25.94,25.94,0,0,1,4.82-3.22,27.82,27.82,0,0,1,9.74-3.06c2.62-.26,4.36.13,4.55,1,.4,1.68-5.15,4.29-11.44,7.56-1.59.8-3,1.63-4.33,2.35-.62.4-1.24.75-1.81,1.09s-1.06.68-1.55,1a14.26,14.26,0,0,1-1.29.85c-.43.23-.71.49-1.05.65A1.85,1.85,0,0,1,1704.79,1519.5Z"/><path class="cls-18" d="M1759,1479.34a1.7,1.7,0,0,1-.23,1.45,13.81,13.81,0,0,1-1.35,1.88c-1.17,1.39-2.71,3.11-4.34,5.14-3.27,4-5.75,7.89-7.39,7.45-.82-.22-1.23-1.68-.9-3.81a16.41,16.41,0,0,1,3.5-7.49,14.93,14.93,0,0,1,6.79-5,6.26,6.26,0,0,1,2.64-.36A1.45,1.45,0,0,1,1759,1479.34Z"/><ellipse class="Graphic-Style-3" cx="1727.84" cy="1533.4" rx="7.84" ry="9.86" transform="translate(-578.2 1670.89) rotate(-45)"/><path class="cls-15" d="M1748.27,1524.25s28.76,15.44,30.66,25-8.08,10.46-8.08,10.46Z"/><path class="Graphic-Style-3" d="M1759.91,1568.55a2,2,0,0,1-.23-4,15.63,15.63,0,0,0,9.58-6.12,2,2,0,0,1,1.39-.78s6.12-.69,8.42-4.9a4.26,4.26,0,0,0-.22-3.31c-2.14-5.76-11.36-14.55-26.53-20.24a2,2,0,1,1,1.41-3.74c16.43,6.16,26.34,15.78,28.87,22.59,1,2.56,1,4.84,0,6.61-2.71,5-8.46,6.45-10.66,6.85a19.49,19.49,0,0,1-11.77,7Z"/><path class="cls-18" d="M1782.49,1569.87c.41.09.68.68.76,1.75a10.33,10.33,0,0,1-.91,4.31,17.46,17.46,0,0,1-3.7,5.4,25.31,25.31,0,0,1-6.32,4.59,33.62,33.62,0,0,1-13.08,3.69c-3.46.2-5.66-.36-5.74-1.2s1.8-1.81,4.79-3.05,7.08-2.75,11.17-4.89a31.72,31.72,0,0,0,9.16-6.8C1780.61,1571.52,1781.6,1569.68,1782.49,1569.87Z"/><path class="cls-4" d="M4495.56,3454H1317.7a4,4,0,1,1,0-8H4495.56a4,4,0,0,1,0,8Z"/><g id="Artwork_8" data-name="Artwork 8"><ellipse class="Graphic-Style-20" cx="1415.45" cy="2153.06" rx="158.88" ry="146.54"/><ellipse class="Graphic-Style-29" cx="1406.89" cy="2132.39" rx="158.88" ry="146.54"/><path class="cls-3" d="M1406.89,2123.75c-19.37,0-35-14.82-34.24-32.83.68-16.38,15.15-29.73,32.91-30.35,17.5-.62,32.22,10.88,35.09,26.13a6.93,6.93,0,0,0,6.95,5.45h0c4.38,0,7.68-3.65,6.93-7.63-4-21.34-24.41-37.48-48.81-36.94-25.64.56-46.56,19.84-47.16,43.5-.64,25.11,21.25,45.66,48.33,45.66h0c19.37,0,35,14.82,34.24,32.84-.67,16.38-15.14,29.73-32.9,30.35-17.51.61-32.22-10.89-35.1-26.13a6.92,6.92,0,0,0-6.94-5.45h0c-4.38,0-7.68,3.65-6.94,7.63,4,21.33,24.41,37.48,48.81,37,25.65-.56,46.57-19.86,47.17-43.51C1455.86,2144.29,1434,2123.75,1406.89,2123.75Z"/><path class="cls-3" d="M1406.89,2027.73c-3.83,0-6.93,2.58-6.93,5.77v197.79c0,3.18,3.1,5.76,6.93,5.76s6.94-2.58,6.94-5.76V2033.5C1413.83,2030.31,1410.72,2027.73,1406.89,2027.73Z"/></g><g id="Artwork_71" data-name="Artwork 71"><path class="cls-2" d="M1386.62,2822.63h0a100.53,100.53,0,0,1-100.54,100.53h0a100.54,100.54,0,0,1,100.54,100.54h0a100.53,100.53,0,0,1,100.53-100.54h0A100.53,100.53,0,0,1,1386.62,2822.63Z"/></g><g id="Artwork_71-2" data-name="Artwork 71"><path class="cls-2" d="M3696.32,2882.51h0A100.53,100.53,0,0,1,3595.78,2983h0a100.54,100.54,0,0,1,100.54,100.54h0A100.54,100.54,0,0,1,3796.86,2983h0A100.53,100.53,0,0,1,3696.32,2882.51Z"/></g><path class="Graphic-Style-8" d="M3634.81,2037.58l-40.23,136.48h-379l17.16-58.24c40.51-25.05,98.41-55.69,128.06-47.41,48.47,13.55,57,37.07,102.65,19.25s76.28-80.56,119-68.44A450.75,450.75,0,0,1,3634.81,2037.58Z"/><path class="cls-19" d="M3922.34,2092.6v91.87a48.84,48.84,0,0,1-48.84,48.84h-16.34c13.42-19.62,36.22-54.79,39.71-72.23,3.29-16.44-.55-48.52-3.54-68.48Z"/><path class="Graphic-Style-3" d="M1270.64,2341.59H1104.9c-15.65,0-30.7-12.59-33.6-28.13l-62.19-332.25c-2.9-15.54,7.42-28.13,23.07-28.13h165.75c15.65,0,30.69,12.59,33.6,28.13l62.18,332.25C1296.62,2329,1286.29,2341.59,1270.64,2341.59Z"/><path class="Graphic-Style-20" d="M1287.75,2341.59H1122c-15.65,0-30.7-12.59-33.6-28.13l-62.19-332.25c-2.91-15.54,7.42-28.13,23.07-28.13H1215c15.65,0,30.69,12.59,33.6,28.13l62.18,332.25C1313.73,2329,1303.4,2341.59,1287.75,2341.59Z"/><path class="cls-3" d="M1118.85,2324.71a14.28,14.28,0,0,1-13.45-11.25l-62.18-332.25c-1.16-6.21,3-11.26,9.23-11.26h165.74a14.27,14.27,0,0,1,13.45,11.26l62.18,332.25c1.16,6.21-3,11.25-9.23,11.25Z"/><circle class="Graphic-Style-4" cx="1209.87" cy="2302.86" r="13.31"/><path class="Graphic-Style-8" d="M1138.31,2253.75h-11.55c-7.36,0-14.48-5.94-15.9-13.27l-12.44-64.57c-1.41-7.33,3.42-13.27,10.79-13.27h11.54c7.37,0,14.49,5.94,15.9,13.27l12.44,64.57C1150.5,2247.81,1145.67,2253.75,1138.31,2253.75Z"/><path class="Graphic-Style-8" d="M1189.52,2253.75H1178c-7.37,0-14.49-5.94-15.91-13.27l-22.73-118c-1.42-7.33,3.41-13.27,10.78-13.27h11.54c7.37,0,14.49,5.94,15.9,13.27l22.74,118C1201.71,2247.81,1196.89,2253.75,1189.52,2253.75Z"/><path class="Graphic-Style-8" d="M1242.89,2253.75h-11.54c-7.37,0-14.49-5.94-15.9-13.27l-33.38-173.26c-1.41-7.33,3.42-13.27,10.79-13.27h11.54c7.37,0,14.48,5.94,15.9,13.27l33.38,173.26C1255.09,2247.81,1250.26,2253.75,1242.89,2253.75Z"/><ellipse class="cls-2" cx="3750.96" cy="1432.76" rx="35.29" ry="32.55"/></g></svg>