<?xml version="1.0" encoding="utf-8"?>
<!-- Generator: Adobe Illustrator 23.0.3, SVG Export Plug-In . SVG Version: 6.00 Build 0)  -->
<svg version="1.1" xmlns="http://www.w3.org/2000/svg" xmlns:xlink="http://www.w3.org/1999/xlink" x="0px" y="0px"
	 viewBox="0 0 3000 2225" style="enable-background:new 0 0 3000 2225;" xml:space="preserve">
<style type="text/css">
	.st0{fill:#E3ECFF;}
	.st1{fill:#FFFFFF;}
	.st2{fill:#48B190;}
	.st3{fill:#339172;}
	.st4{fill:#CCFEFF;}
	.st5{fill:#B25BB2;}
	.st6{fill:#944096;}
	.st7{fill:#F5A9F7;}
	.st8{fill:#FFB850;}
	.st9{fill:#CE8930;}
	.st10{fill:#FFE3BD;}
	.st11{fill:#2C9975;}
	.st12{fill:#DD8C22;}
	.st13{fill:#FFFFFF;stroke:#507EFF;stroke-width:4;stroke-miterlimit:10;}
	.st14{fill:#507EFF;}
	.st15{fill:#CCDCFF;}
	.st16{fill:#914A60;}
	.st17{fill:#702D45;}
	.st18{fill:#FF9350;}
	.st19{opacity:0.6;fill:#48B190;}
	.st20{fill:#FCA69D;}
	.st21{fill:#4B54FF;}
	.st22{fill:#2B2F54;}
	.st23{fill:#14182D;}
	.st24{fill:#EA847D;}
	.st25{fill:#6A3442;}
	.st26{fill:#3D2042;}
	.st27{fill:#191E38;}
	.st28{fill:#FFB7A8;}
	.st29{fill:#6D3842;}
	.st30{fill:#FF723B;}
	.st31{fill:#EB453B;}
	.st32{fill:#FFC67B;}
	.st33{fill:#EF8A52;}
	.st34{fill:url(#SVGID_1_);}
	.st35{fill:url(#SVGID_2_);}
	.st36{fill:url(#SVGID_3_);}
	.st37{fill:url(#SVGID_4_);}
	.st38{fill:url(#SVGID_5_);}
	.st39{fill:url(#SVGID_6_);}
	.st40{fill:#69B3F7;}
	.st41{fill:#88ADFF;}
	.st42{fill:#E6F0FF;}
	.st43{fill:#B8D2FF;}
</style>
<g id="Layer_3">
	<path class="st0" d="M2538.03,1230.18c-54.9,434.86-619.27,738.91-1093.61,755.66c-64.41,2.27-685.85,14.51-984.78-450.75
		c-41.49-64.57-254.37-395.89-99.91-738.78c92.1-204.47,295.81-370.84,516.76-393.32c251.53-25.6,294.35,158.78,654.77,245.77
		c426.06,102.83,625.92-96.67,829.57,68.03C2515.63,841.98,2558.36,1069.15,2538.03,1230.18z"/>
	<g>
		<path class="st1" d="M720.7,1420.52c-38.66,0-75.69-3.02-110.98-9.06c-85-14.55-160.12-46.58-223.27-95.2
			c-56.19-43.27-92.29-91.94-112.68-125.14c-22.12-36.04-30.81-61.46-31.17-62.53l5.68-1.92c0.09,0.26,8.91,26.03,30.76,61.57
			c20.15,32.77,55.82,80.79,111.32,123.47c98.07,75.4,278.28,148.17,579.93,66.69c210.92-56.97,383.22-134.73,535.24-203.33
			c136.74-61.71,254.83-114.99,371.4-140.65c127.89-28.14,240.58-18.89,354.63,29.13c156.56,65.91,272.15,70.93,341.53,63.54
			c75.12-8,113.76-31.87,114.14-32.11l3.2,5.07c-1.59,1.01-39.9,24.74-116.23,32.95c-44.69,4.81-93.17,3.22-144.09-4.73
			c-63.57-9.92-131.16-29.84-200.89-59.19c-245.36-103.29-455.36-8.52-721.24,111.45c-152.23,68.69-324.76,146.55-536.15,203.65
			C882.31,1408.38,798.24,1420.52,720.7,1420.52z"/>
	</g>
	<g>
		<path class="st1" d="M1049.31,2003.71l-5.35-2.71c0.26-0.51,26.61-51.79,83.94-107.05c33.66-32.44,71.29-59.93,111.83-81.7
			c50.68-27.21,106.09-45.52,164.68-54.41c84.04-12.75,173.85-3.59,260.7,5.26c180.02,18.35,350.06,35.69,455.76-135.34l5.1,3.15
			c-25.91,41.92-56.12,73.87-92.36,97.69c-32.39,21.29-68.93,35.57-111.72,43.64c-79.33,14.97-165.83,6.15-257.4-3.18
			c-86.48-8.82-175.91-17.94-259.19-5.3c-131.03,19.88-220.82,84.02-273.07,134.33C1075.56,1952.67,1049.56,2003.2,1049.31,2003.71z
			"/>
	</g>
	<g>
		<path class="st1" d="M919.3,779.07c-31.73,0-66.39-3.88-103.81-11.66c-65.04-13.51-138.53-38.74-218.43-74.99
			C461.13,630.75,352.21,557.5,351.12,556.77l3.36-4.97c1.08,0.73,109.65,73.73,245.14,135.19
			c79.49,36.06,152.54,61.14,217.14,74.56c80.44,16.71,147.83,15.25,200.3-4.34c54.95-20.51,91.76-55.07,109.42-102.7
			c22.86-61.65,9.48-134.87-5.78-185.44c-16.6-55.03-38.95-95.91-39.17-96.31l5.26-2.89c0.23,0.41,22.84,41.75,39.62,97.35
			c15.54,51.48,29.15,126.12,5.7,189.37c-18.29,49.35-56.3,85.1-112.96,106.25C990.16,773.65,956.77,779.06,919.3,779.07z"/>
	</g>
</g>
<g id="Layer_2">
	<g>
		<path class="st2" d="M524.38,1748.57c-67.96,3.07-131.85-46.31-131.85-46.31l31.38-23.71c-1.96,1.31-13.07,7.31-52.39,7.33
			c-17.56-25.79-62.53-103.96-62.53-103.96l44.76-27.07l-57.69-14.4c0,0-1.32-7.39-19.82-73.82
			c42.67-5.08,119.49,25.66,159.62,44.29c15.71,39.87,0.41,69.14,0.41,69.14s14.77,6.28,22.61-47.99
			c40.61,38.03,63.75,88.78,63.75,88.78l-3.26,12.28C546.64,1687.81,524.38,1748.57,524.38,1748.57z"/>
		<path class="st3" d="M524.38,1748.57c-67.96,3.07-131.85-46.31-131.85-46.31l31.38-23.71c-1.96,1.31-13.07,7.31-52.39,7.33
			c-17.56-25.79-62.53-103.96-62.53-103.96l44.76-27.07l-57.69-14.4c0,0-1.32-7.39-19.82-73.82
			C439.17,1593.36,524.38,1748.57,524.38,1748.57z"/>
		<path class="st4" d="M486.98,1689.47c-9.68-10.12-18.85-20.57-27.92-31.09c-9.06-10.53-17.94-21.17-26.79-31.84
			c-8.86-10.65-17.59-21.4-26.37-32.12c-8.78-10.73-17.54-21.45-26.27-32.41c11.18,8.45,21.4,18.05,31.2,28
			c9.77,9.98,19.01,20.45,27.92,31.17c8.89,10.74,17.38,21.8,25.49,33.13C472.32,1665.67,480.09,1677.27,486.98,1689.47z"/>
	</g>
	<g>
		<path class="st5" d="M526.49,1793.77c-60.78,30.57-139.26,11.6-139.26,11.6l18.96-34.46c-1.26,2-8.94,12.02-44.82,28.09
			c-26.56-16.37-99.54-69.34-99.54-69.34l29.79-43l-58.53,10.43c0,0-4.23-6.21-48.25-59.28c36.87-22.07,119.55-25.4,163.78-24.78
			c30.63,29.97,28.63,62.93,28.63,62.93s16.04-0.31,1.03-53.04c52.6,18.12,94.46,54.99,94.46,54.99l2.04,12.55
			C521.98,1729.22,526.49,1793.77,526.49,1793.77z"/>
		<path class="st6" d="M526.49,1793.77c-60.78,30.57-139.26,11.6-139.26,11.6l18.96-34.46c-1.26,2-8.94,12.02-44.82,28.09
			c-26.56-16.37-99.54-69.34-99.54-69.34l29.79-43l-58.53,10.43c0,0-4.23-6.21-48.25-59.28
			C385.3,1686.91,526.49,1793.77,526.49,1793.77z"/>
		<path class="st7" d="M472.2,1760.84c-12.72-5.85-25.1-12.19-37.4-18.64c-12.29-6.46-24.47-13.09-36.62-19.76
			c-12.16-6.64-24.23-13.43-36.34-20.17c-12.11-6.75-24.2-13.5-36.35-20.47c13.51,3.74,26.54,8.92,39.31,14.56
			c12.76,5.69,25.2,12.02,37.43,18.72c12.22,6.71,24.18,13.88,35.89,21.43C449.82,1744.1,461.31,1752.02,472.2,1760.84z"/>
	</g>
	<g>
		<path class="st8" d="M2479.93,1710.32c68.03,0.65,130.12-50.96,130.12-50.96l-32.21-22.58c2.01,1.24,13.32,6.85,52.61,5.46
			c16.63-26.4,58.8-106.11,58.8-106.11l-45.69-25.47l57.14-16.44c0,0,1.06-7.44,17.19-74.48c-42.82-3.56-118.51,29.89-157.94,49.94
			c-14.28,40.4,2.04,69.11,2.04,69.11s-14.54,6.8-24.3-47.16c-39.23,39.45-60.56,90.99-60.56,90.99l3.7,12.16
			C2455.53,1650.38,2479.93,1710.32,2479.93,1710.32z"/>
		<path class="st9" d="M2479.93,1710.32c68.03,0.65,130.12-50.96,130.12-50.96l-32.21-22.58c2.01,1.24,13.32,6.85,52.61,5.46
			c16.63-26.4,58.8-106.11,58.8-106.11l-45.69-25.47l57.14-16.44c0,0,1.06-7.44,17.19-74.48
			C2559.58,1552.17,2479.93,1710.32,2479.93,1710.32z"/>
		<path class="st10" d="M2515.22,1649.92c9.31-10.46,18.11-21.22,26.8-32.06c8.68-10.84,17.18-21.8,25.64-32.77
			c8.48-10.96,16.82-22.01,25.21-33.04c8.39-11.04,16.77-22.06,25.1-33.32c-10.88,8.84-20.74,18.8-30.19,29.09
			c-9.41,10.33-18.27,21.11-26.79,32.14c-8.51,11.05-16.59,22.4-24.3,34.02C2529.02,1625.62,2521.66,1637.48,2515.22,1649.92z"/>
	</g>
	<g>
		<path class="st5" d="M2479.43,1755.56c61.83,28.39,139.58,6.64,139.58,6.64l-20.17-33.77c1.33,1.95,9.36,11.69,45.79,26.48
			c25.96-17.3,97.02-72.83,97.02-72.83l-31.3-41.91l58.87,8.34c0,0,4-6.35,46.12-60.96c-37.63-20.75-120.37-21.14-164.56-18.95
			c-29.54,31.04-26.37,63.91-26.37,63.91s-16.04,0.27-2.91-52.97c-51.92,19.97-92.45,58.31-92.45,58.31l-1.59,12.61
			C2481.65,1690.89,2479.43,1755.56,2479.43,1755.56z"/>
		<path class="st6" d="M2479.43,1755.56c61.83,28.39,139.58,6.64,139.58,6.64l-20.17-33.77c1.33,1.95,9.36,11.69,45.79,26.48
			c25.96-17.3,97.02-72.83,97.02-72.83l-31.3-41.91l58.87,8.34c0,0,4-6.35,46.12-60.96
			C2616.74,1643.76,2479.43,1755.56,2479.43,1755.56z"/>
		<path class="st7" d="M2532.52,1720.72c12.51-6.3,24.65-13.07,36.71-19.96c12.06-6.89,23.99-13.95,35.89-21.04
			c11.92-7.07,23.74-14.28,35.6-21.45c11.86-7.18,23.71-14.35,35.6-21.75c-13.36,4.22-26.21,9.86-38.77,15.95
			c-12.55,6.14-24.75,12.91-36.74,20.04c-11.97,7.14-23.67,14.73-35.11,22.7C2554.3,1703.2,2543.09,1711.53,2532.52,1720.72z"/>
	</g>
	<g>
		<path class="st2" d="M2578.95,1234.85c0,17.83-8.59,0.39-29.59,8.72c-21,8.32-20.74-29.32-42.14-32.1
			c-21.4-2.77-23.38,19.02-44.39,8.72c-21.01-10.3-33.69-20.61-52.71-11.89c-13.3-8.16-24.07-20.68-31.9-32.03
			c-9.67-14.01-14.87-26.23-14.87-26.23s13.87-17.44,26.16-53.51c12.29-36.07,30.12-45.58,49.94-47.95
			c19.82-2.38-2.38,20.61,36.46,21.4c38.84,0.79,28.14,19.42,48.75,46.77c3.37,4.47,6.98,7.98,10.65,10.88
			c18.76,14.85,38.87,13.86,34.13,45C2563.3,1213.05,2578.95,1217.02,2578.95,1234.85z"/>
		<path class="st11" d="M2578.95,1234.85c0,17.83-8.59,0.39-29.59,8.72c-21,8.32-20.74-29.32-42.14-32.1
			c-21.4-2.77-23.38,19.02-44.39,8.72c-21.01-10.3-33.69-20.61-52.71-11.89c-13.3-8.16-24.07-20.68-31.9-32.03
			c3.52-7.6,6.27-13.5,6.27-13.5s27.14-12.3,52.16-4.67c22.38,6.83,85.83,21.46,98.65-30.48c18.76,14.85,38.87,13.86,34.13,45
			C2563.3,1213.05,2578.95,1217.02,2578.95,1234.85z"/>
		<path class="st8" d="M2410.12,1208.3l-5.81,3.57l-66.58-51.79c0,0,3.06-4.43,8.24-8.67c6.41-5.26,16.06-10.22,27.17-6.13
			c19,7,26.18,26.55,35.4,38.25c0.52,0.67,1.05,1.3,1.59,1.91C2420.16,1196.81,2410.12,1208.3,2410.12,1208.3z"/>
		<path class="st12" d="M2410.12,1208.3l-5.81,3.57l-66.58-51.79c0,0,3.06-4.43,8.24-8.67c4.8,3.39,14.5,9.51,25.95,12.77
			c16.4,4.67,24.31,9.05,28.55,16.68c2.26,4.06,5.51,3.8,8.06,2.67c0.52,0.67,1.05,1.3,1.59,1.91
			C2420.16,1196.81,2410.12,1208.3,2410.12,1208.3z"/>
		<path class="st8" d="M2402.98,1239.21c0,0,16.12-12.29,13.21-27.35c-2.91-15.06-14.27-14-20.87-25.37s-26.42-14.27-40.95-24.84
			c-14.53-10.57-30.12-10.83-38.31-5.55c-8.19,5.28-5.55,26.69-5.55,26.69L2402.98,1239.21z"/>
		<path class="st2" d="M2556.76,1563.08c-0.79,94.26-2.7,204.31-231.25,270.99c-83.78,24.45-157.16,14.73-215.73-13.82h0
			c-86.18-42-140.29-124.77-148.3-199.43c-15.48-144.27,109.57-227.24,193.4-286.2c83.83-58.95,100.68-91.45,101.86-122.76
			c1.14-29.93,43.02-54.43,100.21-25.7c2.63,1.32,5.29,2.75,7.99,4.3c41.92,24.15,48.35,46.37,55.09,87.98
			c6.74,41.61,20.21,52.71,55.88,86.4C2511.58,1398.54,2557.55,1468.83,2556.76,1563.08z"/>
		<path class="st11" d="M2556.76,1563.08c-0.79,94.26-2.7,204.31-231.25,270.99c-83.78,24.45-157.16,14.73-215.73-13.82
			c423.77,59.5,366.85-307.01,320.03-363.33c-55.93-67.27-72.04-95.05-47.4-168.84c24.64-73.8-25.97-101.89-25.97-101.89l0.51-0.04
			c2.63,1.32,5.29,2.75,7.99,4.3c41.92,24.15,48.35,46.37,55.09,87.98c6.74,41.61,20.21,52.71,55.88,86.4
			C2511.58,1398.54,2557.55,1468.83,2556.76,1563.08z"/>
		<g>
			<g>
				<g>
					<g>
						<path class="st8" d="M2184.23,1576.77l0.86-14.13c-9.16-0.85-18.17-4.03-23.2-7.85l4.77-13.45c5.48,3.7,13.45,7.25,22.33,7.79
							c9.18,0.56,15.71-3.57,16.14-10.56c0.4-6.55-4.44-11.09-14.98-15.68c-14.96-6.47-24.43-14.06-23.61-27.61
							c0.76-12.53,10.09-21.61,24.96-23.33l0.87-14.27l11.94,0.73l-0.83,13.55c9.16,0.85,15.29,3.42,19.81,6.03l-4.75,13.16
							c-3.4-1.82-9.6-5.56-19.51-6.16c-10.2-0.62-14.16,4.4-14.46,9.35c-0.36,5.97,4.67,9.64,16.75,15.35
							c15.94,7.11,22.74,15.42,21.95,28.38c-0.76,12.38-10.02,22.78-26.2,24.42l-0.92,15L2184.23,1576.77z"/>
					</g>
				</g>
				<g>
					<path class="st8" d="M2146.99,1615.12c-55.36-25.95-79.29-92.11-53.34-147.47c25.95-55.36,92.11-79.29,147.47-53.34
						c55.36,25.95,79.29,92.11,53.34,147.47C2268.51,1617.15,2202.35,1641.08,2146.99,1615.12z M2234.21,1429.06
						c-47.23-22.14-103.67-1.73-125.82,45.5c-22.14,47.23-1.73,103.67,45.5,125.82c47.23,22.14,103.67,1.73,125.82-45.5
						C2301.86,1507.64,2281.45,1451.2,2234.21,1429.06z"/>
				</g>
			</g>
		</g>
	</g>
	<g>
		<path class="st13" d="M676.13,1016.22h-399.5c-7.6,0-13.76-6.16-13.76-13.76V774.44c0-7.6,6.16-13.76,13.76-13.76h399.5
			c7.6,0,13.76,6.16,13.76,13.76v228.02C689.89,1010.06,683.73,1016.22,676.13,1016.22z"/>
		<path class="st14" d="M676.13,1016.22h-33.76V760.68h33.76c7.6,0,13.76,6.16,13.76,13.76v228.02
			C689.89,1010.06,683.73,1016.22,676.13,1016.22z"/>
		
			<ellipse transform="matrix(0.2298 -0.9732 0.9732 0.2298 -498.3466 1292.1237)" class="st14" cx="567.16" cy="960.91" rx="18.04" ry="18.04"/>
		
			<ellipse transform="matrix(0.7071 -0.7071 0.7071 0.7071 -505.7296 700.8727)" class="st15" cx="593.16" cy="960.91" rx="18.04" ry="18.04"/>
		<g>
			<g>
				<g>
					<path class="st14" d="M300.37,808.32l-1.49-1.09l1.93-2.37l-2.97-0.82l0.59-1.76l2.85,1.09l-0.15-3.06h1.84l-0.15,3.04
						l2.87-1.07l0.57,1.76l-2.95,0.82l1.93,2.37l-1.51,1.09l-1.68-2.55L300.37,808.32z"/>
					<path class="st14" d="M310.57,808.32l-1.49-1.09l1.93-2.37l-2.97-0.82l0.59-1.76l2.85,1.09l-0.15-3.06h1.84l-0.15,3.04
						l2.87-1.07l0.57,1.76l-2.95,0.82l1.93,2.37l-1.51,1.09l-1.68-2.55L310.57,808.32z"/>
					<path class="st14" d="M320.77,808.32l-1.49-1.09l1.93-2.37l-2.97-0.82l0.59-1.76l2.85,1.09l-0.15-3.06h1.84l-0.15,3.04
						l2.87-1.07l0.57,1.76l-2.95,0.82l1.93,2.37l-1.51,1.09l-1.68-2.55L320.77,808.32z"/>
					<path class="st14" d="M330.97,808.32l-1.49-1.09l1.93-2.37l-2.97-0.82l0.59-1.76l2.85,1.09l-0.15-3.06h1.84l-0.15,3.04
						l2.87-1.07l0.57,1.76l-2.95,0.82l1.93,2.37l-1.51,1.09l-1.68-2.55L330.97,808.32z"/>
					<path class="st14" d="M341.16,808.32l-1.49-1.09l1.93-2.37l-2.97-0.82l0.59-1.76l2.85,1.09l-0.15-3.06h1.84l-0.15,3.04
						l2.87-1.07l0.57,1.76l-2.95,0.82l1.93,2.37l-1.51,1.09l-1.68-2.55L341.16,808.32z"/>
					<path class="st14" d="M351.36,808.32l-1.49-1.09l1.93-2.37l-2.97-0.82l0.59-1.76l2.85,1.09l-0.15-3.06h1.84l-0.15,3.04
						l2.87-1.07l0.57,1.76l-2.95,0.82l1.93,2.37l-1.51,1.09l-1.68-2.55L351.36,808.32z"/>
				</g>
				<g>
					<path class="st14" d="M371.42,811.78v-1.99l5.05-5.47c0.59-0.66,1.02-1.26,1.3-1.8c0.28-0.54,0.42-1.08,0.42-1.61
						c0-0.68-0.2-1.2-0.59-1.55c-0.39-0.35-0.96-0.52-1.7-0.52c-0.67,0-1.34,0.13-2.02,0.39c-0.68,0.26-1.35,0.65-2.02,1.16
						l-0.92-1.97c0.6-0.53,1.36-0.95,2.28-1.26c0.92-0.31,1.86-0.46,2.81-0.46c0.98,0,1.83,0.16,2.55,0.48
						c0.73,0.32,1.28,0.79,1.68,1.39c0.39,0.61,0.59,1.33,0.59,2.17c0,0.87-0.18,1.67-0.54,2.42c-0.36,0.75-0.98,1.59-1.84,2.52
						l-4.54,4.82l-0.31-0.9h7.81v2.18H371.42z"/>
					<path class="st14" d="M388.9,796.7c1.88,0,3.34,0.63,4.36,1.9c1.02,1.26,1.53,3.08,1.53,5.45c0,1.66-0.24,3.08-0.72,4.26
						c-0.48,1.18-1.18,2.08-2.08,2.7c-0.91,0.62-2,0.93-3.27,0.93c-0.89,0-1.76-0.15-2.61-0.44c-0.84-0.29-1.58-0.72-2.21-1.28
						l0.92-1.97c0.7,0.54,1.36,0.94,1.99,1.18c0.63,0.24,1.24,0.37,1.82,0.37c1.13,0,2-0.49,2.6-1.48c0.6-0.98,0.9-2.4,0.9-4.24
						v-1.13l0.29,0.52c-0.13,0.6-0.38,1.12-0.75,1.56c-0.38,0.44-0.84,0.78-1.39,1.03c-0.55,0.24-1.16,0.37-1.81,0.37
						c-0.88,0-1.66-0.21-2.36-0.62c-0.69-0.41-1.23-0.98-1.62-1.7c-0.39-0.72-0.59-1.55-0.59-2.48c0-0.96,0.22-1.82,0.65-2.57
						c0.43-0.75,1.03-1.33,1.78-1.75C387.08,796.91,387.94,796.7,388.9,796.7z M389.05,798.83c-0.78,0-1.41,0.25-1.87,0.74
						c-0.47,0.5-0.7,1.16-0.7,1.98c0,0.82,0.23,1.48,0.7,1.98c0.47,0.5,1.09,0.74,1.87,0.74c0.52,0,0.98-0.12,1.38-0.35
						c0.4-0.23,0.72-0.55,0.93-0.96c0.22-0.41,0.32-0.88,0.32-1.41c0-0.54-0.11-1.02-0.32-1.42c-0.22-0.4-0.53-0.72-0.93-0.95
						C390.02,798.95,389.56,798.83,389.05,798.83z"/>
					<path class="st14" d="M402.3,811.92c-1.01,0-1.97-0.15-2.9-0.45c-0.93-0.3-1.69-0.72-2.29-1.27l0.92-1.97
						c0.66,0.52,1.33,0.9,2.02,1.16c0.69,0.26,1.41,0.39,2.15,0.39c0.96,0,1.68-0.18,2.14-0.55c0.46-0.37,0.69-0.95,0.69-1.73
						c0-0.75-0.24-1.31-0.71-1.68c-0.47-0.36-1.21-0.54-2.2-0.54h-1.97v-2.14h1.61c0.96,0,1.69-0.18,2.17-0.54
						c0.48-0.36,0.72-0.91,0.72-1.63c0-0.7-0.21-1.23-0.63-1.59c-0.42-0.36-1-0.54-1.74-0.54c-0.68,0-1.37,0.13-2.05,0.39
						c-0.68,0.26-1.35,0.65-1.99,1.16l-0.92-1.97c0.6-0.53,1.36-0.95,2.28-1.26c0.92-0.31,1.86-0.46,2.83-0.46
						c0.98,0,1.83,0.16,2.54,0.48c0.72,0.32,1.27,0.78,1.66,1.37c0.39,0.59,0.59,1.29,0.59,2.08c0,0.89-0.23,1.65-0.69,2.27
						c-0.46,0.62-1.11,1.06-1.95,1.31l-0.02-0.21c0.98,0.22,1.73,0.65,2.25,1.29c0.52,0.64,0.79,1.45,0.79,2.44
						c0,1.3-0.48,2.32-1.43,3.07C405.21,811.55,403.92,811.92,402.3,811.92z"/>
					<path class="st14" d="M415.77,811.92c-1.1,0-2.07-0.16-2.91-0.49c-0.84-0.33-1.49-0.81-1.96-1.43c-0.47-0.63-0.7-1.37-0.7-2.24
						c0-1.05,0.34-1.9,1.03-2.57c0.68-0.66,1.62-1.07,2.81-1.22l-0.08,0.31c-1.05-0.21-1.88-0.63-2.49-1.27
						c-0.62-0.64-0.92-1.41-0.92-2.31c0-0.82,0.23-1.54,0.68-2.14c0.45-0.6,1.07-1.06,1.86-1.38c0.79-0.32,1.69-0.48,2.69-0.48
						c1.01,0,1.9,0.16,2.69,0.48c0.79,0.32,1.41,0.78,1.86,1.38c0.45,0.6,0.68,1.31,0.68,2.14c0,0.92-0.31,1.7-0.92,2.35
						c-0.61,0.64-1.44,1.05-2.47,1.24l-0.08-0.31c1.19,0.17,2.12,0.59,2.8,1.26c0.68,0.67,1.02,1.51,1.02,2.53
						c0,0.87-0.23,1.61-0.7,2.24c-0.47,0.63-1.12,1.11-1.96,1.43C417.84,811.76,416.87,811.92,415.77,811.92z M415.77,809.83
						c0.94,0,1.68-0.19,2.22-0.58c0.54-0.38,0.82-0.95,0.82-1.69c0-0.71-0.28-1.27-0.85-1.69c-0.57-0.41-1.29-0.67-2.19-0.79
						c-0.89,0.11-1.62,0.37-2.19,0.79c-0.57,0.41-0.85,0.97-0.85,1.69c0,0.74,0.27,1.3,0.82,1.69
						C414.09,809.64,414.83,809.83,415.77,809.83z M415.77,803.38c0.77-0.13,1.4-0.39,1.91-0.79s0.75-0.94,0.75-1.62
						c0-0.71-0.24-1.25-0.72-1.62c-0.48-0.37-1.13-0.55-1.94-0.55c-0.81,0-1.46,0.19-1.94,0.55c-0.48,0.37-0.72,0.91-0.72,1.62
						c0,0.68,0.25,1.22,0.75,1.62C414.36,802.99,415,803.25,415.77,803.38z"/>
					<path class="st14" d="M429.96,811.78V800.2h0.63l-5.15,7.39l0.02-0.86h9.28v2.11h-11.24v-1.99l6.97-9.99h2.16v14.91H429.96z"/>
					<path class="st14" d="M438.21,811.78v-2.18h9.21v2.18H438.21z M441.46,810.54v-11.68l1.36,0.29l-4.38,2.64v-2.41l4.15-2.51
						h1.57v13.67H441.46z"/>
				</g>
			</g>
			<g>
				<path d="M311.75,892.91c-2.11,0-4.07-0.27-5.87-0.81c-1.8-0.54-3.35-1.3-4.63-2.28l1.97-4.32c1.26,0.93,2.57,1.62,3.94,2.07
					c1.36,0.45,2.83,0.68,4.4,0.68c1.6,0,2.81-0.29,3.65-0.87c0.84-0.58,1.26-1.42,1.26-2.53c0-0.72-0.27-1.29-0.81-1.72
					c-0.54-0.42-1.26-0.77-2.14-1.04c-0.89-0.27-1.85-0.53-2.9-0.79c-1.04-0.26-2.1-0.56-3.17-0.91c-1.07-0.35-2.05-0.81-2.93-1.39
					c-0.89-0.58-1.6-1.33-2.12-2.26c-0.53-0.93-0.79-2.11-0.79-3.55c0-1.62,0.46-3.07,1.39-4.34c0.93-1.27,2.19-2.28,3.78-3.01
					c1.6-0.73,3.41-1.1,5.45-1.1c1.21,0,2.42,0.13,3.63,0.39c1.21,0.26,2.34,0.62,3.38,1.08c1.04,0.46,1.92,1,2.65,1.62l-1.97,4.32
					c-2.5-1.83-5.05-2.74-7.65-2.74c-1.42,0-2.55,0.3-3.4,0.89c-0.85,0.59-1.27,1.43-1.27,2.51c0,0.8,0.27,1.42,0.81,1.87
					c0.54,0.45,1.26,0.82,2.14,1.12c0.89,0.3,1.86,0.57,2.92,0.81c1.06,0.24,2.11,0.53,3.17,0.87c1.06,0.33,2.03,0.79,2.92,1.37
					c0.89,0.58,1.6,1.33,2.14,2.24c0.54,0.91,0.81,2.08,0.81,3.49c0,1.65-0.45,3.1-1.35,4.34c-0.9,1.25-2.16,2.23-3.76,2.93
					C315.76,892.55,313.89,892.91,311.75,892.91z M309.78,897.04v-5.17l0.42-2.7v-21.35l-0.42-2.32v-4.9h4.71v4.9l-0.35,2.32v21.35
					l0.35,2.7v5.17H309.78z"/>
				<path d="M338.16,892.56v-4.83h17.96v4.83H338.16z M344.11,889.78v-19.96l2.86,0.27l-8.42,4.98v-5.29l8.07-4.71h3.51v24.71
					H344.11z"/>
				<path d="M359.87,892.56v-4.44l9.15-9.73c0.95-1.06,1.67-2.04,2.14-2.95c0.48-0.91,0.71-1.82,0.71-2.72
					c0-1.08-0.32-1.89-0.97-2.43c-0.64-0.54-1.57-0.81-2.78-0.81c-1.16,0-2.35,0.23-3.57,0.68c-1.22,0.45-2.45,1.11-3.69,1.99
					l-1.93-4.32c1.11-0.95,2.52-1.71,4.25-2.26c1.72-0.55,3.48-0.83,5.25-0.83c1.88,0,3.53,0.31,4.94,0.93
					c1.41,0.62,2.5,1.5,3.26,2.65c0.76,1.15,1.14,2.49,1.14,4.04c0,1.62-0.33,3.1-0.99,4.44c-0.66,1.34-1.76,2.83-3.3,4.48
					l-7.88,8.26l-0.77-1.78h13.9v4.83H359.87z"/>
				<path d="M392.15,892.91c-3.32,0-5.86-1.2-7.63-3.61c-1.76-2.41-2.65-5.91-2.65-10.52c0-4.53,0.88-7.99,2.65-10.39
					c1.76-2.39,4.3-3.59,7.63-3.59c3.32,0,5.86,1.2,7.63,3.59c1.76,2.39,2.64,5.86,2.64,10.39c0,4.58-0.88,8.08-2.64,10.5
					C398.01,891.7,395.47,892.91,392.15,892.91z M392.15,888.27c1.52,0,2.63-0.75,3.32-2.24c0.7-1.49,1.04-3.91,1.04-7.26
					c0-3.27-0.35-5.65-1.04-7.14c-0.69-1.49-1.8-2.24-3.32-2.24c-1.52,0-2.63,0.75-3.32,2.24c-0.69,1.49-1.04,3.87-1.04,7.14
					c0,3.35,0.35,5.77,1.04,7.26C389.52,887.53,390.63,888.27,392.15,888.27z"/>
				<path d="M415.32,892.91c-3.32,0-5.86-1.2-7.63-3.61c-1.76-2.41-2.65-5.91-2.65-10.52c0-4.53,0.88-7.99,2.65-10.39
					c1.76-2.39,4.3-3.59,7.63-3.59c3.32,0,5.86,1.2,7.63,3.59c1.76,2.39,2.64,5.86,2.64,10.39c0,4.58-0.88,8.08-2.64,10.5
					C421.18,891.7,418.64,892.91,415.32,892.91z M415.32,888.27c1.52,0,2.63-0.75,3.32-2.24c0.7-1.49,1.04-3.91,1.04-7.26
					c0-3.27-0.35-5.65-1.04-7.14c-0.69-1.49-1.8-2.24-3.32-2.24c-1.52,0-2.63,0.75-3.32,2.24c-0.69,1.49-1.04,3.87-1.04,7.14
					c0,3.35,0.35,5.77,1.04,7.26C412.69,887.53,413.8,888.27,415.32,888.27z"/>
				<path d="M431.57,898.12l-2.24-1.78c0.9-0.9,1.55-1.76,1.93-2.57c0.39-0.81,0.58-1.68,0.58-2.61l1.39,1.39h-4.44v-6.22h6.33v4.02
					c0,1.44-0.26,2.78-0.79,4.02C433.81,895.61,432.89,896.86,431.57,898.12z"/>
				<path d="M448.64,892.91c-3.32,0-5.86-1.2-7.63-3.61c-1.76-2.41-2.65-5.91-2.65-10.52c0-4.53,0.88-7.99,2.65-10.39
					c1.76-2.39,4.3-3.59,7.63-3.59c3.32,0,5.86,1.2,7.63,3.59c1.76,2.39,2.64,5.86,2.64,10.39c0,4.58-0.88,8.08-2.64,10.5
					C454.5,891.7,451.96,892.91,448.64,892.91z M448.64,888.27c1.52,0,2.63-0.75,3.32-2.24c0.7-1.49,1.04-3.91,1.04-7.26
					c0-3.27-0.35-5.65-1.04-7.14c-0.69-1.49-1.8-2.24-3.32-2.24c-1.52,0-2.63,0.75-3.32,2.24c-0.69,1.49-1.04,3.87-1.04,7.14
					c0,3.35,0.35,5.77,1.04,7.26C446.02,887.53,447.12,888.27,448.64,888.27z"/>
				<path d="M471.81,892.91c-3.32,0-5.86-1.2-7.63-3.61c-1.76-2.41-2.65-5.91-2.65-10.52c0-4.53,0.88-7.99,2.65-10.39
					c1.76-2.39,4.3-3.59,7.63-3.59c3.32,0,5.86,1.2,7.63,3.59c1.76,2.39,2.64,5.86,2.64,10.39c0,4.58-0.88,8.08-2.64,10.5
					C477.67,891.7,475.13,892.91,471.81,892.91z M471.81,888.27c1.52,0,2.63-0.75,3.32-2.24c0.7-1.49,1.04-3.91,1.04-7.26
					c0-3.27-0.35-5.65-1.04-7.14c-0.69-1.49-1.8-2.24-3.32-2.24c-1.52,0-2.63,0.75-3.32,2.24c-0.69,1.49-1.04,3.87-1.04,7.14
					c0,3.35,0.35,5.77,1.04,7.26C469.18,887.53,470.29,888.27,471.81,888.27z"/>
			</g>
			<path class="st14" d="M416.04,922.08H304.63c-1.29,0-2.33-1.04-2.33-2.33v-2.17c0-1.29,1.04-2.33,2.33-2.33h111.41
				c1.29,0,2.33,1.04,2.33,2.33v2.17C418.37,921.04,417.32,922.08,416.04,922.08z"/>
			<path class="st15" d="M341.72,939.68h-37.09c-1.29,0-2.33-1.04-2.33-2.33v-2.17c0-1.29,1.04-2.33,2.33-2.33h37.09
				c1.29,0,2.33,1.04,2.33,2.33v2.17C344.05,938.63,343,939.68,341.72,939.68z"/>
		</g>
	</g>
	<g>
		<path class="st16" d="M1396.5,735.42c0,0-0.26,0.06-0.66,0.26C1395.64,734.36,1396.5,735.42,1396.5,735.42z"/>
		<path class="st16" d="M1906.86,1115.93c-30.22-10.44-143.28-19.61-227.62-17.75c0,0-0.02,0-0.06,0
			c-25.25,0.55-47.92,2.1-65.02,4.9c-74.24,12.14-191.32,22.84-209.17,60.68c-17.85,37.83-6.43,108.51,23.56,227.73
			c29.98,119.23,10.71,178.47,10.71,178.47s-67.82-1.42-187.76-2.38c-1.7-16.51,5.11-41.66,15.28-71.48
			c18.26-53.54,47.28-122.13,57.07-182.67c15.23-94.24-2.38-113.28-29.5-132.31c-27.13-19.03-121.37-76.62-176.81-95.89
			c-55.45-19.28-133.98,6.42-171.82,18.56c-37.83,12.14-75.91,27.13-78.05,20.47c11.66-11.9,178.47-59.01,178.47-59.01
			s-19.75-10-42.6-29.99c-22.85-19.99-112.55-108.69-120.41-118.5c-7.85-9.81-1.18-9.28-1.18-9.28s101.84,103.04,160.38,132.54
			c46.29,23.33,94.47,24.75,144.68,46.65c50.21,21.89,126.6,62.82,136.83,56.15c10.24-6.66,0.71-39.26-17.61-88.52
			c-18.32-49.25-45.69-85.66-61.63-93.99c-15.94-8.33-62.82-7.14-98.04-12.14c-35.22-5-78.29-18.32-78.29-18.32
			s-1.43-5.37,8.71-4.32c10.3,1.07,37.71,8.08,55.21,10.47c34.74,4.76,85.66,13.57,81.38-19.75
			c-4.28-33.32-53.45-107.3-71.06-135.85c-17.61-28.55-26.64-102.32-27.6-135.64c-0.95-33.32,4.29-30.46,4.29-30.46
			s15.23,87.22,28.08,125.41c12.85,38.19,89.95,160.26,117.07,199.17c27.13,38.9,39.63,21.77,36.05-33.2
			c-3.57-54.97-14.28-122.79-14.28-122.79l9.99,3.21c0,0,26.77,109.23,31.42,152.06c4.64,42.83-10,79.24,19.99,91.74
			c29.98,12.49,78.89-68.53,88.16-111.72c9.28-43.19-31.77-136.71-39.88-158.84c-6.72-18.31-1.85-22.69,0.03-23.65
			c0.37,2.51,4.54,13.61,25.57,56.85c32.12,66.03,37.13,83.88,69.25,42.12c32.12-41.76,35.7-127.08,28.91-191.68
			c-6.78-64.6-70.31-150.98-70.31-150.98s51.04,42.83,76.74,102.44c25.7,59.6,5.35,130.64,26.42,128.5
			c21.06-2.14,73.17-53.9,87.45-113.87c14.27-59.96,15.23-146.58,15.23-146.58s4.28,15.71,5.71,82.82
			c1.43,67.11-13.09,107.56-27.6,140.4c-14.52,32.84,11.9,26.17,58.06-3.09c46.17-29.28,89.47-60.69,89.47-60.69
			s-48.07,49.98-101.84,84.24c-53.78,34.27-72.82,12.37-106.61,27.12c-33.79,14.76-65.2,92.81-71.39,139.93
			c-6.19,47.11-34.26,96.14-63.3,163.24c-29.03,67.11,25.7,57.11,70.91,23.31c45.22-33.79,101.37-105.18,101.37-105.18
			s3.76,19.38-35.74,58.88c-39.5,39.5-18.98,62.49,41.46,62.49c60.44,0,113.87,4.64,154.2,9.99
			C1810.12,1091.29,1865.46,1098.08,1906.86,1115.93z"/>
		<path class="st17" d="M1405,1163.76c-17.85,37.83-6.43,108.51,23.56,227.73c29.98,119.23,10.71,178.47,10.71,178.47
			s-67.82-1.42-187.76-2.38c-1.7-16.51,5.11-41.66,15.28-71.48c23.92,1.32,72.81-1.66,100.72-42.95
			c37.93-56.13,20.61-159.6,7.29-237.21c-13.32-77.6,33.67-97.87,111.71-109.07c77.03-11.07,189.81-8.76,192.7-8.7
			c-25.25,0.55-47.92,2.1-65.02,4.9C1539.92,1115.21,1422.84,1125.92,1405,1163.76z"/>
		<g>
			<g>
				<path class="st2" d="M1533.32,1568.69l-10.59,46.92l-11.09,49.15l-45.3,200.83c-2.06,9.14-10.17,15.63-19.55,15.63h-199.56
					c-9.36,0-17.49-6.5-19.55-15.63l-11.95-52.99l-33.36-147.84l-11.08-49.15l-10.59-46.92c-2.83-12.53,6.69-24.45,19.55-24.45
					h333.52C1526.62,1544.24,1536.14,1556.16,1533.32,1568.69z"/>
			</g>
		</g>
		<g>
			
				<ellipse transform="matrix(0.7071 -0.7071 0.7071 0.7071 -205.3188 1638.979)" class="st8" cx="1875.76" cy="1067.33" rx="145.19" ry="145.19"/>
			<g>
				<g>
					<g>
						<path class="st18" d="M1883.77,1131.44l-3.19-14.15c-9.25,1.78-19.03,1.22-25.07-1.1l0.85-14.6c6.44,2.07,15.3,3.3,24.2,1.29
							c9.19-2.07,14.44-8,12.86-15c-1.48-6.56-7.54-9.64-19.21-11.15c-16.56-2.09-28.06-6.86-31.11-20.42
							c-2.83-12.54,3.76-24.14,17.9-30.08l-3.22-14.29l11.96-2.69l3.06,13.56c9.25-1.78,16.02-1,21.21,0.28l-0.92,14.3
							c-3.86-0.82-11.03-2.72-20.95-0.49c-10.21,2.3-12.67,8.37-11.56,13.33c1.35,5.98,7.35,8.15,20.87,10.32
							c17.71,2.45,26.78,8.68,29.7,21.66c2.79,12.4-3.35,25.27-18.8,31.51l3.38,15.02L1883.77,1131.44z"/>
					</g>
				</g>
				<g>
					<path class="st18" d="M1858.09,1179.81c-61.88-9.73-104.32-67.98-94.59-129.87c9.72-61.88,67.98-104.32,129.87-94.59
						c61.88,9.72,104.32,67.98,94.59,129.87C1978.23,1147.1,1919.97,1189.53,1858.09,1179.81z M1890.77,971.83
						c-52.8-8.3-102.5,27.91-110.8,80.7c-8.3,52.8,27.91,102.5,80.7,110.8c52.8,8.3,102.5-27.91,110.8-80.7
						C1979.77,1029.83,1943.57,980.13,1890.77,971.83z"/>
				</g>
			</g>
		</g>
		<g>
			<circle class="st8" cx="1092.22" cy="654.85" r="115.22"/>
			<g>
				<g>
					<g>
						<path class="st18" d="M1112.28,702.04l-5.51-10.1c-6.68,3.37-14.26,5.07-19.37,4.62l-2.53-11.32
							c5.37,0.18,12.39-0.81,18.75-4.28c6.56-3.58,9.28-9.25,6.55-14.25c-2.56-4.69-7.85-5.72-17.09-4.33
							c-13.09,2.01-22.9,0.87-28.19-8.82c-4.88-8.96-2.38-19.24,7.11-26.85l-5.57-10.21l8.54-4.66l5.28,9.69
							c6.68-3.37,12.01-4.25,16.25-4.4l2.41,11.12c-3.13,0.22-9.01,0.32-16.1,4.18c-7.29,3.98-7.85,9.14-5.92,12.69
							c2.33,4.27,7.38,4.62,18.17,3.34c14.05-1.99,22.33,0.8,27.38,10.07c4.83,8.85,2.94,20.02-7.49,28.14l5.85,10.73
							L1112.28,702.04z"/>
					</g>
				</g>
				<g>
					<path class="st18" d="M1103.19,744.54c-49.34,6.04-94.4-29.19-100.44-78.54c-6.04-49.34,29.19-94.4,78.54-100.44
						c49.34-6.04,94.4,29.19,100.44,78.54C1187.77,693.44,1152.54,738.5,1103.19,744.54z M1082.9,578.7
						c-42.1,5.15-72.16,43.59-67,85.69c5.15,42.1,43.59,72.16,85.69,67c42.1-5.15,72.16-43.59,67-85.69
						C1163.44,603.61,1125,573.55,1082.9,578.7z"/>
				</g>
			</g>
		</g>
		<g>
			
				<ellipse transform="matrix(0.7071 -0.7071 0.7071 0.7071 77.5433 1163.3285)" class="st8" cx="1443.03" cy="488.06" rx="116.75" ry="116.75"/>
			<g>
				<g>
					<g>
						<path class="st18" d="M1449.47,539.61l-2.56-11.37c-7.44,1.43-15.3,0.98-20.16-0.88l0.68-11.74
							c5.18,1.67,12.3,2.65,19.46,1.04c7.39-1.66,11.61-6.44,10.34-12.06c-1.19-5.28-6.06-7.75-15.45-8.96
							c-13.32-1.68-22.56-5.51-25.02-16.42c-2.27-10.08,3.02-19.41,14.39-24.19l-2.59-11.49l9.62-2.17l2.46,10.91
							c7.44-1.43,12.88-0.81,17.05,0.22l-0.74,11.5c-3.11-0.66-8.87-2.19-16.85-0.39c-8.21,1.85-10.19,6.73-9.29,10.72
							c1.08,4.81,5.91,6.55,16.78,8.3c14.24,1.97,21.53,6.98,23.88,17.41c2.25,9.97-2.69,20.32-15.12,25.34l2.72,12.08
							L1449.47,539.61z"/>
					</g>
				</g>
				<g>
					<path class="st18" d="M1428.82,578.5c-49.76-7.82-83.88-54.66-76.06-104.42c7.82-49.76,54.66-83.88,104.42-76.06
						c49.76,7.82,83.88,54.66,76.06,104.42S1478.58,586.32,1428.82,578.5z M1455.1,411.27c-42.45-6.67-82.42,22.44-89.09,64.89
						c-6.67,42.45,22.44,82.42,64.89,89.09c42.45,6.67,82.42-22.44,89.09-64.89C1526.66,457.91,1497.55,417.94,1455.1,411.27z"/>
				</g>
			</g>
		</g>
		<g>
			
				<ellipse transform="matrix(0.7071 -0.7071 0.7071 0.7071 -556.4273 949.2542)" class="st8" cx="867.64" cy="1146.29" rx="116.75" ry="116.75"/>
			<g>
				<g>
					<g>
						<path class="st18" d="M874.08,1197.84l-2.56-11.37c-7.44,1.43-15.3,0.98-20.16-0.88l0.68-11.74
							c5.18,1.67,12.3,2.65,19.46,1.04c7.39-1.66,11.61-6.44,10.34-12.06c-1.19-5.28-6.06-7.75-15.45-8.96
							c-13.32-1.68-22.56-5.51-25.02-16.42c-2.27-10.08,3.02-19.41,14.39-24.19l-2.59-11.49l9.62-2.17l2.46,10.91
							c7.44-1.43,12.88-0.81,17.05,0.22l-0.74,11.5c-3.11-0.66-8.87-2.19-16.85-0.39c-8.21,1.85-10.19,6.73-9.29,10.72
							c1.08,4.81,5.91,6.55,16.78,8.3c14.24,1.97,21.53,6.98,23.88,17.42c2.25,9.97-2.69,20.32-15.12,25.34l2.72,12.08
							L874.08,1197.84z"/>
					</g>
				</g>
				<g>
					<path class="st18" d="M853.42,1236.73c-49.76-7.82-83.88-54.66-76.06-104.42c7.82-49.76,54.66-83.88,104.42-76.06
						c49.76,7.82,83.88,54.66,76.06,104.42C950.03,1210.43,903.18,1244.55,853.42,1236.73z M879.71,1069.5
						c-42.45-6.67-82.42,22.44-89.09,64.89c-6.67,42.45,22.44,82.42,64.89,89.09c42.45,6.67,82.42-22.44,89.09-64.89
						C951.27,1116.14,922.16,1076.18,879.71,1069.5z"/>
				</g>
			</g>
		</g>
		<g>
			
				<ellipse transform="matrix(0.7071 -0.7071 0.7071 0.7071 65.2099 1432.7672)" class="st8" cx="1762.11" cy="637.67" rx="67.4" ry="67.4"/>
			<g>
				<g>
					<g>
						<path class="st18" d="M1765.83,667.43l-1.48-6.57c-4.3,0.83-8.84,0.57-11.64-0.51l0.39-6.78c2.99,0.96,7.1,1.53,11.23,0.6
							c4.27-0.96,6.7-3.72,5.97-6.96c-0.69-3.05-3.5-4.48-8.92-5.18c-7.69-0.97-13.02-3.18-14.44-9.48
							c-1.31-5.82,1.74-11.21,8.31-13.96l-1.49-6.63l5.55-1.25l1.42,6.3c4.3-0.83,7.44-0.47,9.85,0.13l-0.42,6.64
							c-1.79-0.38-5.12-1.26-9.73-0.23c-4.74,1.07-5.88,3.89-5.36,6.19c0.63,2.78,3.41,3.78,9.69,4.79
							c8.22,1.14,12.43,4.03,13.79,10.05c1.3,5.75-1.55,11.73-8.73,14.63l1.57,6.97L1765.83,667.43z"/>
					</g>
				</g>
				<g>
					<path class="st18" d="M1753.9,689.88c-28.73-4.51-48.43-31.56-43.91-60.29c4.51-28.73,31.56-48.43,60.29-43.91
						c28.73,4.51,48.43,31.56,43.91,60.29C1809.67,674.7,1782.63,694.4,1753.9,689.88z M1769.07,593.33
						c-24.51-3.85-47.58,12.95-51.43,37.46s12.95,47.58,37.46,51.43c24.51,3.85,47.58-12.95,51.43-37.46
						C1810.39,620.26,1793.58,597.19,1769.07,593.33z"/>
				</g>
			</g>
		</g>
		<g>
			
				<ellipse transform="matrix(0.7071 -0.7071 0.7071 0.7071 -105.0483 1206.6671)" class="st8" cx="1404.05" cy="730.14" rx="64.23" ry="64.23"/>
			<g>
				<g>
					<g>
						<path class="st18" d="M1407.6,758.5l-1.41-6.26c-4.09,0.79-8.42,0.54-11.09-0.48l0.38-6.46c2.85,0.92,6.77,1.46,10.7,0.57
							c4.06-0.92,6.39-3.54,5.69-6.64c-0.65-2.9-3.33-4.27-8.5-4.93c-7.33-0.93-12.41-3.03-13.76-9.03
							c-1.25-5.55,1.66-10.68,7.92-13.31l-1.42-6.32l5.29-1.19l1.35,6c4.09-0.79,7.09-0.44,9.38,0.12l-0.4,6.33
							c-1.71-0.36-4.88-1.21-9.27-0.22c-4.52,1.02-5.61,3.7-5.11,5.9c0.6,2.64,3.25,3.61,9.23,4.56c7.84,1.08,11.85,3.84,13.14,9.58
							c1.24,5.48-1.48,11.18-8.32,13.94l1.5,6.64L1407.6,758.5z"/>
					</g>
				</g>
				<g>
					<path class="st18" d="M1396.23,779.89c-27.37-4.3-46.15-30.07-41.84-57.45c4.3-27.37,30.07-46.14,57.45-41.84
						c27.37,4.3,46.14,30.07,41.84,57.45C1449.38,765.42,1423.61,784.19,1396.23,779.89z M1410.69,687.89
						c-23.35-3.67-45.34,12.34-49.01,35.7c-3.67,23.35,12.34,45.34,35.7,49.01c23.35,3.67,45.34-12.34,49.01-35.7
						C1450.06,713.55,1434.05,691.56,1410.69,687.89z"/>
				</g>
			</g>
		</g>
		<g>
			
				<ellipse transform="matrix(0.0333 -0.9994 0.9994 0.0333 445.0931 2073.6794)" class="st8" cx="1294.53" cy="806.75" rx="46.41" ry="46.41"/>
			<g>
				<g>
					<g>
						<path class="st18" d="M1283.94,824.48l1.98-4.19c-2.68-1.37-5.04-3.44-6.1-5.21l3.08-3.51c1.22,1.79,3.21,3.84,5.84,5.08
							c2.72,1.29,5.21,0.82,6.19-1.25c0.92-1.94,0-3.91-2.65-6.59c-3.76-3.78-5.72-7.25-3.82-11.26c1.76-3.72,5.69-5.34,10.42-4.06
							l2-4.23l3.54,1.67l-1.9,4.02c2.68,1.37,4.23,2.9,5.29,4.24l-3.04,3.42c-0.81-0.97-2.24-2.86-5.18-4.24
							c-3.02-1.43-4.84-0.38-5.53,1.09c-0.84,1.77,0.25,3.5,3.23,6.7c3.98,4.1,5.04,7.45,3.22,11.3c-1.73,3.67-5.81,5.71-10.93,4.24
							l-2.1,4.45L1283.94,824.48z"/>
					</g>
				</g>
				<g>
					<path class="st18" d="M1267.96,831.61c-13.68-14.62-12.91-37.64,1.71-51.32c14.62-13.68,37.64-12.91,51.32,1.71
						c13.68,14.62,12.91,37.64-1.71,51.32C1304.66,847,1281.63,846.23,1267.96,831.61z M1317.09,785.64
						c-11.67-12.47-31.31-13.13-43.79-1.46c-12.47,11.67-13.13,31.31-1.46,43.79c11.67,12.47,31.31,13.13,43.79,1.46
						C1328.11,817.76,1328.76,798.12,1317.09,785.64z"/>
				</g>
			</g>
		</g>
		<g>
			
				<ellipse transform="matrix(0.9993 -0.0378 0.0378 0.9993 -34.7178 61.5176)" class="st8" cx="1611.18" cy="949.84" rx="76.08" ry="76.08"/>
			<g>
				<g>
					<g>
						<path class="st18" d="M1596.24,980.21l2.68-7.11c-4.56-1.89-8.69-4.94-10.66-7.7l4.57-6.15c2.22,2.76,5.75,5.85,10.22,7.53
							c4.62,1.74,8.63,0.65,9.95-2.87c1.24-3.3-0.52-6.39-5.2-10.41c-6.65-5.68-10.31-11.08-7.74-17.9
							c2.37-6.31,8.59-9.49,16.49-8.02l2.7-7.18l6.01,2.26l-2.57,6.82c4.56,1.89,7.3,4.17,9.21,6.23l-4.52,6
							c-1.46-1.47-4.05-4.37-9.03-6.25c-5.13-1.93-7.96,0.02-8.9,2.51c-1.13,3.01,0.87,5.69,6.17,10.52
							c7.05,6.17,9.23,11.51,6.77,18.03c-2.35,6.23-8.74,10.1-17.3,8.39l-2.84,7.55L1596.24,980.21z"/>
					</g>
				</g>
				<g>
					<path class="st18" d="M1571.07,994c-24.3-22.07-26.11-59.8-4.04-84.09c22.07-24.3,59.8-26.11,84.09-4.04
						c24.3,22.07,26.11,59.8,4.04,84.09C1633.09,1014.26,1595.36,1016.07,1571.07,994z M1645.24,912.34
						c-20.73-18.83-52.91-17.28-71.74,3.45c-18.83,20.73-17.28,52.91,3.44,71.74c20.73,18.83,52.91,17.28,71.74-3.45
						C1667.52,963.35,1665.97,931.17,1645.24,912.34z"/>
				</g>
			</g>
		</g>
		<g>
			<circle class="st8" cx="1680.07" cy="481.7" r="82.67"/>
			<g>
				<g>
					<g>
						<path class="st18" d="M1663.83,514.7l2.91-7.73c-4.96-2.05-9.44-5.37-11.59-8.36l4.97-6.68c2.42,3,6.25,6.35,11.11,8.18
							c5.02,1.89,9.37,0.71,10.81-3.11c1.35-3.58-0.57-6.94-5.65-11.31c-7.23-6.18-11.2-12.04-8.41-19.45
							c2.58-6.85,9.34-10.31,17.92-8.72l2.94-7.81l6.53,2.46l-2.79,7.41c4.96,2.05,7.93,4.53,10,6.77l-4.91,6.52
							c-1.58-1.6-4.4-4.75-9.82-6.79c-5.58-2.1-8.65,0.02-9.67,2.73c-1.23,3.27,0.95,6.18,6.7,11.43c7.66,6.7,10.03,12.5,7.36,19.6
							c-2.55,6.77-9.5,10.98-18.8,9.11l-3.09,8.21L1663.83,514.7z"/>
					</g>
				</g>
				<g>
					<path class="st18" d="M1636.48,529.68c-26.4-23.98-28.37-64.97-4.39-91.37c23.98-26.4,64.97-28.37,91.37-4.39
						c26.4,23.98,28.37,64.97,4.39,91.37C1703.87,551.7,1662.88,553.67,1636.48,529.68z M1717.08,440.95
						c-22.52-20.46-57.5-18.78-77.96,3.74c-20.46,22.52-18.78,57.5,3.74,77.96c22.52,20.46,57.49,18.78,77.96-3.74
						C1741.28,496.39,1739.61,461.41,1717.08,440.95z"/>
				</g>
			</g>
		</g>
		<polygon class="st1" points="1522.74,1615.61 1511.64,1664.76 1182.38,1664.76 1171.3,1615.61 		"/>
		<path class="st19" d="M1533.32,1568.69l-10.59,46.92l-11.09,49.15l-45.3,200.83c-2.06,9.14-10.17,15.63-19.55,15.63h-199.56
			c-9.36,0-17.49-6.5-19.55-15.63l-11.95-52.99c37.64,0.35,83.91,0.98,115.54-0.39c68.12-2.95,90.11-56.26,125.46-164.91
			c20.84-64.04,11.64-92.48,3.8-103.07h53.24C1526.62,1544.24,1536.14,1556.16,1533.32,1568.69z"/>
	</g>
	<g>
		<g>
			<path class="st20" d="M1785.85,1331.74c0,0-23.35,18.54-10.53,23.63c12.83,5.1,33.47-14.41,33.47-14.41l-6.58-14.23
				L1785.85,1331.74z"/>
			<path class="st20" d="M1800.93,1325.12c0,0-11.67-0.88-18.4,1.62c-2.47,0.91-2.73,3.22-1.02,4.53c2.85,2.18,8.79,4.28,8.79,4.28
				l11.19-5.29L1800.93,1325.12z"/>
			<path class="st14" d="M2271.38,1856.49l-9.6-6.94c0.25,0.43,8.13,14.62-9.17,36.66c-3.87,4.92-37.11,9.15-37.7,1.25
				c-0.03-0.42,0.09-0.84,0.35-1.26l0.01-0.02c2.26-3.78,14.7-8.34,22.07-17.54c7.09-8.85,8.14-23.23,7.21-30.83
				c1.82-5.87,6.7-8.88,11.1-10.4c4.3-1.51,8.12-1.61,8.12-1.61s12.15,8.28,14.29,19.49
				C2271.38,1856.49,2271.38,1856.49,2271.38,1856.49z"/>
			<path class="st21" d="M2271.38,1856.49l-9.6-6.94c0.25,0.43,8.13,14.62-9.17,36.66c-3.87,4.92-37.11,9.15-37.7,1.25
				c-0.03-0.42,0.09-0.84,0.35-1.26l0.01-0.02l1.47-1.61c0,0,26.06,5.59,35.46-12.17c9.39-17.75,2.6-36.38,2.6-36.38l0.85-8.62
				c4.3-1.51,8.12-1.61,8.12-1.61s12.15,8.28,14.29,19.49C2271.38,1856.49,2271.38,1856.49,2271.38,1856.49z"/>
			<path class="st14" d="M2060.57,1895.65c-15.99,1.56-15.99,1.56-15.99,1.56l-1.25-13.41l-7.85,13.15c0,0-58.55,6.48-48.66-5.12
				c1.14-1.33,3.17-2.9,6.3-4.75c30.4-17.93,42.49-23.39,42.49-23.39h19.87C2055.49,1863.69,2065.24,1885.52,2060.57,1895.65z"/>
			<path class="st21" d="M2060.57,1895.65c-15.99,1.56-15.99,1.56-15.99,1.56l-1.25-13.41l-7.85,13.15c0,0-58.55,6.48-48.66-5.12
				c0,0,8.64,5.26,32.03-1.76c23.38-7.01,23.13-22.86,23.13-22.86l3.32-3.51h10.19C2055.49,1863.69,2065.24,1885.52,2060.57,1895.65
				z"/>
			<path class="st22" d="M2058.61,1863.3c-2.29,9.88-27.28,6.63-27.28,6.63s-87.92-180.29-66.87-301.89
				c14.67-84.71,35.68-156.26,47.08-191.88c4.97-15.52,8.1-24.22,8.1-24.22l58.46-32.74l9.36,160.58c0,0-35.08,91.2-48.34,135.63
				c-0.84,2.79-1.47,6.06-1.95,9.73C2030.13,1679.85,2060.77,1825.31,2058.61,1863.3z"/>
			<path class="st23" d="M2087.46,1479.78c0,0-35.08,91.2-48.34,135.63c-0.84,2.79-1.47,6.06-1.95,9.73c0,0,1.31-131.08,4.81-184.86
				c2.66-40.91-19.63-58.2-30.45-64.12c4.97-15.52,8.1-24.22,8.1-24.22l58.46-32.74L2087.46,1479.78z"/>
			<path class="st22" d="M2265.45,1824.85c0.52,12.47-19.74,18.71-19.74,18.71s-34.3-29.76-78.73-95.24
				c-44.44-65.48-88.87-109.91-94.72-225.67c-3.87-76.71-10.99-139.05-15.33-172.38c-2.22-16.96-3.72-26.4-3.72-26.4l86.87-55.54
				c53.33,28.12,50.52,124.47,42.04,201.66c-5.08,46.37-12.22,85.82-10.47,99.43C2176.32,1605.67,2265.45,1824.85,2265.45,1824.85z"
				/>
			<path class="st23" d="M2182.12,1469.99c0,0-10.73-26.59-10.73-83.24c0-56.64-37.41-62.88-72.24-54.57
				c-34.81,8.32-37.91,16.52-37.91,16.52l-4.31,1.57c-2.22-16.96-3.72-26.4-3.72-26.4l86.87-55.54
				C2193.4,1296.45,2190.59,1392.8,2182.12,1469.99z"/>
			<path class="st14" d="M1986.9,1256.05c-14.65,24.64-49.28,44.09-84.15,58.29c-46.77,19.03-93.97,28.63-93.97,28.63
				c-11.7-3.9-12.09-18.06-12.09-18.06s17.67-15.59,79.51-47.81c31.58-16.45,51.18-37.85,62.81-54.85
				c11.14-16.3,14.95-28.56,14.95-28.56S1991.58,1192.91,1986.9,1256.05z"/>
			<path class="st21" d="M1986.9,1256.05c-14.65,24.64-49.28,44.09-84.15,58.29v-0.01c40.95-24.87,38.47-74.9,36.26-92.08
				c11.14-16.3,14.95-28.56,14.95-28.56S1991.58,1192.91,1986.9,1256.05z"/>
			<path class="st20" d="M1983.2,1068.19c0,0,3.7,19.1,17.73,33.91c-5.26,19.29-17.73,24.75-17.73,24.75l-17.93-5.65
				c0,0-1.36-16.18-8.18-23.68C1954.55,1083.97,1966.63,1070.52,1983.2,1068.19z"/>
			<path class="st20" d="M1994.31,1053.77c0,0-1.31,3-3.12,6.67c-1.61,3.26-3.62,7.05-5.46,9.7c-3.9,5.65-7.4,5.65-7.4,5.65
				s-12.09,33.13-36.64,30.4c-7.84-0.87-15.89-13.28-21.8-24.93c-5.39-10.65-8.99-20.67-8.99-20.67c0.92-5.42,2.59-9.99,4.74-13.84
				c10.1-18.2,30.54-20.45,30.54-20.45l23.38,3.31l8.7,8.49l13.37,13.05L1994.31,1053.77z"/>
			<path class="st24" d="M1991.62,1051.15l-0.44,9.29c-1.61,3.26-3.62,7.05-5.46,9.7c-3.9,5.65-7.4,5.65-7.4,5.65
				c10.78-3.31,9.22-19.42,5.07-22.02c-4.16-2.6-6.88,0.65-13.25,8.58c-11.56-20.14-23.14-21.11-29.23-6.04
				c-4.5,11.11-15.94,19.37-22.19,22.59c-5.39-10.65-7.82-18.31-7.82-18.31c0.92-5.42,2.59-9.99,4.74-13.84l28.66-17.53h12.46
				l21.51,8.89L1991.62,1051.15z"/>
			<path class="st25" d="M1999.1,1056c-0.01,0.01-0.01,0.02-0.01,0.02c-3.16,5.03-7.54,9.84-13.36,14.11c0,0,7.21-17.93-2.15-20.85
				c-9.35-2.92-13.44,13.06-13.44,13.06s-14.94-28.71-19.62-28.71c-4.68,0-36.91,57.16-97.7,32.99
				c-46.07-18.31-50.52-65.27-28.6-96.44c7-9.97,16.71-18.33,28.6-23.61c49.11-21.83,19.87,33.13,47.55,40.93
				c27.67,7.79,42.62-27.67,64.96-22.22c22.35,5.46,3.25,33.13,21.95,37.03C2002.63,1005.51,2013.51,1033.08,1999.1,1056z"/>
			<path class="st26" d="M1999.1,1056c-0.01,0.01-0.01,0.02-0.01,0.02c-3.16,5.03-7.54,9.84-13.36,14.11c0,0,7.21-17.93-2.15-20.85
				c-9.35-2.92-13.44,13.06-13.44,13.06s-14.94-28.71-19.62-28.71c-4.68,0-36.91,57.16-97.7,32.99
				c-46.07-18.31-50.52-65.27-28.6-96.44l0.02-0.01c0,0-23.39,63.19,36.9,70.46s72.37-34.09,92.83-35.23
				c20.46-1.15,17.34,28.47,17.34,28.47s6.2-9.94,17.93-7.59C2005.62,1029.56,1999.27,1055.28,1999.1,1056z"/>
			<path class="st14" d="M2123.58,1296.32c-13.48,4.57-25.15,13.51-35.82,23.84c-14.84,14.36-27.79,31.42-41.09,43.21
				c-22.86,20.26-37.93,8.31-40.02-18.71c-1.65-21.32-1.34-26.15-17.72-54.49c-4.38-7.6-9.97-16.9-17.11-28.66
				c-33.78-55.6-34.3-89.64-19.23-123.95c15.07-34.3,48.33-35.47,48.33-35.47c67.56-4.55,86.79,89.78,128.89,129.8
				C2171.9,1271.9,2155.8,1285.41,2123.58,1296.32z"/>
			<path class="st21" d="M2087.75,1320.16c-14.84,14.36-27.79,31.42-41.09,43.21c-22.86,20.26-37.93,8.31-40.02-18.71
				c-1.65-21.32-1.34-26.15-17.72-54.49c27.11-46.89,64.24-111.29,64.24-111.29s2.1,51.89-4.02,97.27
				c-6.13,45.38,8.63,63.33,38.31,43.04C2087.56,1319.51,2087.66,1319.84,2087.75,1320.16z"/>
		</g>
		<g>
			<g>
				<polygon class="st22" points="1695.06,1525.3 1632.08,1497.82 1547.11,1460.75 1550.37,1432.1 1667.27,1446.71 1689.63,1449.51 
									"/>
				<path class="st22" d="M1551.6,1447.54c-2.2,11.42-7.83,19.94-12.58,19.03c-4.75-0.91-6.81-10.92-4.61-22.34
					c2.2-11.42,7.83-19.94,12.58-19.03C1551.74,1426.11,1553.8,1436.11,1551.6,1447.54z"/>
				<path class="st27" d="M1695.06,1525.3l-62.99-27.48c27.17-12.21,33.66-38.34,35.2-51.11l22.35,2.8L1695.06,1525.3z"/>
			</g>
			<path class="st22" d="M1691.22,1400.76l88.59-26.32c11.98-3.56,24.57,3.29,28.1,15.28l38.2,129.93
				c3.69,12.56-4.04,25.62-16.83,28.43l-121.77,26.72c-13.74,3.02-26.87-7.13-27.41-21.19l-5.02-130.33
				C1674.69,1412.97,1681.33,1403.7,1691.22,1400.76z"/>
			<g>
				<path class="st22" d="M1806.69,1504.68l-5.3-12.96c0.26-0.11,27.85-11.75,40.23-37.17c17.89-36.73-13.75-88.77-28.18-109.44
					c-2.4-3.43-6.71-4.96-10.74-3.81l-35.52,10.14c-6.74,1.93-11.29,8.41-10.81,15.41l3.17,46.62l-13.97,0.95l-3.17-46.62
					c-0.92-13.54,7.88-26.08,20.93-29.82l35.52-10.14c9.77-2.8,20.25,0.92,26.07,9.26c15.85,22.7,50.43,80.18,29.29,123.58
					C1839.44,1491.01,1808.02,1504.14,1806.69,1504.68z"/>
			</g>
		</g>
		<g>
			<path class="st20" d="M1859.55,1386.33c0,0-7.28-4.44-18.41-2.25s-32.58,23.64-13.11,22.05c19.47-1.59,27.22,2.91,35.76-1.52
				c8.54-4.44,6.16-5.83,6.16-5.83L1859.55,1386.33z"/>
			<path class="st14" d="M2027.44,1122.75c38.52,10.87,34,101.51-14.55,177.73c-59.24,93.02-147.07,103.94-147.07,103.94
				s-11.82-10.39-11.04-21.31c0,0,66.27-35.08,99.2-111.47C1986.9,1195.25,1972.87,1107.36,2027.44,1122.75z"/>
		</g>
	</g>
	<g>
		<g>
			
				<ellipse transform="matrix(0.7071 -0.7071 0.7071 0.7071 -336.2964 893.317)" class="st8" cx="910.18" cy="852.6" rx="130.93" ry="130.93"/>
			<g>
				<g>
					<g>
						<path class="st18" d="M917.4,910.41l-2.87-12.76c-8.34,1.6-17.16,1.1-22.61-0.99l0.77-13.16c5.81,1.87,13.8,2.97,21.82,1.17
							c8.29-1.87,13.02-7.22,11.6-13.53c-1.33-5.92-6.79-8.7-17.33-10.05c-14.93-1.89-25.3-6.18-28.05-18.42
							c-2.55-11.31,3.39-21.77,16.14-27.13l-2.9-12.89l10.78-2.43l2.75,12.23c8.34-1.6,14.44-0.9,19.13,0.25l-0.83,12.9
							c-3.48-0.74-9.95-2.46-18.89-0.44c-9.21,2.07-11.43,7.55-10.42,12.02c1.21,5.39,6.63,7.35,18.82,9.3
							c15.97,2.21,24.15,7.83,26.79,19.53c2.52,11.18-3.02,22.79-16.95,28.41l3.05,13.55L917.4,910.41z"/>
					</g>
				</g>
				<g>
					<path class="st18" d="M894.24,954.03c-55.8-8.77-94.07-61.3-85.3-117.11c8.77-55.8,61.3-94.07,117.11-85.3
						c55.8,8.77,94.07,61.3,85.3,117.11C1002.58,924.53,950.04,962.8,894.24,954.03z M923.71,766.49
						c-47.61-7.48-92.43,25.16-99.91,72.77c-7.48,47.61,25.16,92.43,72.77,99.91c47.61,7.48,92.43-25.16,99.91-72.77
						C1003.97,818.79,971.32,773.97,923.71,766.49z"/>
				</g>
			</g>
		</g>
		<g>
			<g>
				<path class="st28" d="M892,1703.32c0,0-0.82,59.77,0,99.08c0.82,39.3-13.92,210.44-13.92,210.44s-20.47,1.64-23.75,0
					c-3.28-1.64-15.56-150.3-10.64-176.05c4.91-25.75-8.15-128.55-8.15-128.55S855.98,1685.31,892,1703.32z"/>
				<g>
					<path class="st29" d="M887.4,2029.37c-5.86,9.84-32.09,3.96-32.09,3.96s-3.07-4.83-4.51-12.04c-0.01,0-0.01,0-0.01,0
						c-1.02-5.04-1.26-11.24,0.89-17.77c10.8,1.81,16.96-6.16,23.63-10.65c8.75-5.91,18.95-9.27,23.61-5.31
						C903.8,1991.69,902.61,2003.82,887.4,2029.37z"/>
				</g>
				<g>
					<path class="st26" d="M887.4,2029.37c-5.86,9.84-32.09,3.96-32.09,3.96s-3.07-4.83-4.51-12.04c0.35,0.22,19.82,11.81,33.46-4.4
						c10.3-12.24,16.23-23.18,14.66-29.33C903.8,1991.69,902.61,2003.82,887.4,2029.37z"/>
				</g>
				<path class="st28" d="M952.77,2012.84c0,0-20.47,1.64-23.75,0c-3.27-1.64-15.55-150.3-10.64-176.04
					c0.24-1.26,0.44-2.71,0.6-4.33c-0.01-0.01,0-0.03,0-0.04c3.05-31.29-8.76-124.19-8.76-124.19s20.44-22.93,56.47-4.91
					c0,0-0.51,37.35-0.32,72.41c0.05,9.29,0.15,18.43,0.32,26.66C967.51,1841.71,952.77,2012.84,952.77,2012.84z"/>
				<path class="st24" d="M966.38,1775.73c-37.68-2.46-46.04,46.23-47.39,56.69c3.05-31.29-8.76-124.19-8.76-124.19
					s20.44-22.93,56.47-4.91C966.69,1703.32,966.18,1740.68,966.38,1775.73z"/>
				<path class="st24" d="M891.7,1775.73c-37.68-2.46-46.04,46.23-47.39,56.69c3.05-31.29-8.76-124.19-8.76-124.19
					s20.44-22.93,56.47-4.91C892.02,1703.32,891.51,1740.68,891.7,1775.73z"/>
				<path class="st28" d="M1044.11,1149.89c0,0.01-0.01,0.02-0.01,0.03c-2.48,12.78-5.59,25.76-9.44,38.83
					c-8.57,29.17-20.8,58.78-37.89,87.45c-38.45-15.2-42.35-61.97-42.35-61.97l0.02-0.03c0.5-0.65,11.72-15.18,24.69-38.82
					c2.14-3.89,4.33-8.04,6.52-12.4l0.01-0.01c14.15-28.18,28.64-65.76,32.69-106.99c8.58-87.31-4.29-129.8-17.54-134.08
					c-13.25-4.29-15.02-6.49-13.03-10.66c1.92-4,6.58-1.49,6.91-1.3c-0.53-0.53-11.88-11.89-9.59-20.26
					c2.34-8.58,18.44-19.49,29.88,4.16c11.44,23.65,17.93,35.86,24.17,52.23C1043.58,957.75,1064.1,1047.02,1044.11,1149.89z"/>
				<path class="st24" d="M1034.66,1188.75c-8.57,29.17-20.8,58.78-37.89,87.45c-38.45-15.2-42.35-61.97-42.35-61.97l0.02-0.03
					c0,0,24.35-39.35,24.69-38.82C983.4,1182,1012.72,1224.76,1034.66,1188.75z"/>
				<path class="st28" d="M868.75,1214.23c0,0-55.35-70.94-63.92-158.24c-8.57-87.31,4.29-129.79,17.54-134.08
					c13.25-4.29,15.03-6.5,13.04-10.65c-1.99-4.16-6.93-1.3-6.93-1.3s11.95-11.69,9.61-20.27c-2.34-8.57-18.45-19.49-29.88,4.16
					c-11.43,23.65-17.93,35.86-24.17,52.23S740,1131.21,826.4,1276.2C864.85,1261,868.75,1214.23,868.75,1214.23z"/>
				<path class="st24" d="M788.51,1188.75c8.57,29.17,20.8,58.78,37.89,87.45c38.45-15.2,42.35-61.97,42.35-61.97l-0.02-0.03
					c0,0-24.35-39.35-24.69-38.82C839.77,1182,810.45,1224.76,788.51,1188.75z"/>
				<g>
					<path class="st14" d="M994.18,1621.15c-17.15,77.95-23.75,123.94-23.75,123.94s-87.31,25.73-137.97,0
						c-4.69-19.49-9.45-39.52-13.8-59.38l-0.01-0.01c-14.42-65.89-24.33-129.77-12.34-165.12c81.07-18.71,187.86-6.23,187.86-6.23
						s2.89,4.87,5.11,16C1002.47,1546.32,1004.28,1575.2,994.18,1621.15z"/>
				</g>
				<g>
					<path class="st21" d="M999.29,1530.35v0.03c-27.38,44.87-69.55,56.73-123.08,54.65c-53.53-2.07-57.54,100.68-57.54,100.68
						l-0.01-0.01c-14.42-65.89-24.33-129.77-12.34-165.12c81.07-18.71,187.86-6.23,187.86-6.23S997.07,1519.22,999.29,1530.35z"/>
				</g>
				<path class="st30" d="M1005.09,1513.57c-1.56,7.01-33.69,40.58-86.53,45.34c-2.19,0.2-4.4,0.34-6.61,0.43c0,0,0-0.01-0.01,0
					c-54.29,2.18-111.86-27.07-111.86-27.07s-9.36-27.28,7.01-61.58c7.88-16.52,17.41-38.84,25.15-61.98
					c8.33-24.88,14.61-50.72,14.61-71.32c0-30.98,78.52-10.86,113.23-0.45c9.85,2.96,16.17,5.13,16.17,5.13s-2.23,9.12-3.81,22.86
					c-2.63,22.65-3.53,57.84,10.05,85.49C1004.31,1494.86,1006.65,1506.56,1005.09,1513.57z"/>
				<path class="st31" d="M976.24,1342.07c0,0-2.23,9.12-3.81,22.86c-13.16,14.35-4.39,78.18-19.84,99.52
					c-17.67,24.43-70.67,34.82-73.79,59.24c-2.93,22.95,29.23,34.34,33.13,35.64c-54.29,2.18-111.86-27.07-111.86-27.07
					s-9.36-27.28,7.01-61.58c7.88-16.52,17.41-38.84,25.15-61.98l31.5-11.3l96.34-60.48
					C969.92,1339.9,976.24,1342.07,976.24,1342.07z"/>
				<g>
					<path class="st29" d="M1005.09,1323.37c-12.14,21.39-28.13,15.03-43.26,34.69c-23.25,30.19,3.85,61.19-14.03,92.37
						c-21.36,37.26-81.11,46.07-121.1,40.18c-9.64-1.42-81.53-13.31-109.25-79.93c-9.31-22.4-13.42-50.46-9.09-76.09
						c2.92-17.33,9.7-33.55,21.34-46.14c39.11-42.29,110.8-19.6,123.38-54.34c5.62-15.5-8.63-20.1-8.29-57.36
						c0.06-7.75,1.14-57.19,27.21-69.26c0.5-0.24,4.92-3.48,14.43-3.35c29.77,0.45,38.51-12.7,50.84,5.24
						c11,16,36.24,16.14,38.15,40.51v0.01c0.25,2.97,0.14,6.3-0.39,10.07c-1.55,10.99-0.93,15.37-1.32,25.35
						c-0.22,5.83-0.75,19.85,2.53,31.27c5.27,18.23,17.18,18.98,27.28,35.08C1016.74,1272.69,1016.43,1303.38,1005.09,1323.37z"/>
				</g>
				<g>
					<path class="st29" d="M962.09,2029.37c-5.87,9.84-32.09,3.96-32.09,3.96s-3.79-5.99-4.94-14.59
						c-0.61-4.52-0.48-9.76,1.32-15.22c10.8,1.81,16.96-6.16,23.62-10.65c8.5-5.74,18.36-9.07,23.19-5.64
						C978.54,1991.03,977.73,2003.11,962.09,2029.37z"/>
				</g>
				<g>
					<path class="st26" d="M1005.09,1323.37c-12.14,21.39-28.13,15.03-43.26,34.69c-23.25,30.19,3.85,61.19-14.03,92.37
						c-21.36,37.26-81.11,46.07-121.1,40.18c-9.64-1.42-81.53-13.31-109.25-79.93c-9.31-22.4-13.42-50.46-9.09-76.09
						c-10.39,68.54,63.75,124.39,138.5,105.58c74.83-18.84,30.4-86.39,85.74-111.33c39.2-17.67,47.55-46.77,35.08-86.53
						c-12.32-39.28,7.28-91.16,7.76-92.4c0.25,2.97,0.14,6.3-0.39,10.07c-1.55,10.99-0.93,15.37-1.32,25.35
						c-0.22,5.83-0.75,19.85,2.53,31.27c5.27,18.23,17.18,18.98,27.28,35.08C1016.74,1272.69,1016.43,1303.38,1005.09,1323.37z"/>
				</g>
				<g>
					<path class="st26" d="M962.09,2029.37c-5.87,9.84-32.09,3.96-32.09,3.96s-3.79-5.99-4.94-14.59c0,0,14.29,12.51,29.62,0
						c12.96-10.58,21.28-24.84,18.51-31.51C978.54,1991.03,977.73,2003.11,962.09,2029.37z"/>
				</g>
			</g>
		</g>
	</g>
	<g>
		<g>
			<path class="st8" d="M713.39,1797.73v41.28c0,10-61.1,18.11-136.48,18.11c-75.37,0-136.48-8.11-136.48-18.11v-41.28H713.39z"/>
			<ellipse class="st32" cx="576.91" cy="1797.73" rx="136.48" ry="18.11"/>
			<ellipse class="st18" cx="576.91" cy="1797.73" rx="115.68" ry="14.14"/>
			<path class="st33" d="M706.74,1809.19c0.09,9.52,0.19,19.05,0.28,28.57c-10.44,2.95-22.03,5.65-34.68,7.77
				c-19.96,3.33-38.13,4.45-53.82,4.44c-0.18-9.43-0.37-18.86-0.55-28.3c15.45,0.32,33.89-0.56,54.37-4.16
				C685.06,1815.27,696.56,1812.34,706.74,1809.19z"/>
			<linearGradient id="SVGID_1_" gradientUnits="userSpaceOnUse" x1="466.0645" y1="1827.2424" x2="513.5002" y2="1836.8129">
				<stop  offset="0" style="stop-color:#FFCE8D"/>
				<stop  offset="1" style="stop-color:#FEC989"/>
			</linearGradient>
			<path class="st34" d="M509.85,1820.5v28.02c-10.46-0.64-21.7-1.84-33.57-3.83c-6.27-1.05-12.28-2.24-18.02-3.54v-28.26
				c5.7,1.4,11.71,2.68,18.02,3.79C488.23,1818.77,499.48,1819.95,509.85,1820.5z"/>
		</g>
		<g>
			<path class="st8" d="M761.25,1749.89l-2.3,41.22c-0.56,9.99-62.01,14.68-137.28,10.48c-75.25-4.2-135.82-15.7-135.26-25.68
				l2.3-41.22L761.25,1749.89z"/>
			
				<ellipse transform="matrix(0.0557 -0.9984 0.9984 0.0557 -1149.4216 2269.2607)" class="st32" cx="624.98" cy="1742.3" rx="18.11" ry="136.48"/>
			
				<ellipse transform="matrix(0.0557 -0.9984 0.9984 0.0557 -1149.4215 2269.2612)" class="st18" cx="624.98" cy="1742.3" rx="14.14" ry="115.68"/>
			<path class="st33" d="M753.97,1760.96c-0.44,9.51-0.88,19.03-1.31,28.54c-10.59,2.36-22.31,4.42-35.05,5.82
				c-20.11,2.22-38.32,2.32-53.98,1.43c0.34-9.43,0.68-18.85,1.02-28.28c15.4,1.18,33.87,1.33,54.52-1.13
				C731.98,1765.83,743.63,1763.54,753.97,1760.96z"/>
			
				<linearGradient id="SVGID_2_" gradientUnits="userSpaceOnUse" x1="881.7972" y1="2069.4707" x2="929.2352" y2="2079.0415" gradientTransform="matrix(0.9984 0.0557 -0.0557 0.9984 -252.4574 -349.6924)">
				<stop  offset="0" style="stop-color:#FFCE8D"/>
				<stop  offset="1" style="stop-color:#FEC989"/>
			</linearGradient>
			<path class="st35" d="M556.76,1761.29l-1.56,27.98c-10.4-1.22-21.56-3.05-33.31-5.69c-6.2-1.4-12.14-2.92-17.79-4.54l1.57-28.22
				c5.61,1.71,11.54,3.33,17.78,4.78C535.26,1758.36,546.43,1760.16,556.76,1761.29z"/>
		</g>
		<g>
			<path class="st8" d="M700.74,1692.88v41.28c0,10-61.1,18.11-136.48,18.11c-75.37,0-136.48-8.11-136.48-18.11v-41.28H700.74z"/>
			<ellipse class="st32" cx="564.27" cy="1692.88" rx="136.48" ry="18.11"/>
			<ellipse class="st18" cx="564.27" cy="1692.88" rx="115.68" ry="14.14"/>
			<path class="st33" d="M694.09,1704.34c0.09,9.52,0.19,19.05,0.28,28.57c-10.44,2.95-22.03,5.65-34.68,7.77
				c-19.96,3.33-38.13,4.45-53.82,4.44c-0.18-9.43-0.37-18.86-0.55-28.3c15.45,0.32,33.89-0.56,54.37-4.16
				C672.41,1710.42,683.92,1707.49,694.09,1704.34z"/>
			<linearGradient id="SVGID_3_" gradientUnits="userSpaceOnUse" x1="453.4168" y1="1722.3923" x2="500.8524" y2="1731.9626">
				<stop  offset="0" style="stop-color:#FFCE8D"/>
				<stop  offset="1" style="stop-color:#FEC989"/>
			</linearGradient>
			<path class="st36" d="M497.21,1715.65v28.02c-10.46-0.64-21.7-1.84-33.57-3.83c-6.27-1.05-12.28-2.24-18.02-3.54v-28.26
				c5.7,1.4,11.71,2.68,18.02,3.79C475.58,1713.92,486.84,1715.1,497.21,1715.65z"/>
		</g>
		<g>
			<path class="st8" d="M754.18,1630.75v41.28c0,10-61.1,18.11-136.48,18.11c-75.37,0-136.48-8.11-136.48-18.11v-41.28H754.18z"/>
			<ellipse class="st32" cx="617.7" cy="1630.75" rx="136.48" ry="18.11"/>
			<path class="st18" d="M733.38,1630.75c0,7.81-51.79,14.14-115.68,14.14s-115.68-6.33-115.68-14.14s51.79-14.14,115.68-14.14
				S733.38,1622.94,733.38,1630.75z"/>
			<path class="st33" d="M747.53,1642.2c0.09,9.52,0.19,19.05,0.28,28.57c-10.44,2.95-22.03,5.65-34.68,7.77
				c-19.96,3.33-38.13,4.45-53.82,4.44c-0.18-9.43-0.37-18.86-0.55-28.3c15.45,0.32,33.89-0.56,54.37-4.16
				C725.85,1648.29,737.35,1645.36,747.53,1642.2z"/>
			<linearGradient id="SVGID_4_" gradientUnits="userSpaceOnUse" x1="506.8536" y1="1660.2578" x2="554.2893" y2="1669.8282">
				<stop  offset="0" style="stop-color:#FFCE8D"/>
				<stop  offset="1" style="stop-color:#FEC989"/>
			</linearGradient>
			<path class="st37" d="M550.64,1653.52v28.02c-10.46-0.64-21.7-1.84-33.57-3.83c-6.27-1.05-12.28-2.24-18.02-3.54v-28.26
				c5.7,1.4,11.71,2.68,18.02,3.79C529.02,1651.79,540.27,1652.96,550.64,1653.52z"/>
		</g>
		<g>
			<path class="st8" d="M718.57,1592v41.28c0,10-61.1,18.11-136.48,18.11c-75.37,0-136.48-8.11-136.48-18.11V1592H718.57z"/>
			<ellipse class="st32" cx="582.1" cy="1592" rx="136.48" ry="18.11"/>
			<ellipse class="st18" cx="582.1" cy="1592" rx="115.68" ry="14.14"/>
			<path class="st33" d="M711.92,1603.45c0.09,9.52,0.19,19.05,0.28,28.57c-10.44,2.95-22.03,5.65-34.68,7.77
				c-19.96,3.33-38.13,4.45-53.82,4.44c-0.18-9.43-0.37-18.86-0.55-28.3c15.45,0.32,33.89-0.56,54.37-4.16
				C690.24,1609.54,701.74,1606.61,711.92,1603.45z"/>
			<linearGradient id="SVGID_5_" gradientUnits="userSpaceOnUse" x1="471.2457" y1="1621.5109" x2="518.6813" y2="1631.0813">
				<stop  offset="0" style="stop-color:#FFCE8D"/>
				<stop  offset="1" style="stop-color:#FEC989"/>
			</linearGradient>
			<path class="st38" d="M515.04,1614.77v28.02c-10.46-0.64-21.7-1.84-33.57-3.83c-6.27-1.05-12.28-2.24-18.02-3.54v-28.26
				c5.7,1.4,11.71,2.68,18.02,3.79C493.41,1613.04,504.67,1614.22,515.04,1614.77z"/>
		</g>
		<g>
			<path class="st8" d="M760.31,1529.08v41.28c0,10-61.1,18.11-136.48,18.11c-75.37,0-136.48-8.11-136.48-18.11v-41.28H760.31z"/>
			<ellipse class="st32" cx="623.83" cy="1529.09" rx="136.48" ry="18.11"/>
			<ellipse class="st18" cx="623.83" cy="1529.09" rx="115.68" ry="14.14"/>
			<path class="st33" d="M753.66,1540.54c0.09,9.52,0.19,19.05,0.28,28.57c-10.44,2.95-22.03,5.65-34.68,7.77
				c-19.96,3.33-38.13,4.45-53.82,4.44c-0.18-9.43-0.37-18.86-0.55-28.3c15.45,0.32,33.89-0.56,54.37-4.16
				C731.98,1546.63,743.48,1543.69,753.66,1540.54z"/>
			<linearGradient id="SVGID_6_" gradientUnits="userSpaceOnUse" x1="512.9833" y1="1558.5953" x2="560.4189" y2="1568.1656">
				<stop  offset="0" style="stop-color:#FFCE8D"/>
				<stop  offset="1" style="stop-color:#FEC989"/>
			</linearGradient>
			<path class="st39" d="M556.77,1551.85v28.02c-10.46-0.64-21.7-1.84-33.57-3.83c-6.27-1.05-12.28-2.24-18.02-3.54v-28.26
				c5.7,1.4,11.71,2.68,18.02,3.79C535.15,1550.13,546.4,1551.3,556.77,1551.85z"/>
		</g>
	</g>
	<g>
		<path class="st40" d="M1530.17,1424c0,0-20.37-12.65-22.76-3.92C1505.02,1428.82,1530.17,1424,1530.17,1424z"/>
		<path class="st40" d="M1488.54,1441.41c0,0-22.6,8.03-17.26,15.34C1476.61,1464.07,1488.54,1441.41,1488.54,1441.41z"/>
		<path class="st40" d="M1499.57,1423.5c0,0-23.93-1.62-21.94,7.22C1479.62,1439.55,1499.57,1423.5,1499.57,1423.5z"/>
		<path class="st40" d="M1522.29,1438.94c0,0-23.69,3.75-19.78,11.92C1506.41,1459.03,1522.29,1438.94,1522.29,1438.94z"/>
	</g>
	<g>
		<path class="st13" d="M2344.38,824.96h-388.8c-24.85,0-45-20.15-45-45v-388.8c0-24.85,20.15-45,45-45h388.8
			c24.85,0,45,20.15,45,45v388.8C2389.38,804.81,2369.23,824.96,2344.38,824.96z"/>
		<g>
			<path class="st14" d="M2230.43,660.5c-23.03,15.36-50.69,24.32-80.45,24.32c-80.16,0-145.14-64.98-145.14-145.14
				c0-25.9,6.78-50.22,18.68-71.27l46.41,29.58c-6.52,12.47-10.2,26.66-10.2,41.7c0,49.85,40.41,90.25,90.25,90.25
				c17.58,0,33.99-5.03,47.85-13.72L2230.43,660.5z"/>
			<path class="st41" d="M2295.12,539.68c0,50.4-25.69,94.8-64.69,120.82l-32.59-44.29c25.46-15.95,42.4-44.26,42.4-76.53
				c0-49.85-40.41-90.25-90.25-90.25v-54.89C2230.14,394.54,2295.12,459.52,2295.12,539.68z"/>
			<path class="st42" d="M2149.98,394.54v54.89c-34.8,0-65.01,19.7-80.05,48.56l-46.41-29.58
				C2048.42,424.31,2095.72,394.54,2149.98,394.54z"/>
		</g>
		<g>
			<path class="st14" d="M2048.67,749.88h-86.56c-3.12,0-5.66-2.53-5.66-5.66v-9.26c0-3.12,2.53-5.66,5.66-5.66h86.56
				c3.12,0,5.66,2.53,5.66,5.66v9.26C2054.33,747.35,2051.8,749.88,2048.67,749.88z"/>
			<path class="st43" d="M1995.25,783.25h-33.64c-2.84,0-5.14-2.3-5.14-5.14l0,0c0-2.84,2.3-5.14,5.14-5.14h33.64
				c2.84,0,5.14,2.3,5.14,5.14l0,0C2000.39,780.95,1998.09,783.25,1995.25,783.25z"/>
			<path class="st14" d="M2193.26,749.88h-86.56c-3.12,0-5.66-2.53-5.66-5.66v-9.26c0-3.12,2.53-5.66,5.66-5.66h86.56
				c3.12,0,5.66,2.53,5.66,5.66v9.26C2198.91,747.35,2196.38,749.88,2193.26,749.88z"/>
			<path class="st43" d="M2139.83,783.25h-33.64c-2.84,0-5.14-2.3-5.14-5.14l0,0c0-2.84,2.3-5.14,5.14-5.14h33.64
				c2.84,0,5.14,2.3,5.14,5.14l0,0C2144.97,780.95,2142.67,783.25,2139.83,783.25z"/>
			<path class="st14" d="M2337.84,749.88h-86.56c-3.12,0-5.66-2.53-5.66-5.66v-9.26c0-3.12,2.53-5.66,5.66-5.66h86.56
				c3.12,0,5.66,2.53,5.66,5.66v9.26C2343.5,747.35,2340.97,749.88,2337.84,749.88z"/>
			<path class="st43" d="M2284.41,783.25h-33.64c-2.84,0-5.14-2.3-5.14-5.14l0,0c0-2.84,2.3-5.14,5.14-5.14h33.64
				c2.84,0,5.14,2.3,5.14,5.14l0,0C2289.56,780.95,2287.25,783.25,2284.41,783.25z"/>
		</g>
		<g>
			<g>
				<path d="M2139.28,557.26v-26.49h1.44l-11.78,16.91l0.05-1.96h21.22v4.84h-25.72V546l15.95-22.85h4.93v34.11H2139.28z"/>
				<path d="M2165.72,557.64c-4.02,0-7.11-1.48-9.25-4.45c-2.14-2.97-3.21-7.3-3.21-12.98c0-5.68,1.06-10.01,3.19-12.98
					c2.12-2.97,5.21-4.45,9.27-4.45c4.05,0,7.14,1.48,9.27,4.45c2.12,2.97,3.19,7.28,3.19,12.93c0,5.72-1.07,10.06-3.21,13.03
					C2172.83,556.16,2169.74,557.64,2165.72,557.64z M2165.72,552.85c2.2,0,3.82-1.01,4.84-3.04c1.02-2.03,1.53-5.25,1.53-9.65
					c0-4.37-0.51-7.55-1.53-9.53c-1.02-1.98-2.63-2.97-4.84-2.97c-2.2,0-3.82,1-4.84,2.99c-1.02,2-1.53,5.17-1.53,9.51
					c0,4.41,0.51,7.62,1.53,9.65C2161.9,551.84,2163.52,552.85,2165.72,552.85z"/>
				<path d="M2194.46,557.64c-4.02,0-7.11-1.48-9.25-4.45c-2.14-2.97-3.21-7.3-3.21-12.98c0-5.68,1.06-10.01,3.19-12.98
					c2.12-2.97,5.21-4.45,9.27-4.45c4.05,0,7.14,1.48,9.27,4.45c2.12,2.97,3.19,7.28,3.19,12.93c0,5.72-1.07,10.06-3.21,13.03
					C2201.57,556.16,2198.49,557.64,2194.46,557.64z M2194.46,552.85c2.2,0,3.82-1.01,4.84-3.04c1.02-2.03,1.53-5.25,1.53-9.65
					c0-4.37-0.51-7.55-1.53-9.53c-1.02-1.98-2.63-2.97-4.84-2.97c-2.2,0-3.82,1-4.84,2.99c-1.02,2-1.53,5.17-1.53,9.51
					c0,4.41,0.51,7.62,1.53,9.65C2190.65,551.84,2192.26,552.85,2194.46,552.85z"/>
			</g>
			<g>
				<path class="st41" d="M2103.51,554.28c-2.06,0-3.99-0.3-5.8-0.9c-1.8-0.6-3.36-1.48-4.67-2.63l1.48-3.09
					c1.39,1.12,2.79,1.95,4.21,2.47c1.42,0.52,2.98,0.78,4.69,0.78c2.01,0,3.56-0.41,4.65-1.24c1.1-0.83,1.65-1.99,1.65-3.49
					c0-0.91-0.29-1.64-0.88-2.19c-0.59-0.55-1.36-0.99-2.33-1.32c-0.96-0.33-2.02-0.64-3.17-0.92c-1.15-0.28-2.3-0.59-3.45-0.94
					c-1.15-0.35-2.21-0.82-3.19-1.4c-0.98-0.59-1.75-1.35-2.33-2.29c-0.57-0.94-0.86-2.15-0.86-3.65c0-1.63,0.44-3.08,1.32-4.35
					c0.88-1.27,2.1-2.26,3.65-2.97c1.55-0.71,3.33-1.06,5.33-1.06c1.23,0,2.44,0.13,3.63,0.4c1.19,0.27,2.3,0.66,3.33,1.18
					c1.03,0.52,1.93,1.16,2.71,1.91l-1.48,3.09c-2.41-2.14-5.13-3.21-8.18-3.21c-1.87,0-3.36,0.42-4.47,1.26
					c-1.11,0.84-1.67,2.03-1.67,3.55c0,1.02,0.29,1.83,0.88,2.43c0.59,0.6,1.36,1.08,2.33,1.44c0.96,0.36,2.03,0.68,3.19,0.96
					c1.16,0.28,2.31,0.59,3.45,0.92c1.14,0.33,2.19,0.78,3.17,1.32c0.98,0.55,1.75,1.28,2.33,2.19c0.57,0.91,0.86,2.09,0.86,3.53
					c0,1.63-0.44,3.06-1.32,4.29c-0.88,1.23-2.1,2.19-3.65,2.89C2107.37,553.93,2105.57,554.28,2103.51,554.28z M2102.19,558.61
					v-5.01l0.2-1.97v-24.31l-0.2-1.64v-4.93h3.37v4.93l-0.16,1.64v24.31l0.16,1.97v5.01H2102.19z"/>
			</g>
		</g>
	</g>
</g>
</svg>
