<svg xmlns="http://www.w3.org/2000/svg" viewBox="0 0 3000 2000"><defs><style>.cls-1{isolation:isolate;}.cls-12,.cls-19,.cls-2,.cls-9{mix-blend-mode:multiply;}.cls-3{fill:#bcbcdd;}.cls-4{fill:#d9e5ff;}.cls-5{fill:#a1c1e5;}.cls-6{fill:#a6c6ff;}.cls-7{fill:#91b9f2;}.cls-8{fill:#cce3ff;}.cls-27,.cls-30,.cls-9{opacity:0.4;}.cls-10{fill:#d4d4f4;}.cls-11{fill:#3f739e;}.cls-12{opacity:0.7;}.cls-13{fill:#fead97;}.cls-14{fill:#7a9fcc;}.cls-15{fill:#467baf;}.cls-16{fill:#253e4c;}.cls-17{fill:#fff;}.cls-18{fill:#40637f;}.cls-19{opacity:0.5;}.cls-20{fill:#5a9fe2;}.cls-21{fill:#e6efff;}.cls-22{fill:#6b8eb2;}.cls-23{fill:#5690bf;}.cls-24{fill:#cc7a66;}.cls-25{fill:#679ae5;}.cls-26,.cls-27{mix-blend-mode:screen;}.cls-26{opacity:0.3;}.cls-28,.cls-29,.cls-30{mix-blend-mode:color-dodge;}.cls-29{opacity:0.15;}</style></defs><g class="cls-1"><g id="Generating_Creative_Idea" data-name="Generating Creative Idea"><g class="cls-2"><ellipse class="cls-3" cx="2363.12458" cy="1923.00751" rx="489.67842" ry="19.70678"/></g><g class="cls-2"><ellipse class="cls-3" cx="815.71795" cy="1897.85584" rx="353.17886" ry="19.70678"/></g><path class="cls-4" d="M2213.61307,1643.39315l23.33314-38.03235a11.16633,11.16633,0,0,0-3.67858-15.35714l-41.26118-25.314a11.09932,11.09932,0,0,1-4.65552-13.26756,213.00068,213.00068,0,0,0,12.94109-81.52161,11.10434,11.10434,0,0,1,8.53715-11.1861l47.09218-11.2802a11.16632,11.16632,0,0,0,8.258-13.46027l-10.39783-43.4085a11.16632,11.16632,0,0,0-13.46028-8.258l-47.09224,11.28027a11.10434,11.10434,0,0,1-12.67876-6.10413,213.00085,213.00085,0,0,0-48.472-66.811,11.0993,11.0993,0,0,1-1.86092-13.937l25.314-41.26119a11.16632,11.16632,0,0,0-3.67858-15.35713l-38.03244-23.3332a11.16634,11.16634,0,0,0-15.35714,3.67858l-25.31446,41.26185a11.09932,11.09932,0,0,1-13.26681,4.65577,213.10529,213.10529,0,0,0-81.52241-12.94172,11.10425,11.10425,0,0,1-11.1855-8.53714l-11.27984-47.09049a11.16634,11.16634,0,0,0-13.46228-8.25751l-43.3947,10.403a11.16632,11.16632,0,0,0-8.256,13.45982L1902.062,1270.51a11.10442,11.10442,0,0,1-6.10493,12.67919,213.02676,213.02676,0,0,0-66.82522,48.46388,11.09917,11.09917,0,0,1-13.93623,1.8602l-41.2467-25.30516a11.16632,11.16632,0,0,0-15.35714,3.67858l-23.33313,38.03235a11.16632,11.16632,0,0,0,3.67858,15.35714l41.24736,25.30556a11.09916,11.09916,0,0,1,4.65609,13.26584,213.13107,213.13107,0,0,0-12.928,81.53139,11.10431,11.10431,0,0,1-8.53714,11.18642l-47.09209,11.28023a11.16632,11.16632,0,0,0-8.258,13.46029l10.39217,43.38466a11.16631,11.16631,0,0,0,13.46028,8.258l47.09211-11.28023a11.10432,11.10432,0,0,1,12.67891,6.1044,213.133,213.133,0,0,0,48.46478,66.82573,11.09918,11.09918,0,0,1,1.85962,13.93567l-25.30559,41.24738a11.16633,11.16633,0,0,0,3.67859,15.35714l38.03244,23.33319a11.16633,11.16633,0,0,0,15.35714-3.67858l25.30517-41.24672a11.09916,11.09916,0,0,1,13.26654-4.65586,213.02866,213.02866,0,0,0,81.5306,12.92729,11.10442,11.10442,0,0,1,11.187,8.53714l11.28065,47.09385a11.16632,11.16632,0,0,0,13.4583,8.25846l43.39844-10.3871a11.16632,11.16632,0,0,0,8.26-13.46076l-11.27984-47.09048a11.10424,11.10424,0,0,1,6.10361-12.6785,213.10493,213.10493,0,0,0,66.8114-48.473,11.0993,11.0993,0,0,1,13.93641-1.86037l41.26184,25.31445A11.16632,11.16632,0,0,0,2213.61307,1643.39315Zm-286.34994-54.31062a126.02935,126.02935,0,0,1-46.14121-181.16791c35.4628-53.50972,106.97557-71.79971,163.71445-41.77305a126.02075,126.02075,0,0,1,46.15365,181.331C2055.46723,1600.92985,1983.96439,1619.15768,1927.26313,1589.08253Z"/><path class="cls-4" d="M1632.304,1397.002l45.3647-117.90754a31.61582,31.61582,0,0,0-18.15434-40.86l-127.91752-49.216a31.42609,31.42609,0,0,1-19.79755-34.53908,603.08064,603.08064,0,0,0-5.97574-233.63035,31.44031,31.44031,0,0,1,18.00433-35.54178l125.29595-55.66958a31.61582,31.61582,0,0,0,16.05538-41.72943l-51.31494-115.495a31.61582,31.61582,0,0,0-41.72947-16.05536l-125.29608,55.6698a31.44031,31.44031,0,0,1-38.44383-10.46153,603.081,603.081,0,0,0-169.3745-161.03111,31.4261,31.4261,0,0,1-12.36209-37.84268l49.216-127.91754a31.61583,31.61583,0,0,0-18.15435-40.86L1139.8122,288.55a31.61582,31.61582,0,0,0-40.86,18.15434l-49.21682,127.91959a31.4261,31.4261,0,0,1-34.53689,19.79786,603.37628,603.37628,0,0,0-233.63288,5.97441,31.44,31.44,0,0,1-35.54011-18.00462L690.35777,317.10017a31.61583,31.61583,0,0,0-41.73476-16.053L533.16913,352.36941a31.61582,31.61582,0,0,0-16.05,41.72713l55.67175,125.30012a31.44054,31.44054,0,0,1-10.46354,38.44543,603.15462,603.15462,0,0,0-161.075,169.35941,31.42568,31.42568,0,0,1-37.841,12.35968L235.53867,690.36243a31.61583,31.61583,0,0,0-40.86,18.15434L149.314,826.42431a31.61582,31.61582,0,0,0,18.15434,40.86L295.343,916.48387a31.42566,31.42566,0,0,1,19.79826,34.534,603.44947,603.44947,0,0,0,6.01716,233.65084,31.44028,31.44028,0,0,1-18.00416,35.54267L177.85852,1275.881a31.61582,31.61582,0,0,0-16.05532,41.72945L213.09011,1433.042a31.61583,31.61583,0,0,0,41.72946,16.05533l125.29574-55.66964a31.44027,31.44027,0,0,1,38.44439,10.46221,603.45472,603.45472,0,0,0,169.36215,161.076,31.42566,31.42566,0,0,1,12.35778,37.83976l-49.19957,127.87475a31.61583,31.61583,0,0,0,18.15435,40.86l117.90782,45.36481a31.61582,31.61582,0,0,0,40.86-18.15434l49.19878-127.8727a31.42567,31.42567,0,0,1,34.53608-19.798,603.159,603.159,0,0,0,233.64825-6.01883,31.44057,31.44057,0,0,1,35.5443,18.00384l55.67171,125.3004a31.61582,31.61582,0,0,0,41.72418,16.05767l115.47249-51.2799a31.61582,31.61582,0,0,0,16.0606-41.73179l-55.66772-125.29142a31.44,31.44,0,0,1,10.46019-38.44284A603.37516,603.37516,0,0,0,1425.683,1378.2998a31.42609,31.42609,0,0,1,37.84146-12.36028l127.91958,49.21682A31.61583,31.61583,0,0,0,1632.304,1397.002Zm-825.20389-3.66056c-202.46043-63.66783-304.31254-286.70139-221.809-480.61046,71.15977-167.24763,260.83263-255.01591,434.26947-200.65465,202.76963,63.55519,304.77726,286.999,221.92766,481.05816C1170.13448,1360.267,980.45722,1447.85712,807.10014,1393.34144Z"/><polygon class="cls-5" points="2187.237 1576.431 2262.756 1576.431 2181.589 1499.764 2106.07 1499.764 2187.237 1576.431"/><path class="cls-6" d="M2605.84,1576.42783h-378.5138q-3.13025-5.54342-5.86934-10.7823l-1.848-4.65211-21.934-55.17277a433.76361,433.76361,0,0,1-21.804-72.91147l107.99759-42.93388a57.92821,57.92821,0,1,1,99.82383-39.67308l114.19332-45.41213,98.19369,246.97306Z"/><path class="cls-7" d="M2595.25323,1646.296l.36966-.15219c-.1303.26086-.2391.52171-.36966.78256Z"/><path class="cls-7" d="M2624.88306,1561.189c-1.30427,5.30425-2.6088,10.36939-3.95633,15.23884H2201.131l18.47787-15.43441,238.73428-199.30016,78.75918,94.34577a57.93564,57.93564,0,1,0,54.84663,99.62839c1.45659-1.21736,2.82614-2.47824,4.1304-3.80427a57.153,57.153,0,0,0,9.86945-13.36934Z"/><polygon class="cls-8" points="2595.253 1576.428 2595.253 1923.008 2187.175 1923.008 2187.175 1588.08 2201.131 1576.428 2595.253 1576.428"/><polygon class="cls-8" points="2201.131 1576.428 2187.175 1588.08 2187.175 1576.428 2201.131 1576.428"/><path class="cls-5" d="M2670.77337,1576.42783v346.57968h-75.52014V1646.92633c.13056-.26085.23936-.5217.36966-.78256l-.36966.15219v-69.86813Z"/><path class="cls-5" d="M2595.62289,1646.14377c-.1303.26086-.2391.52171-.36966.78256v-.63037Z"/><polygon class="cls-5" points="2804.184 1499.756 2735.881 1539.016 2670.773 1576.428 2595.253 1576.428 2603.883 1571.471 2623.883 1559.972 2728.663 1499.756 2804.184 1499.756"/><g class="cls-9"><path class="cls-10" d="M2595.25323,1786.57556v136.43195H2187.17489v-63.69429c69.542.4348,144.06224-2.826,214.99528-13.69534q14.60873-2.21733,28.95606-4.913C2491.12519,1829.5312,2547.64575,1812.31421,2595.25323,1786.57556Z"/></g><path class="cls-11" d="M2128.17609,1596.34053l-1.86949,5.52157-43.12973,174.32244c-3.9128-1.34778-7.71707-2.5-11.36928-3.49989-22.608-6.17384-39.99895-6.49984-47.1293-4.93472l44.8469-364.34014,1.47834-12.0867a124.86925,124.86925,0,0,0,16.41254,6.93464c.587.21733,1.17371.413,1.78246.60861q2.70672.88049,5.674,1.76083l2.478,14.54318,23.99958,140.997Z"/><g class="cls-12"><path class="cls-10" d="M2128.17609,1596.34053l-1.86949,5.52157-43.12973,174.32244c-3.9128-1.34778-7.71707-2.5-11.36928-3.49989l49.54252-216.51728Z"/></g><path class="cls-13" d="M2015.50463,1178.371c-4.65211,3.04347-7.63029,1.86949-7.63029,1.86949-1.34792-.45643-2.76086-.97827-4.21731-1.58688h-.02176c-24.3691-9.6955-61.21619-34.95583-78.0419-47.15119-17.804-12.93454-32.608-25.67337-32.608-25.67337-2.69558-2.23915-8.78238-4.02174-8.78238-4.02174-16.76056-4.8912-22.19523-12.58664-25.08651-15.02136-2.91291-2.45648-15.304-4.10864-18.06484-5.45643-2.739-1.34779-2.08683-7.34768-2.08683-7.34768-4.4564-.65214-9.95635-5.19545-10.04325-7.43459-.087-2.23915.9565-2.56515.9565-2.56515h21.34727c1.47834,0,1.34792-1,1.34792-1a.9155.9155,0,0,0-.8696-1.08693s-10.39115-1.84774-17.97793-3.5868c-7.60854-1.7392-9.78241-3.86955-9.73889-8.34771.06515-4.47816,1.8695-4.0216,1.8695-4.0216l3.19565.43466,14.32572,2.04344s8.84765,1.6304,9.60859-1.45645c.7608-3.08685-3.3696-4.43464-3.3696-4.43464s-19.39087-5.5651-21.43431-7.58678c-2.0652-2-1.02165-8.71723-.63037-10.08678a2.85952,2.85952,0,0,1,1.93464-1.73906l8.69547,3.413c4.08688,1.826,16.76057,6.239,21.93438,8.04321a10.75832,10.75832,0,0,1-.89123-5.86934,1.80673,1.80673,0,0,1,2.06507-1.54349,2.484,2.484,0,0,1,1.69568,1.02165c1.04342,1.47835,5.41291,4.19568,12.304,7.239,6.91288,3.06523,7.04344,8.21728,7.04344,8.21728,8.0432,28.195,12.9344,30.97761,12.9344,30.97761s70.80288,39.12962,78.95489,42.86861c6.56512,3,22.043,11.04328,27.78209,14.02147,1.36954.71741,2.19562,1.15208,2.19562,1.15208Z"/><g class="cls-12"><path class="cls-10" d="M2015.50463,1178.371c-4.65211,3.04347-7.63029,1.86949-7.63029,1.86949-1.34792-.45643-2.76086-.97827-4.21731-1.58688h-.02176c-5.71728-21.95614-1.6304-47.15119-1.6304-47.15119,1.36954.71741,2.19562,1.15208,2.19562,1.15208Z"/></g><path d="M1846.1377,1074.7041a58.37806,58.37806,0,0,1-7.2168-.44531.27339.27339,0,0,1-.23145-.30762.27648.27648,0,0,1,.30762-.23144,53.07874,53.07874,0,0,0,13.42871.001.27676.27676,0,0,1,.31055.22657.27161.27161,0,0,1-.22656.31054A41.81044,41.81044,0,0,1,1846.1377,1074.7041Z"/><path class="cls-14" d="M2109.61144,1054.54744a21.46657,21.46657,0,0,0-1.43509,1.67392l-5.06475,10.49981-.76107,1.56512a.06739.06739,0,0,0-.02176.04352s-30.043,53.56413-36.80342,66.15078a68.48877,68.48877,0,0,0-5.95638,14.99974c-2.82613,10.804-3.5872,24.39073.21707,41.78167.04352.26085.1088.49994.15232.73917.1088.43467.19584.86947.30437,1.30427-12.86939,9.19541-21.26022,14.76051-21.26022,14.76051-13.36961-10.32587-21.63014-23.99945-26.73868-37.26v-.02176a128.32214,128.32214,0,0,1-7.89128-35.73839,91.14707,91.14707,0,0,1-.326-9.41288S2074.89458,1077.22086,2109.61144,1054.54744Z"/><path class="cls-14" d="M2109.61144,1054.54744a21.46657,21.46657,0,0,0-1.43509,1.67392l-5.06475,10.49981c-40.23831,27.282-93.933,64.95518-98.75905,68.32464a91.14707,91.14707,0,0,1-.326-9.41288S2074.89458,1077.22086,2109.61144,1054.54744Z"/><path class="cls-14" d="M2060.24273,1193.30544c-12.86939,9.19541-21.26022,14.76051-21.26022,14.76051-13.36961-10.32587-21.63014-23.99945-26.73868-37.26.63051.89123,15.36913,22.04292,25.76028,26.3255l16.956-12.84763s-1.15222-20.043,4.60885-34.8035c-2.82613,10.804-3.5872,24.39073.21707,41.78167.04352.26085.1088.49994.15232.73917C2060.04716,1192.43584,2060.1342,1192.87064,2060.24273,1193.30544Z"/><path class="cls-13" d="M2279.04255,1816.162a72.2391,72.2391,0,0,0-15.17355.78256,65.95834,65.95834,0,0,0-25.043,9.39112l-6.34779-11.565a26.11124,26.11124,0,0,0,3.174-1.73907c7.63029-6.02165,28.3038-9.3476,39.97719-11.71717Z"/><path class="cls-15" d="M2267.28185,1773.72806c-1.56512.15219-3.06523.32614-4.52155.52171-25.41238,3.32608-38.108,11.99979-43.23825,16.15182a10.31261,10.31261,0,0,0-3.28257,4.28259c-30.41238-50.30333-87.36787-194.23514-87.36787-194.23514l-.69552-4.10851-6.826-40.17316-23.99958-140.997-2.478-14.54318h.04352a173.72045,173.72045,0,0,0,24.28193,5.06515c5.41291.7608,11.19547,1.30427,17.4127,1.6304,4.21717.21733,8.63019.326,13.239.28261,27.73831-.21746,47.58573-4.67386,60.73773-9.26069,2.32592-.80432,4.45654-1.6304,6.36929-2.43472.99989-.413,1.95653-.82608,2.84789-1.26088a2.66091,2.66091,0,0,1,.04352.413c.04352.54346.087,1.06517.1088,1.60864.04325.65213.08677,1.326.10853,2.02168.02176.60874.065,1.23912.08678,1.86962.02176.93475.06528,1.89126.06528,2.86939.04352,1.36955.06528,2.76086.06528,4.19568v1.1956c0,1.30427,0,2.65206-.04352,3.99985,0,.50008-.02176,1.02178-.02176,1.54349-.02176.97827-.04352,1.97816-.087,2.97819-.02176.71741-.04326,1.43482-.065,2.17386-.04352,1.5435-.10853,3.13038-.19557,4.71726-2.93493,61.52056-20.8911,152.4751-20.8911,152.4751C2217.9349,1606.2316,2253.6084,1726.2725,2267.28185,1773.72806Z"/><g class="cls-12"><path class="cls-10" d="M2267.28185,1773.72806c-1.56512.15219-3.06523.32614-4.52155.52171-22.60827-77.6071-75.58541-197.82194-75.58541-197.82194,3.30432-24.86905,9.08661-62.45518,14.0431-93.82407s9.06512-56.52055,9.06512-56.52055a217.70132,217.70132,0,0,1-73.19422-.65214,253.60713,253.60713,0,0,1-39.73836-10.26072,195.76553,195.76553,0,0,1-27.82534-11.76056l1.47834-12.0867q.74993.39127,1.56512.78256c.54347.28261,1.1087.54346,1.69568.82608,2.34769,1.10869,5.08652,2.30429,8.19553,3.52165.78229.30438,1.58688.60862,2.41269.89123,3.022,1.10869,6.34779,2.21739,10,3.28256h.04352a173.72045,173.72045,0,0,0,24.28193,5.06515c5.41291.7608,11.19547,1.30427,17.4127,1.6304,4.21717.21733,8.63019.326,13.239.28261,27.73831-.21746,47.58573-4.67386,60.73773-9.26069,2.32592-.80432,4.45654-1.6304,6.36929-2.43472.99989-.413,1.95653-.82608,2.84789-1.26088-.02176-.45656-.04352-.89123-.087-1.326.04352.4348.06528.86947.1088,1.326,0,.13042.02176.28261.02176.413.04352.54346.087,1.06517.1088,1.60864.04325.65213.08677,1.326.10853,2.02168.02176.60874.065,1.23912.08678,1.86962.02176.93475.06528,1.89126.06528,2.86939.04352,1.36955.04352,2.78262.04352,4.21731l.02176-.02163v1.1956c0,1.30427,0,2.65206-.04352,3.99985,0,.50008-.02176,1.02178-.02176,1.54349-.02176.97827-.04352,1.97816-.087,2.97819-.02176.71741-.04326,1.43482-.065,2.17386-.04352,1.5435-.10853,3.13038-.19557,4.71726-2.93493,61.52056-20.8911,152.4751-20.8911,152.4751C2217.9349,1606.2316,2253.6084,1726.2725,2267.28185,1773.72806Z"/></g><path class="cls-14" d="M2238.45635,1124.35042c-1.13019,6.63027-2.43472,13.7171-3.84753,20.97774-7.82613,40.19479-18.84779,85.5634-18.84779,85.5634s-1.28224,6.89125-.23883,22.82561c1.04342,15.95624,15.95612,134.32336,15.95612,134.32336s-3.65222,2.97818-11.6519,6.60851c-.04352-.45656-.06528-.89123-.1088-1.326.04352.4348.06528.86947.087,1.326-.89136.4348-1.848.84784-2.84789,1.26088-1.91275.80432-4.04337,1.6304-6.36929,2.43472-13.152,4.58683-32.99942,9.04323-60.73773,9.26069-4.60885.04339-9.02187-.06528-13.239-.28261-6.21723-.32613-11.99979-.8696-17.4127-1.6304a173.72045,173.72045,0,0,1-24.28193-5.06515,131.827,131.827,0,0,1-23.91255-9.30408,60.53231,60.53231,0,0,1-7.80437-4.67387l5.587-154.34459s-2.71734-12.8475-8.54342-38.99919c-.10853-.4348-.19557-.8696-.30437-1.30427-.04352-.23923-.1088-.47832-.15232-.73917-3.80427-17.39094-3.0432-30.97762-.21707-41.78167a68.48877,68.48877,0,0,1,5.95638-14.99974c6.76043-12.58665,36.80342-66.15078,36.80342-66.15078a.06739.06739,0,0,1,.02176-.04352l.76107-1.56512,5.06475-10.49981a21.46657,21.46657,0,0,1,1.43509-1.67392,14.01469,14.01469,0,0,1,2.478-2.08683c6.54336-4.19555,12.82587-15.63011,13.69547-19.65185,0,0,25.043-5.239,32.80359-20.15166A26.73642,26.73642,0,0,0,2183.74,994.17923s37.9559,22.56475,46.347,40.36873C2238.45635,1052.37357,2245.804,1081.02513,2238.45635,1124.35042Z"/><path class="cls-14" d="M2219.82642,1394.649h-.02176c-.02176-.45656-.04352-.89123-.087-1.326C2219.76114,1393.75781,2219.7829,1394.19248,2219.82642,1394.649Z"/><g class="cls-12"><path class="cls-10" d="M2215.5222,1253.71717c1.04342,15.95624,15.95612,134.32336,15.95612,134.32336a35.9367,35.9367,0,0,1-3.52166,2.36944,81.63485,81.63485,0,0,1-10.99989,5.5c-.19558.0869-.43467.17394-.63051.26085-.45643.174-.93462.36952-1.4128.56523-.5.19557-.97814.39128-1.49984.58685-.91339.32613-1.848.67389-2.82614,1.02179-13.152,4.58683-32.99942,9.04323-60.73773,9.26069a211.25362,211.25362,0,0,1-30.65174-1.913q2.67408.06528,5.28235.06515c50.673,0,84.30264-19.26044,84.30264-19.26044-4.52155-29.89068-16.1952-106.82388-18.45611-116.93228-2.78262-12.58678,3.84779-54.28154,3.84779-54.28154s-.02176,0,0-.02176c18.08672-40.21655,38.97729-97.3022,27.04278-125.432a27.00151,27.00151,0,0,0-6.86923-9.84769c11.891,9.10851,17.67355,42.89037,20.26059,65.34645-7.82613,40.19479-18.84779,85.5634-18.84779,85.5634S2214.47879,1237.78281,2215.5222,1253.71717Z"/></g><path class="cls-13" d="M2155.1321,956.98425a74.46667,74.46667,0,0,0,2.10859,15.391,13.84049,13.84049,0,0,0-4.95648,2.9348c-.19558.17382-.41291.34776-.60875.54347a14.2689,14.2689,0,0,0-1.28224,1.28251c-.19584.21733-.41318.45656-.63051.71741-.2176.26085-.45643.52171-.674.80432a20.36166,20.36166,0,0,0-1.30426,1.80435c-.43494.65213-.8696,1.36954-1.30427,2.13034a32.70718,32.70718,0,0,0-1.848,3.80427c-.21707.47819-.41291.95651-.587,1.45646-.1953.50008-.39114,1.02178-.56522,1.54349-.15179.4348-.28235.86947-.43467,1.30427-.21733.71741-.43467,1.47821-.65227,2.23915-.13029.54346-.28234,1.10869-.4129,1.69554-.15206.63051-.30411,1.28264-.43467,1.95654-.2176,1.02165-.41291,2.10858-.587,3.21728l-.13056.84784a17.24,17.24,0,0,0-4.34773,1.10869.166.166,0,0,1-.10854.04339l-.30437.15219h-.02176V1001.94a26.178,26.178,0,0,0-3.02171-10.78243,25.05369,25.05369,0,0,0-12.73883-11.3259,96.54484,96.54484,0,0,0,20.52118-14.63009,142.83733,142.83733,0,0,1-1.47808,20.93436c-.30437,1.93477-.674,3.826-1.13045,5.63024,0,0,4.97824-5.02163,8.60843-15.84744a65.99392,65.99392,0,0,0,2.32618-8.91281c3.26081-16.99966,3.4999-23.41259,3.4999-23.41259l.02176-.02176a21.165,21.165,0,0,0,5.93462-2.91291,28.79418,28.79418,0,0,0-3.45638,12.8475v.04352A30.12536,30.12536,0,0,0,2155.1321,956.98425Z"/><g class="cls-2"><path class="cls-10" d="M2139.328,986.13589a31.09244,31.09244,0,0,1-6.30427,5.02163,25.05369,25.05369,0,0,0-12.73883-11.3259,96.54484,96.54484,0,0,0,20.52118-14.63009A142.83733,142.83733,0,0,1,2139.328,986.13589Z"/></g><g class="cls-2"><path class="cls-10" d="M2158.58848,940.65862a28.79418,28.79418,0,0,0-3.45638,12.8475v.04352a84.687,84.687,0,0,1-8.32608,22.36905,65.99392,65.99392,0,0,0,2.32618-8.91281c3.26081-16.99966,3.4999-23.41259,3.4999-23.41259l.02176-.02176A21.165,21.165,0,0,0,2158.58848,940.65862Z"/></g><path class="cls-16" d="M2136.37161,1001.80939l-.32613.15219V1001.94Q2136.20868,1001.87467,2136.37161,1001.80939Z"/><path class="cls-13" d="M2140.80612,965.20153a96.54484,96.54484,0,0,1-20.52118,14.63009,86.09813,86.09813,0,0,1-17.60827,7.21726s-14.82566,4.93472-18.5214-9.21718c-3.19552-12.26065-3.78251-20.58659-9.71712-29.47764,0,0-2.5-3.76075-5.36966-5.06515-2.84762-1.326-.652-5.15205,1.04342-6.99979a14.50664,14.50664,0,0,0,2.95669-5.47819,33.30827,33.30827,0,0,0,1.43456-10.391c0-9.43465.34816-29.80377,5.69579-46.69477,0,0,5.76054,34.521,40.52066,40.99911a62.162,62.162,0,0,1-9.78241-33.54276s8.21729,26.543,22.02156,35.62972c0,0,5.67349,3.06523,6.36928,8.47814,0,0,.06528.86947.17408,2.413C2139.93679,933.61518,2140.95844,949.48451,2140.80612,965.20153Z"/><path class="cls-13" d="M2167.89269,927.072a28.51435,28.51435,0,0,1-3.02171,7.08669,21.72272,21.72272,0,0,1-6.2825,6.5,21.165,21.165,0,0,1-5.93462,2.91291l-.02176.02176s.54347-8.326.9784-20.10828c.15205-3.78251.30411-7.93467.41291-12.26064,0,0,7.80411-7.21726,12.478-2.67382C2169.89275,911.85487,2169.89275,920.05026,2167.89269,927.072Z"/><path class="cls-16" d="M2216.91325,898.28983c-1.39105,20.97787-20.26033,37.04279-20.26033,37.04279,10.47792,33.06444-10.47793,42.84684-10.47793,42.84684a47.45443,47.45443,0,0,1-2.435,15.99977,26.73642,26.73642,0,0,1-25.15153,18.47787c-7.76059,14.9127-32.80359,20.15166-32.80359,20.15166-.8696,4.02174-7.15211,15.4563-13.69547,19.65185a16.02425,16.02425,0,0,0-3.91307,3.76075,39.28543,39.28543,0,0,0-5.82582,12.06493.06739.06739,0,0,0-.02176.04352c3.71723-36.80356,16.9998-46.17292,16.9998-46.17292,3.93456-13.02145,11.67339-18.17363,16.71691-20.21694v.02163h.02176l.30437-.15219a.166.166,0,0,0,.10854-.04339,17.24,17.24,0,0,1,4.34773-1.10869l.13056-.84784c.17408-1.1087.36939-2.19563.587-3.21728.13056-.6739.28261-1.326.43467-1.95654.13056-.58685.28261-1.15208.4129-1.69554.2176-.76094.43494-1.52174.65227-2.23915.15232-.4348.28288-.86947.43467-1.30427.17408-.52171.36992-1.04341.56522-1.54349.17408-.5.36992-.97827.587-1.45646a32.70718,32.70718,0,0,1,1.848-3.80427c.43467-.7608.86933-1.47821,1.30427-2.13034a20.36166,20.36166,0,0,1,1.30426-1.80435c.2176-.28261.45643-.54347.674-.80432.21733-.26085.43467-.50008.63051-.71741a14.2689,14.2689,0,0,1,1.28224-1.28251c.19584-.19571.41317-.36965.60875-.54347a13.84049,13.84049,0,0,1,4.95648-2.9348,74.46667,74.46667,0,0,1-2.10859-15.391,30.12536,30.12536,0,0,1,0-3.43461v-.04352a28.79418,28.79418,0,0,1,3.45638-12.8475,21.72272,21.72272,0,0,0,6.2825-6.5c.32614-.54346.65227-1.10856.95638-1.7173.15232-.30438.30464-.60862.43493-.913a33.7364,33.7364,0,0,0,1.6304-4.4564c2.00006-7.02169,2.00006-15.21708-1.39131-18.5214-4.67386-4.54344-12.478,2.67382-12.478,2.67382-.1088,4.326-.26086,8.47813-.41291,12.26064-.02176.587-.04352,1.17384-.06528,1.73907-.087,2.28253-.17408,4.43477-.26112,6.36941-.04325.86961-.08677,1.71745-.13029,2.5-.065,1.45645-.1303,2.78248-.19558,3.95645-.02176.30437-.04352.58685-.04352.84784a1.643,1.643,0,0,0-.02176.326q-.03264.58692-.06528,1.10869c-.02176.26086-.02176.52171-.04352.76081-.02176.36965-.04352.71741-.06528,1.02178,0,.174-.02149.326-.02149.45643a2.369,2.369,0,0,0-.02176.36965c-.02176.4348-.04352.65214-.04352.65214s-.23909,6.41293-3.4999,23.41259a65.99392,65.99392,0,0,1-2.32618,8.91281c-3.63019,10.82581-8.60843,15.84744-8.60843,15.84744.45642-1.80421.82608-3.69547,1.13045-5.63024a142.83733,142.83733,0,0,0,1.47808-20.93436c.04352-3.826,0-7.65205-.065-11.34765,0-.43467-.02176-.86947-.02176-1.326-.02176-.326-.02176-.63037-.02176-.93475-.02176-.89122-.06528-1.76082-.08678-2.60866-.1088-3.58681-.26111-6.95641-.39167-9.95622-.0215-.39142-.04326-.76094-.065-1.13046-.02176-.26085-.04352-.5217-.04352-.78256-.02176-.34789-.04325-.67389-.065-1-.087-1.65216-.17408-3.15214-.26112-4.45641-.04352-.5217-.06528-1.02178-.1088-1.5-.0215-.47832-.04326-.913-.08678-1.326a4.6259,4.6259,0,0,0-.04352-.587,4.23206,4.23206,0,0,0-.04325-.54347c-.1088-1.54349-.17408-2.413-.17408-2.413-.69579-5.41291-6.36928-8.47814-6.36928-8.47814-13.80427-9.08675-22.02156-35.62972-22.02156-35.62972a62.162,62.162,0,0,0,9.78241,33.54276c-34.76012-6.47808-40.52066-40.99911-40.52066-40.99911-5.34763,16.891-5.69579,37.26012-5.69579,46.69477a33.30827,33.30827,0,0,1-1.43456,10.391c-15.69526-35.76014-17.76059-66.60733-4.913-90.08507a65.62341,65.62341,0,0,1,6.65216-9.89107,78.65947,78.65947,0,0,1,19.8254-17.08657c37.45569-23.15174,81.52-4.413,94.80259,3.4999a21.15118,21.15118,0,0,1,10.47793,21.65177C2215.28284,842.16069,2218.32658,877.33385,2216.91325,898.28983Z"/><path class="cls-17" d="M1578.05814,988.19881a57.86362,57.86362,0,0,0,68.80282,56.89008v119.71489H1293.651V1045.08889a57.92275,57.92275,0,1,0,0-113.80192V811.59383h122.8888a57.94444,57.94444,0,1,0,107.41073,0H1646.861V931.287a57.967,57.967,0,0,0-68.80282,56.91184Z"/><path class="cls-7" d="M1906.72,811.6c-24.56006,33.39-59.47,74.32-110.90991,127.52-40.15015,41.52-73.36011,82.62-98.56006,120.99-25.18994,38.37-42.37,74.03991-50.39,104.70007V1045.09a57.23111,57.23111,0,0,1-10.87,1.04,57.94,57.94,0,1,1,10.87-114.84V811.6h122.91a57.93464,57.93464,0,1,1,110.71-11.47,56.625,56.625,0,0,1-3.30005,11.47Z"/><path class="cls-18" d="M1646.86,1164.81006v258.51A144.8279,144.8279,0,0,1,1642.29,1459.45a149.54741,149.54741,0,0,1-20.93005,46.22c-2.87,4.26-5.96,8.37012-9.22,12.3501H1328.37c-3.26-3.98-6.35-8.09009-9.22-12.3501a149.54718,149.54718,0,0,1-20.93-46.22,144.8279,144.8279,0,0,1-4.57-36.12988v-258.51Z"/><path class="cls-18" d="M1646.86,1264.37v158.95007A144.8279,144.8279,0,0,1,1642.29,1459.45a149.54741,149.54741,0,0,1-20.93005,46.22c-2.87,4.26-5.96,8.37012-9.22,12.3501-32.19006,39-83.76,64.28-141.88,64.28-3.77,0-7.52-.11011-11.23-.32007-53.51-3.02-100.56006-27.49-130.66-63.96-3.26-3.98-6.35-8.09009-9.22-12.3501a149.54718,149.54718,0,0,1-20.93-46.22,144.8279,144.8279,0,0,1-4.57-36.12988V1264.37Z"/><path class="cls-13" d="M1901.72435,1304.25959c-1.84787-1.73907-10.49982-4.0216-11.7607-4.67374a4.42559,4.42559,0,0,0-2.60853-.39128c-17.65193,2.19563-19.4779,0-19.4779,0-2.80425-2.69557.4348-4.97824,2.087-5.326,1.652-.34789,6.28237-2.34781,9.7824-3.413,3.49989-1.08693,5.63024-.39128,12.49974-.04352,6.86936.34789,21.99953-2.08683,34.45574-1.6304a122.51912,122.51912,0,0,0,23.4126-1.5216l-50.84679,22.34729C1899.65915,1309.25959,1903.50694,1305.93351,1901.72435,1304.25959Z"/><path class="cls-6" d="M2000.07007,534.17A433.4731,433.4731,0,0,1,1983.51,652.97l-.03.02a440.91874,440.91874,0,0,1-17.06006,48.72c-10.76,30.26-24.76,62.41-59.69995,109.89h-29.54a56.625,56.625,0,0,0,3.30005-11.47,57.9365,57.9365,0,0,0,.92-10.27,57.23215,57.23215,0,0,0-1.04-10.94,57.93463,57.93463,0,1,0-110.59,32.68H1646.86V458.36H1993.4q3.36,18.855,5.03992,38.16.75,8.565,1.15015,17.2Q2000.06982,523.89,2000.07007,534.17Z"/><g class="cls-19"><path class="cls-7" d="M2000.07007,534.17A433.4731,433.4731,0,0,1,1983.51,652.97l-.03.02a440.91874,440.91874,0,0,1-17.06006,48.72c-10.76,30.26-24.76,62.41-59.69995,109.89-24.56006,33.39-59.47,74.32-110.90991,127.52-40.15015,41.52-73.36011,82.62-98.56006,120.99-25.18994,38.37-42.37,74.03991-50.39,104.70007v258.51A144.8279,144.8279,0,0,1,1642.29,1459.45a149.54741,149.54741,0,0,1-20.93005,46.22c-2.87,4.26-5.96,8.37012-9.22,12.3501-32.19006,39-83.76,64.28-141.88,64.28-1.16,0-2.32007-.01-3.47-.03-.73-.01-1.45-.03-2.17-.05-1.17-.03-2.33-.08-3.49-.13-.70007-.02991-1.4-.07-2.1-.11,104.45-13.96,139.98-86.39,152.06006-134.63a.03694.03694,0,0,0,.00989-.02991,88.2327,88.2327,0,0,0,6.64-17.92017s-.22-9.68994-.41992-25.90991v-.14c-.37012-30.43006-.66016-83.68006.67993-138.98.75-30.96009,2.01-62.55994,4.06006-91.16.18994-2.72.53992-5.52,1.03-8.3999,3.00989-17.67,11.46-38.40015,23.7699-61.12012C1696.5,1012.05,1814.79,890.32,1886.32007,802.57c21.85986-26.79,41.35986-61.17005,49.87988-80.65,61.25-140.04,63.19006-205.66,63.39014-208.2Q2000.06982,523.89,2000.07007,534.17Z"/></g><path class="cls-20" d="M1842.76907,1397.75765a57.95427,57.95427,0,0,1-58.39018,73.62888c-.39128-.02176-.80432-.04339-1.21736-.06515-.56509-.04351-1.10856-.087-1.67379-.15218a3.37169,3.37169,0,0,1-.67389-.06528,24.20441,24.20441,0,0,1-2.52176-.326c-.04339.02176-.06515,0-.08691,0-.587-.087-1.17384-.19571-1.76083-.30438-.8696-.15218-1.69568-.32613-2.54338-.5217-.71742-.17395-1.41307-.3479-2.13049-.54347-.54346-.15219-1.08693-.30437-1.6304-.47832-.69565-.19557-1.39117-.43467-2.0652-.67389q-.81519-.26073-1.6304-.58686c-.69552-.26085-1.39117-.5217-2.06507-.82608h-.02176a58.0598,58.0598,0,0,1-34.95582-59.62917l-118.23669,33.4341-96.12836-339.906L1633.2951,1067.308a57.945,57.945,0,1,0,103.34574-29.21679l2.17387-.60861.26085-.08691,107.476-30.39076,8.36934-2.36944,96.10673,339.9059-118.25845,33.43409A57.7827,57.7827,0,0,1,1842.76907,1397.75765Z"/><g class="cls-12"><polygon class="cls-10" points="1608.709 1431.953 1730.45 1397.515 1729.406 1407.21 1611.165 1440.648 1608.709 1431.953"/></g><g class="cls-12"><path class="cls-10" d="M1746.70586,1058.09085c8.8259,22.63,7.23888,62.04226-37.67316,79.65054-5.739,2.26077-12.04318,2.54339-18.15174,2.54339a66.88706,66.88706,0,0,1-64.10747-48.54237c-.97813-3.43475-3.565-14.78241-4.71725-21.26049l11.23886-3.17389a57.93827,57.93827,0,1,0,113.41076-9.21718Z"/></g><g class="cls-12"><path class="cls-10" d="M1842.76907,1397.75765a57.95427,57.95427,0,0,1-58.39018,73.62888c-.39128-.02176-.80432-.04339-1.21736-.06515-.56509-.04351-1.10856-.087-1.67379-.15218a3.37169,3.37169,0,0,1-.67389-.06528,24.20441,24.20441,0,0,1-2.52176-.326c-.04339.02176-.06515,0-.08691,0-.587-.087-1.17384-.19571-1.76083-.30438q-1.27176-.22827-2.54338-.5217c-.71742-.17395-1.41307-.3479-2.13049-.54347-.54346-.15219-1.08693-.30437-1.6304-.47832-.69565-.19557-1.39117-.43467-2.0652-.67389q-.81519-.26073-1.6304-.58686c-.69552-.26085-1.39117-.5217-2.06507-.82608a45.02172,45.02172,0,0,0,5.69553.34776c4.52155,0,9.91283.413,14.45614,0,15.391-1.3913,30.93422-5.58685,45.45564-29.65158,6.80422-11.26062,7.97806-24.76025,4.41288-37.41218a49.03511,49.03511,0,0,0-8.478-16.80408l-7.95643-10.19531,122.34533-34.58631L1846.55158,1007.005l8.36934-2.36944,96.10673,339.9059-118.25845,33.43409A57.7827,57.7827,0,0,1,1842.76907,1397.75765Z"/></g><path class="cls-20" d="M1746.70586,1058.09085a45.07627,45.07627,0,0,0-5.30424-9.978c-2.60867-3.56517-2.913-6.30427-4.8912-10.17368l2.30429-.45656-2.17387.60861a57.49027,57.49027,0,0,1,9.99974,19.76052C1746.66234,1057.93866,1746.6841,1058.00394,1746.70586,1058.09085Z"/><path class="cls-13" d="M2123.524,1263.7388c-2.23915,1.13032-5.04352,2.34768-8.28256,3.67384-36.08588,14.60832-127.86677,39.6078-138.17088,44.19463-11.26062,5-19.84742,18.17363-27.30377,26.08641-7.45635,7.91291-10.47806,13.84753-10.47806,13.84753s-2.21725,7.45648-3.60856,11.76069c-1.39131,4.326-.413,5.19558-.413,5.19558a32.09666,32.09666,0,0,1,3.02171,7.739c1.1956,4.30422-.4348,6.565-1.06518,7.21726a.22371.22371,0,0,1-.36965-.02176c-1.13032-1.71744-7.93454-11.93451-9.54331-13.02145-1.73907-1.19573-.9999-3.73912-.9999-3.73912s.78257-3.67384,2.34782-11.13019c1.56512-7.47811-2.17387-6.26075-2.17387-6.26075s-6.9564,12.45622-7.60854,13.41273a20.09008,20.09008,0,0,0-1.43482,3.10861l-2.15211,6.23912c-4.17379,12.39094-8.9128,11.52147-9.97811,11.13019a.24325.24325,0,0,1-.152-.30437c1.652-3.93469,3.71722-16.80395,3.6737-19.41262a8.75864,8.75864,0,0,1,1.174-4.54344s5.63024-11.891,6.56512-14.58657c.913-2.71733.41291-3.54341.41291-3.54341s-13.391,14.19528-14.84742,15.304a9.16,9.16,0,0,0-2.32606,2.913s-5.71728,12.9344-13.63019,21.78206c-6.93464,7.76072-10.565,5.58686-11.34752,4.93472a.22029.22029,0,0,1-.04352-.32613c5.47819-6.80422,14.60846-27.34716,15.60835-29.97759a30.21344,30.21344,0,0,1,2.413-4.913s13.63019-17.69531,14.45627-21.65177c.80432-3.95632-3.15213-1.76082-3.15213-1.76082-4.99987,6.06517-16.304,18.17363-16.304,18.17363-10.86933,14.217-18.49963,16.17358-21.93425,16.17358a7.04376,7.04376,0,0,1-1.34778-.13043.48971.48971,0,0,1-.30438-.78269l16.82572-23.65169,18.1735-27.23849.04352-.02176,50.84679-22.34729,1.04341-.45656s113.32386-54.39021,121.23651-56.2597c7.9129-1.84774,9.326-3.2608,9.326-3.2608l3.08672-4.30422,5.5-7.69557a96.05615,96.05615,0,0,0,7.82614,11.19547,100.49532,100.49532,0,0,0,9.28245,10.065,86.62656,86.62656,0,0,0,27.5645,17.86913C2136.06724,1258.4997,2123.524,1263.7388,2123.524,1263.7388Z"/><path class="cls-14" d="M2194.17468,1215.26145v.02176c-11.56513,25.69513-21.97777,44.49913-21.97777,44.49913-2.413.19558-4.73915.28262-7.02155.28262a81.37753,81.37753,0,0,1-19.52156-2.26091h-.04325a77.91432,77.91432,0,0,1-10.63024-3.39123,86.62656,86.62656,0,0,1-27.5645-17.86913,100.49532,100.49532,0,0,1-9.28245-10.065,96.05615,96.05615,0,0,1-7.82614-11.19547c-1.32576-2.19563-1.95627-3.52166-1.95627-3.52166s35.06423-84.38955,73.868-121.867c.02176-.02176.02176-.02176.02176-.04352l.02176-.02162a76.88846,76.88846,0,0,1,18.10822-13.49977.06739.06739,0,0,1,.04352-.02176c8.804-4.43464,17.56475-5.49981,25.9126-1.67392a32.64418,32.64418,0,0,1,8.02144,5.34776,27.00151,27.00151,0,0,1,6.86923,9.84769C2233.152,1117.95925,2212.2614,1175.0449,2194.17468,1215.26145Z"/><path class="cls-13" d="M2074.9381,1804.09706l-5.43467,14.65185a80.46528,80.46528,0,0,0-10.10854-4.63035c-.02176,0-.02176,0-.04352-.02176a67.51372,67.51372,0,0,0-30.69473-4.06512l1.04341-11.95627C2042.178,1796.11887,2063.74263,1801.92319,2074.9381,1804.09706Z"/><path class="cls-15" d="M2066.85111,1856.53073a52.97079,52.97079,0,0,0-.28235,9.21718c.04352,1.326.17381,2.67382.34763,4.04336,1.89152,14.26057,4.17392,26.6734,4.60885,36.82532.04352,1.1087.06528,2.19563.06528,3.239h-170.8662c.6739-3.4999,4.28259-19.52129,17.76046-30.67324a47.36932,47.36932,0,0,1,21.26049-9.97811c5.91286-1.1956,11.71718-2.36944,17.28227-3.5868,16.4562-3.52166,31.06452-7.28254,41.19482-12.739,6.36941-3.43461,10.95624-7.54326,13.15187-12.67355,5.82608-13.63019,4.19568-20.60836,4.19568-20.60836l-4.54357-5.239s1.13045-.49994,3.152-1.15221a65.48554,65.48554,0,0,1,12.10859-2.89115c.78256-.10867,1.58688-.19571,2.36971-.28261a67.51372,67.51372,0,0,1,30.69473,4.06512c.02176.02176.02176.02176.04352.02176a80.46528,80.46528,0,0,1,10.10854,4.63035,60.15626,60.15626,0,0,1,8.56517,5.60848l1.60864,4.84781-4.19568,3.65209-4.71739,8.04333a52.08421,52.08421,0,0,0-3.13024,10.54321C2067.32956,1853.00908,2067.047,1854.70463,2066.85111,1856.53073Z"/><path class="cls-15" d="M2071.59052,1909.85564c0,9.49979-71.45528,8.91293-87.45491,8.67371-2.02168-.04339-3.15214-.06515-3.15214-.06515l-59.56389-5.86947-20.80393-2.04344s.02176-.19571.08691-.54347c0-.04352.02176-.0869.02176-.15218Z"/><rect class="cls-21" x="1900.61565" y="1909.85564" width="170.97487" height="13.15187"/><path class="cls-15" d="M2322.19377,1909.85564H2151.37135c.8911-4.86945,7.6303-34.26018,38.99906-40.65135,16.58662-3.39123,32.3039-6.49985,44.86866-10.67363,1.15221-.39128,2.26064-.78256,3.34757-1.17384a1.70078,1.70078,0,0,0,1.10869-1.7392c-.69552-10.10841-3.239-15.39089-4.34773-17.23876a8.91747,8.91747,0,0,0-.49995-.78256l-6.34752-2.80424a49.51059,49.51059,0,0,1,10.32587-8.45638,65.95834,65.95834,0,0,1,25.043-9.39112,72.2391,72.2391,0,0,1,15.17355-.78256,85.924,85.924,0,0,1,17.91265,2.84776l-2.23915,5.10854,3.95659,4.69562-4.80417,4.58683a56.1046,56.1046,0,0,0,2.80411,14.93446c.065.21734.1303.45656.21734.6739.06528.1957.13056.39128.2176.60861.065.23923.17354.50008.26058.78269a.23813.23813,0,0,1,.04352.08691c.47819,1.30427,1.02166,2.65219,1.6304,4v.02163a57.50088,57.50088,0,0,0,3.63046,6.65216c4.67387,7.26065,9.17366,13.86916,13.065,19.93433a37.24587,37.24587,0,0,1,5.54321,15.49969v.0869c.15232,1.28264.28287,2.52176.39141,3.73913C2321.99819,1903.76883,2322.19377,1906.921,2322.19377,1909.85564Z"/><path class="cls-21" d="M2151.24079,1909.85564h.13056c-.087.45656-.13056.69565-.13056.69565Z"/><path class="cls-21" d="M2151.37135,1909.85564c-.087.45656-.13056.69565-.13056.69565v12.45622h170.953v-13.15187Z"/><path class="cls-22" d="M2283.28148,1799.33629a40.99676,40.99676,0,0,1-7.65205,1.97816c-11.67339,2.36957-32.3469,5.69552-39.97719,11.71717a26.11124,26.11124,0,0,1-3.174,1.73907c-2.63029,1.17384-6.06491,2.0652-6.67366-.913-1.04341-5-2.60853-5.06515-3.21728-5.52171a6.12,6.12,0,0,1-2.10858-4.30422c-.28288-2.52163-3.00022-1.86949-4.28273-4.69549a6.172,6.172,0,0,1,.04352-4.65211,10.31261,10.31261,0,0,1,3.28257-4.28259c5.13029-4.152,17.82587-12.82574,43.23825-16.15182,1.45632-.19557,2.95643-.36952,4.52155-.52171.43493-.04352.89136-.0869,1.34779-.13042a6.00651,6.00651,0,0,1,4.63035,1.99992c1.71744,2.17386.50021,5.95637,1.65216,7.21725C2276.08586,1784.07569,2288.39029,1796.81453,2283.28148,1799.33629Z"/><path class="cls-22" d="M2089.39437,1791.14076c.43467,1.9564-1.82624,13.54316-8.4999,13.76062a29.90493,29.90493,0,0,1-5.95637-.80432c-11.19547-2.17387-32.76007-7.97819-45.238-6.02165a18.31154,18.31154,0,0,0-1.9568.36952s-12.91264,4-11.04288-1.93478c1.84746-5.93461.28234-6.80421-.06528-7.58677-.3479-.78256-.80459-2.826.39114-5.739,1.174-2.89114-1.95627-3.49989-1.6304-7.19549,0,0,.41291-5.93462,8.60843-8.08673a6.13424,6.13424,0,0,1,.674-.15218c7.13035-1.56512,24.52129-1.23912,47.1293,4.93472,3.65221.99989,7.45648,2.15211,11.36928,3.49989q2.57616.84785,5.2176,1.82611a6.219,6.219,0,0,1,3.52139,4.4564C2092.41581,1785.66257,2088.93794,1789.206,2089.39437,1791.14076Z"/><path class="cls-13" d="M800.09523,1798.51021l-1.4347,14.93445-.32613,3.39123a87.18825,87.18825,0,0,0-11.04329,3.52166c-2.80424,1.08693-5.54333,2.17387-8.065,3.08685a36.57539,36.57539,0,0,1-18.97795,2.04344c-3.30419-.34776-8.49977-2.73909-13.04321-3.15213-.36952-.02176-.739-.04339-1.06517-.04339l-.8696-10.30424-.45643-5.5651C768.50887,1811.64032,789.35631,1803.87959,800.09523,1798.51021Z"/><g class="cls-12"><path class="cls-10" d="M800.09523,1798.51021l-1.4347,14.93445c-20.39089,9.45628-53.36855-1.45658-53.36855-1.45658h-.02176l-.45643-5.5651C768.50887,1811.64032,789.35631,1803.87959,800.09523,1798.51021Z"/></g><path class="cls-14" d="M827.812,1538.34176l-20.02137,255.75543a68.34875,68.34875,0,0,1-7.69544,4.413c-10.73892,5.36938-31.58636,13.13011-55.28144,7.91277-1.69568-.36952-3.413-.80432-5.15205-1.326a77.054,77.054,0,0,1-17.58665-7.739l4.47816-252.3642-16.69529-65.803,20.34737-167.54,3.02171-24.97772c1.913-.28261,3.78251-.587,5.60862-.89136,25.60809-4.41288,41.173-11.13019,49.28153-15.56483l4.71726,31.82545Z"/><g class="cls-12"><path class="cls-10" d="M738.83566,1285.78171l-12.28241,259.21208-16.69529-65.803,20.34737-167.54,3.02171-24.97772C735.14005,1286.39046,737.00955,1286.08609,738.83566,1285.78171Z"/></g><path class="cls-7" d="M1304.5173,930.2559a58.19771,58.19771,0,0,0-10.86629,1.0324V811.59383H1028.83045c71.17241,98.43266,215.539,229.99516,264.82056,353.20995h0V1045.09844A57.93553,57.93553,0,1,0,1304.5173,930.2559Z"/><path class="cls-7" d="M1646.861,811.59383H1523.95054a57.92269,57.92269,0,1,1-107.41073,0H1293.651V458.362h122.8888a57.94444,57.94444,0,1,0,107.41073,0H1646.861Z"/><path class="cls-7" d="M1646.86,84.42v20.73H1293.65V84.42a588.3774,588.3774,0,0,1,353.21,0Z"/><path class="cls-7" d="M1993.3963,458.36427H1646.86014V338.67113a57.94442,57.94442,0,1,0,0-113.80191V105.15432h55.02058a545.55178,545.55178,0,0,1,53.41194,26.956c55.36835,31.86884,103.71514,72.73752,142.47523,120.34527C1946.35378,312.063,1979.89654,382.21376,1993.3963,458.36427Z"/><path class="cls-6" d="M1701.88,105.15h-55.02V84.42q13.80011,4.395,27.27,9.46a1.15465,1.15465,0,0,1,.17.06.31564.31564,0,0,1,.06995.02Q1688.3349,99.21,1701.88,105.15Z"/><path class="cls-6" d="M1293.65,84.42v20.73h-55.02A561.21617,561.21617,0,0,1,1293.65,84.42Z"/><path class="cls-7" d="M1362.45,281.76A57.92207,57.92207,0,0,1,1304.52,339.69a57.23551,57.23551,0,0,1-10.87-1.02V458.36H1170.74a57.90318,57.90318,0,0,0-53.11-79.65,5.63181,5.63181,0,0,0-.58-.02A57.88041,57.88041,0,0,0,1070.61,401.97s-.0199,0,0,.03a50.04619,50.04619,0,0,0-3.72,5.65,57.47547,57.47547,0,0,0-7.78,28.98,58.39632,58.39632,0,0,0,.87,9.97,56.33213,56.33213,0,0,0,3.3501,11.76H947.11c27.63-155.8,139.13-286.42,291.52-353.21h55.02V224.87A57.879,57.879,0,0,1,1362.45,281.76Z"/><path class="cls-6" d="M1293.65,458.36V811.6H1028.83008C1019.7,798.94,1011.31,786.86,1003.9,775.38a423.82041,423.82041,0,0,1-27.85-50.15,403.78738,403.78738,0,0,1-21.37-55.8c-1-3.31-1.94-6.59-2.83-9.81.02-.02,0-.02,0-.02-2.31995-8.5-4.25-16.72-5.85-24.62l-.01-.02c-2.66-13.13-4.43-25.34-5.55-36.4V534.17a432.66676,432.66676,0,0,1,6.67-75.81h116.22009a56.33213,56.33213,0,0,1-3.3501-11.76,58.39632,58.39632,0,0,1-.87-9.97,57.47547,57.47547,0,0,1,7.78-28.98,50.04619,50.04619,0,0,1,3.72-5.65c-.0199-.03,0-.03,0-.03a57.88041,57.88041,0,0,1,46.44006-23.28,5.63181,5.63181,0,0,1,.58.02,57.90318,57.90318,0,0,1,53.11,79.65Z"/><path class="cls-17" d="M1715.66392,281.757a57.967,57.967,0,0,1-68.803,56.91184V458.362H1523.95054a57.92269,57.92269,0,1,1-107.41073,0H1293.651V338.66885a57.94443,57.94443,0,1,0,0-113.80191V105.152H1646.861v119.7149a57.8637,57.8637,0,0,1,68.803,56.89007Z"/><path class="cls-13" d="M1127.13186,885.52924c-1.08693.26085-2.17387.54346-3.2608.82608-.6739.17394-1.34779.34789-1.99992.5217q-.88048.22829-1.69568.45656c-.39128.08691-.7608.19571-1.13046.30438-.47818.13042-.93474.26085-1.39117.36952-.39128.10866-.76093.21733-1.13045.32613-.21734.06515-.4348.10867-.63038.17381-.32613.087-.6305.17395-.89136.26086-.23909.06528-.45643.13056-.65213.17394-10.76067-17.34742-23.543-22.76032-30.82543-24.456l-.04352-.02176s.36952-1.13033,1.02179-2.97819c2.3912-6.73894,8.43462-22.99943,13.08659-28.34719a10.03454,10.03454,0,0,1,2.78262-2.13034h3.97821a58.01817,58.01817,0,0,1,22.78209,54.5205Z"/><path class="cls-20" d="M1368.64849,882.68148a57.9393,57.9393,0,1,1-98.95436,56.10751l-93.34588,79.93315L1098.50206,927.811a58.90779,58.90779,0,0,0,8.93457-6.30414,57.9393,57.9393,0,0,0-75.36795-88.02,58.7758,58.7758,0,0,0-7.58691,7.86939l-73.56361-85.93291-4.26082-4.97811-.02176-.02176L1085.63267,631.4042l129.28-110.69343.02176-.02162,77.86795,90.93278a57.13225,57.13225,0,0,1,7.565-7.84763,57.93927,57.93927,0,1,1,66.43338,94.30238l77.84619,90.91116-93.34587,79.95478A57.44759,57.44759,0,0,1,1368.64849,882.68148Z"/><g class="cls-12"><path class="cls-10" d="M1375.73532,691.79417a57.6949,57.6949,0,0,1-8.93457,6.28251l-7.2824-8.52152s8.73886-2.86952,11.08667-4.8912c19.82566-16.99966,28.10809-51.75978,12.97793-72.7159A57.95259,57.95259,0,0,1,1375.73532,691.79417Z"/></g><path class="cls-20" d="M1383.583,611.94806c-.49995-.60874-.9999-1.23912-1.5216-1.84773-.82608-.95651-1.67392-1.89139-2.54352-2.76086a20.71132,20.71132,0,0,1,2.17386,2.19563Q1382.70254,610.70894,1383.583,611.94806Z"/><g class="cls-12"><path class="cls-10" d="M1368.64849,882.68148a57.9393,57.9393,0,1,1-98.95436,56.10751l-93.34588,79.93315L1098.50206,927.811a52.3844,52.3844,0,0,0,5.04339-3.2608l73.52008,84.97653,95.73721-81.97659,3.08686,9.17379a51.4172,51.4172,0,1,0,87.80254-49.78162,50.68775,50.68775,0,0,0-15.391-12.21712l-8.63019-4.43478,100.10657-86.99808,4.86944,5.69552-93.34587,79.95478A57.44759,57.44759,0,0,1,1368.64849,882.68148Z"/></g><path class="cls-23" d="M1113.95823,891.877l-9.97811,5.58672c-11.60838-19.52129-27.56463-25.99937-37.19484-28.15148l10.04325-5.17381a3.57969,3.57969,0,0,1,1.89126-.39129c.50008.04339,1.174.08691,1.97829.21734.19558.02176.413.04352.63038.08691.21733.04352.4348.06528.67389.10879.47832.08691.97827.19558,1.52173.326.45656.10866.93475.21746,1.4347.36952.39128.1088.78269.21746,1.21736.34789a40.6268,40.6268,0,0,1,5.913,2.3912c.326.15219.65213.32613.97826.50008a43.63966,43.63966,0,0,1,3.86942,2.28253c.4348.28262.89136.587,1.326.913.45656.30437.89136.63038,1.34778.97827.36966.28261.73918.587,1.13046.89123.34789.28261.69565.56522,1.04341.8696a54.3425,54.3425,0,0,1,5.56523,5.45642c.26085.28262.52171.58686.78256.89123.69565.82608,1.41293,1.69568,2.10859,2.60867.34789.45656.69565.913,1.04354,1.39131q1.56513,2.11939,3.0651,4.56506l.26085.39129A1.8244,1.8244,0,0,1,1113.95823,891.877Z"/><path class="cls-13" d="M626.68577,1802.22743l-3.30419,11.21723h-.02176l-.91312,3.10862c-4.95635-1.41307-12.52136,1.08693-19.71686,3.80427-2.80437,1.08693-5.54347,2.17387-8.06509,3.08685a37.884,37.884,0,0,1-12.99969,2.47824h-.06528a49.72787,49.72787,0,0,1-5.91286-.4348c-2.73909-.28261-6.76082-1.97816-10.63024-2.78248l.82608-10.78243.67389-9.04336.34777-4.652C581.12159,1803.53183,604.77328,1809.59688,626.68577,1802.22743Z"/><g class="cls-12"><path class="cls-10" d="M626.68577,1802.22743l-3.30419,11.21723h-.02176c-20.39088,9.45628-56.80317-10.56509-56.80317-10.56509l.34777-4.652C581.12159,1803.53183,604.77328,1809.59688,626.68577,1802.22743Z"/></g><path class="cls-14" d="M733.227,1286.67307l-3.02171,24.97772-20.34737,167.54-9.67373,79.65054-66.15078,240.36455a57.4594,57.4594,0,0,1-7.34768,3.02157c-21.91249,7.36945-45.56418,1.3044-59.78135-3.99984-.71729-.28261-1.39118-.54346-2.06521-.80432a104.56859,104.56859,0,0,1-10.93448-4.95648l36.347-255.05991,5.04339-238.995.34789-16.217h.04339c10.82595,3.2608,31.26023,7.39107,66.23781,8.13024h.02176c10.36926.21734,22.02129.13043,35.08626-.36952,10.41277-.39128,19.84728-1.174,28.36894-2.21738,2.69557-.32614,5.30424-.69566,7.80411-1.06518Z"/><g class="cls-12"><path class="cls-10" d="M792.83445,1302.04233a391.07454,391.07454,0,0,1-62.62912,9.60846,412.59622,412.59622,0,0,1-62.95512-.30437c-43.93391-3.56518-71.95509-12.93454-71.95509-12.93454l.34789-16.217h.04339c10.82595,3.2608,31.26023,7.39107,66.23781,8.13024h.02176c10.36926.21734,22.02129.13043,35.08626-.36952a324.279,324.279,0,0,0,36.173-3.28256h.02176c28.97769-4.34773,46.21644-11.71717,54.89015-16.45619Z"/></g><path class="cls-23" d="M795.204,1265.67344s-25.15166,21.47782-98.17179,24.28219c-87.28084,3.326-111.6717-11.78245-111.6717-11.78245l-1.47821-21.17345-.47819-6.73894a68.31786,68.31786,0,0,0,14.93446,8.23891c19.28219,7.65206,74.36805,11.30414,140.49707,0,0,0,43.10783-8.9128,56.0206-20.26046l.13043,9.8912Z"/><g class="cls-9"><path class="cls-10" d="M795.204,1265.67344a46.57125,46.57125,0,0,1-7.08683,4.54344c-8.10848,4.43464-23.67344,11.15195-49.28153,15.56483-1.82611.30438-3.69561.60875-5.60862.89136h-.02176c-2.49987.36952-5.10854.739-7.80411,1.06518-8.52166,1.04341-17.95617,1.8261-28.36894,2.21738-13.065.5-24.717.58686-35.08626.36952h-.02176c-34.97758-.73917-55.41186-4.86944-66.23781-8.13024H595.643c-7.3912-2.21739-10.28248-4.02173-10.28248-4.02173l-1.47821-21.17345-.47819-6.73894a68.31786,68.31786,0,0,0,14.93446,8.23891c19.28219,7.65206,74.36805,11.30414,140.49707,0,0,0,43.10783-8.9128,56.0206-20.26046l.13043,9.8912Z"/></g><path class="cls-15" d="M720.336,1886.31261H542.14416s-.17394-4.28245,4.54331-14.76051c4.71726-10.49982,8.04334-28.99945,8.56505-38.78185s2.84776-10.84758,7.3912-10.43454c.78256.06528,1.58688.21747,2.413.36965,3.86942.80432,7.89115,2.49987,10.63024,2.78248a49.72787,49.72787,0,0,0,5.91286.4348h.06528a37.884,37.884,0,0,0,12.99969-2.47824c2.52162-.913,5.26072-1.99992,8.06509-3.08685,7.1955-2.71734,14.76051-5.21734,19.71686-3.80427a7.10352,7.10352,0,0,1,1.56526.60861c6.5216,3.47827,8.28243,10.82595,13.76062,17.69532,5.45642,6.86949,23.76035,19.9127,36.56446,22.23862,1.76083.32613,3.67384.63051,5.63025.95651h.02176c8.26067,1.32616,17.804,2.76085,24.76038,5.19557a20.97655,20.97655,0,0,1,7.89115,4.326C719.50994,1874.57381,720.336,1881.20408,720.336,1886.31261Z"/><rect class="cls-21" x="542.14416" y="1886.31261" width="178.19186" height="11.54323"/><path class="cls-21" d="M679.96354,1858.04307a29.95407,29.95407,0,0,0-18.8474,6.84773c-40.173-11.34765-58.39-44.52089-58.39-44.52089v-.02176c7.99982-3.02158,16.4562-5.78243,21.28212-3.19553,6.5216,3.47814,8.28243,10.82582,13.76062,17.69532,5.45643,6.86936,23.76035,19.91257,36.56447,22.23862C676.09412,1857.41269,678.00714,1857.71693,679.96354,1858.04307Z"/><path d="M602.70752,1838.49707a.27124.27124,0,0,1-.18945-.46582c.12011-.11816,12.29345-11.69727,32.20605-6.5332a.27144.27144,0,1,1-.13672.52539c-19.60547-5.084-31.57178,6.28125-31.69043,6.39648A.26911.26911,0,0,1,602.70752,1838.49707Z"/><path d="M616.77393,1853.12793a.27145.27145,0,0,1-.20313-.45215,30.02,30.02,0,0,1,9.26465-6.34863,36.95593,36.95593,0,0,1,22.40088-2.4336.27218.27218,0,0,1-.09961.53516,36.42967,36.42967,0,0,0-22.07715,2.39258,29.40492,29.40492,0,0,0-9.08252,6.21582A.27036.27036,0,0,1,616.77393,1853.12793Z"/><path d="M633.90381,1862.541a.27145.27145,0,0,1-.2041-.45118,27.32256,27.32256,0,0,1,7.51367-5.47461c.57861-.32324,1.21-.624,1.75-.874a36.39572,36.39572,0,0,1,20.28076-2.78418.27167.27167,0,0,1,.23242.30567.27781.27781,0,0,1-.30566.23339,35.82471,35.82471,0,0,0-19.98047,2.73829c-.5293.24609-1.14893.54-1.71973.85937a27.34927,27.34927,0,0,0-7.36279,5.35547A.27265.27265,0,0,1,633.90381,1862.541Z"/><path class="cls-15" d="M904.89743,1886.31261h-178.192s-.17395-4.28245,4.54344-14.76051c4.71725-10.49982,8.0432-28.99945,8.565-38.78185.47819-8.97795,2.47811-10.60836,6.3259-10.47793.32613,0,.69565.02163,1.06517.04339,4.54344.413,9.739,2.80437,13.04321,3.15213a36.57539,36.57539,0,0,0,18.97795-2.04344c2.52163-.913,5.26072-1.99992,8.065-3.08685a87.18825,87.18825,0,0,1,11.04329-3.52166c4.04336-.91312,7.65205-1.06517,10.239.326,6.5216,3.47827,8.28243,10.82595,13.76049,17.69532,5.45643,6.86949,23.76035,19.9127,36.56447,22.23862,1.76082.32613,3.67384.63051,5.63037.95651h.02176c12.26051,1.97829,27.36892,4.15216,32.6514,9.52155C904.07135,1874.57381,904.89743,1881.20408,904.89743,1886.31261Z"/><rect class="cls-21" x="726.70544" y="1886.31261" width="178.19199" height="11.54323"/><path class="cls-21" d="M864.53716,1858.04307a29.95405,29.95405,0,0,0-18.84739,6.84773c-40.173-11.34765-58.39-44.52089-58.39-44.52089v-.02176c7.99982-3.02158,16.45619-5.78243,21.28212-3.19553,6.5216,3.47814,8.28243,10.82582,13.76061,17.69532,5.45643,6.86936,23.76036,19.91257,36.56447,22.23862C860.66775,1857.41269,862.58076,1857.71693,864.53716,1858.04307Z"/><path d="M787.28125,1838.49707a.27124.27124,0,0,1-.18945-.46582c.1206-.11816,12.29492-11.69727,32.20605-6.5332a.27144.27144,0,1,1-.13672.52539c-19.60644-5.084-31.57177,6.28125-31.69043,6.39648A.26911.26911,0,0,1,787.28125,1838.49707Z"/><path d="M801.34766,1853.12793a.27145.27145,0,0,1-.20313-.45215,30.02,30.02,0,0,1,9.26465-6.34863,36.97319,36.97319,0,0,1,22.40039-2.4336.27218.27218,0,0,1-.09961.53516,36.43146,36.43146,0,0,0-22.07666,2.39258,29.40492,29.40492,0,0,0-9.08252,6.21582A.27036.27036,0,0,1,801.34766,1853.12793Z"/><path d="M818.47754,1862.541a.27145.27145,0,0,1-.2041-.45118,27.32256,27.32256,0,0,1,7.51367-5.47461c.58252-.32617,1.21191-.625,1.75-.874a36.39634,36.39634,0,0,1,20.28076-2.78418.27167.27167,0,0,1,.23242.30567.27752.27752,0,0,1-.30566.23339,35.8241,35.8241,0,0,0-19.98047,2.73829c-.52734.24414-1.14551.53808-1.71973.85937a27.34927,27.34927,0,0,0-7.36279,5.35547A.27265.27265,0,0,1,818.47754,1862.541Z"/><path class="cls-13" d="M1100.37568,831.01462c8.06149-4.30491,25.07432-3.08781,31.979-4.16187,7.86086-1.22281,13.4508-1.04812,10.48114,4.01777-6.1959,8.07618-23.0861,7.14906-24.92238,12.51839.05877,1.86407-1.5134,11.47179-6.87043,14.38322Z"/><path class="cls-13" d="M1879.50735,1060.28648l-5.26072,10.60848c-5.93461-7.52163-4.78253-17.58664-3.67384-21.543,1.10869-3.95645-1.45645-5.60861-1.45645-5.60861l-3.34785-2.28254a16.08175,16.08175,0,0,1-5.652-6.89125,10.75832,10.75832,0,0,1-.89123-5.86934,1.80673,1.80673,0,0,1,2.06507-1.54349l12.9563,16.13006Z"/><g class="cls-2"><path class="cls-24" d="M1874.24512,1071.16016a.27143.27143,0,0,1-.21289-.10254c-5.71875-7.23242-5.02735-17.09766-3.7168-21.78711,1.03516-3.7041-1.25-5.23145-1.34766-5.29492l-3.34765-2.29786a16.26856,16.26856,0,0,1-5.75391-7.00683.27183.27183,0,0,1,.14649-.35547.27466.27466,0,0,1,.35546.14648,15.7342,15.7342,0,0,0,5.5625,6.77051l3.33692,2.291c.02051.01172,2.71875,1.78808,1.57129,5.89355-1.28223,4.58985-1.96387,14.24219,3.61914,21.30274a.27144.27144,0,0,1-.21289.44043Z"/></g><path class="cls-25" d="M2636.08008,729.6l-58.43994,133.82a23.12618,23.12618,0,0,1-30.47022,11.96l-86.84985-37.91-126.26-55.13-53.9502,3.95a3.648,3.648,0,0,1-3.12988-5.91l13.52-17.07-1.17993-.52a23.07782,23.07782,0,0,1-11.95-30.47L2335.78,598.49a23.14493,23.14493,0,0,1,30.5-11.95l93.45,40.8,49.37988,21.55,95.47022,41.67,19.54,8.54A23.16632,23.16632,0,0,1,2636.08008,729.6Z"/><path class="cls-17" d="M2369.96178,624.99351,2593.4094,722.556a2.17387,2.17387,0,0,0,1.73973-3.98449L2371.7015,621.009a2.17387,2.17387,0,1,0-1.73972,3.98449Z"/><path class="cls-17" d="M2353.83834,661.92106l223.44762,97.5625a2.17387,2.17387,0,0,0,1.73973-3.98449l-223.44763-97.5625a2.17387,2.17387,0,0,0-1.73972,3.98449Z"/><path class="cls-17" d="M2337.7149,698.84861l223.44762,97.5625a2.17387,2.17387,0,1,0,1.73973-3.98449l-223.44763-97.5625a2.17387,2.17387,0,0,0-1.73972,3.98449Z"/><path class="cls-17" d="M2321.59146,735.77616l223.44762,97.5625a2.17387,2.17387,0,0,0,1.73973-3.98449l-223.44763-97.5625a2.17387,2.17387,0,0,0-1.73972,3.98449Z"/><path class="cls-25" d="M577.97,748.47l-11.15,3.06,10.45,18a4.06592,4.06592,0,0,1-4.39,6.02l-51.89-11.43-90.17,24.76L349.56,811.2a2.17351,2.17351,0,0,1-.24.06995l-15.08,4.15-47.37,13a12.88358,12.88358,0,0,1-3.77.45,12.36684,12.36684,0,0,1-4.12-.8,12.84046,12.84046,0,0,1-7.96-8.65l-21.37-77.83-2.2-8.01-20.54-74.79a12.889,12.889,0,0,1,9-15.84L340.24,614.3l105.17-28.87,36.65-10.07,9.32-2.56,35.66-9.81a12.85086,12.85086,0,0,1,15.82,9.02l18.98,69.09L569.73,669.82l17.26,62.82A12.87909,12.87909,0,0,1,577.97,748.47Z"/><path class="cls-17" d="M504.43234,606.33,277.48368,668.66235a2.09839,2.09839,0,0,1-1.1115-4.04692l226.94865-62.33231a2.09839,2.09839,0,1,1,1.11151,4.04692Z"/><path class="cls-17" d="M514.73354,643.83618,287.78488,706.16849a2.09839,2.09839,0,1,1-1.1115-4.04692L513.622,639.78926a2.09839,2.09839,0,0,1,1.1115,4.04692Z"/><path class="cls-17" d="M525.03474,681.34232,298.08609,743.67463a2.09839,2.09839,0,1,1-1.1115-4.04692L523.92324,677.2954a2.09839,2.09839,0,0,1,1.1115,4.04692Z"/><path class="cls-17" d="M535.336,718.84846,308.38729,781.18077a2.09839,2.09839,0,1,1-1.1115-4.04692l226.94866-62.33231a2.09839,2.09839,0,0,1,1.1115,4.04692Z"/><g class="cls-9"><path class="cls-10" d="M806.74726,1189.84893c-1.76083,26.02126-11.891,48.39031-11.891,48.39031-12.91277,11.34766-56.0206,20.26046-56.0206,20.26046-66.129,11.30414-121.21488,7.65206-140.49707,0a70.30119,70.30119,0,0,1-32.41244-26.369,6.189,6.189,0,0,1-1.239-2.36944s36.09868,14.803,87.7155,16.27915c61.73817,1.76567,141.57674-13.42085,152.67067-67.08243A55.00645,55.00645,0,0,1,806.74726,1189.84893Z"/></g><g class="cls-26"><path class="cls-14" d="M739.66174,1805.097a77.054,77.054,0,0,1-17.58665-7.739l4.47816-252.3642S730.87923,1756.011,739.66174,1805.097Z"/></g><g class="cls-26"><path class="cls-14" d="M602.49062,1284.02089l-4.34774,274.36386-33.30367,239.03852a104.56859,104.56859,0,0,1-10.93448-4.95648l36.347-255.05991,5.04339-238.995.34789-16.217,3.65208.10867Z"/></g><g class="cls-9"><path class="cls-10" d="M1106.78449,909.594l-136.258,99.737a9.74782,9.74782,0,0,1-6.60864,1.86949c-20.06475-1.60864-117.49751-10.13016-163.127-26.3255,2.67381-19.95609-5.12573-52.83436-5.49525-53.269,1.76083,1.21736,14.36559,30.98517,17.842,38.44395a8.25184,8.25184,0,0,0,5.95471,4.62906l142.36755,26.88124a8.33149,8.33149,0,0,0,6.312-1.42206l129.98716-91.49579a4.58135,4.58135,0,0,0,1.75686-5.11442c-7.10669-22.25692-37.08271-34.73271-38.07846-35.0853,8.47814.8696,32.58639,6.0868,46.56434,36.69489A3.64836,3.64836,0,0,1,1106.78449,909.594Z"/></g><g class="cls-9"><path class="cls-10" d="M760.46145,1083.55751s.39646,61.16513-114.51511,69.96886c0,0,70.34668,6.10183,96.59419-17.18865C765.11431,1116.30709,760.46145,1083.55751,760.46145,1083.55751Z"/></g><g class="cls-26"><path class="cls-14" d="M581.59978,1825.92264c-1.08693.02176-14.86918.26086-19.91257-.67389-5.23909-1-5.02163,40.10788-11.99979,61.06386a6.00061,6.00061,0,0,0-.17394.587,51.06774,51.06774,0,0,0-2.28254,10.95624h-5.08678v-11.54323s-.17394-4.28245,4.54331-14.76051c4.71726-10.49982,8.04334-28.99945,8.56505-38.78185s2.84776-10.84758,7.3912-10.43454c4.54331.413,9.73888,2.80437,13.0432,3.15213A49.72787,49.72787,0,0,0,581.59978,1825.92264Z"/></g><g class="cls-26"><path class="cls-14" d="M766.16966,1825.92264c-1.08693.02176-14.86918.26086-19.91257-.67389-5.23909-1-5.02163,40.10788-11.99979,61.06386a6.00346,6.00346,0,0,0-.17395.587,51.06831,51.06831,0,0,0-2.28253,10.95624H726.714v-11.54323s-.17394-4.28245,4.54331-14.76051c4.71726-10.49982,8.04334-28.99945,8.56505-38.78185s2.84776-10.84758,7.3912-10.43454c4.54331.413,9.73888,2.80437,13.0432,3.15213A49.72787,49.72787,0,0,0,766.16966,1825.92264Z"/></g><g class="cls-12"><path class="cls-10" d="M720.336,1886.31261v11.54323H593.01259c10.478,0,89.085-3.739,105.49785-7.91277a12.6919,12.6919,0,0,0,5.58685-2.86952,8.0949,8.0949,0,0,0,.739-.76094c6.7173-7.52149.21733-22.39081-.08691-23.0647a20.97655,20.97655,0,0,1,7.89115,4.326C719.50994,1874.57381,720.336,1881.20408,720.336,1886.31261Z"/></g><g class="cls-12"><path class="cls-10" d="M904.9059,1886.31261v11.54323H777.58246c10.47806,0,89.08505-3.739,105.49786-7.91277a12.6919,12.6919,0,0,0,5.58685-2.86952,8.09353,8.09353,0,0,0,.739-.76094c6.71731-7.52149.21734-22.39081-.0869-23.0647a20.97655,20.97655,0,0,1,7.89115,4.326C904.07982,1874.57381,904.9059,1881.20408,904.9059,1886.31261Z"/></g><g class="cls-9"><path class="cls-10" d="M1113.95823,891.877l-9.97811,5.58672c-11.60838-19.52129-27.56463-25.99937-37.19484-28.15148l10.04325-5.17381a3.57969,3.57969,0,0,1,1.89126-.39129c.50008.04339,1.174.08691,1.97829.21734.19558.02176.413.04352.63038.08691.21733.04352.4348.06528.67389.10879.47832.08691.97827.19558,1.52173.326.45656.10866.93475.21746,1.4347.36952.39128.1088.78269.21746,1.21736.34789a40.6268,40.6268,0,0,1,5.913,2.3912c.326.15219.65213.32613.97826.50008a43.63966,43.63966,0,0,1,3.86942,2.28253c.4348.28262.89136.587,1.326.913.45656.30437.89136.63038,1.34778.97827.36966.28261.73918.587,1.13046.89123.34789.28261.69565.56522,1.04341.8696a54.3425,54.3425,0,0,1,5.56523,5.45642c.26085.28262.52171.58686.78256.89123.69565.82608,1.41293,1.69568,2.10859,2.60867.34789.45656.69565.913,1.04354,1.39131q1.56513,2.11939,3.0651,4.56506l.26085.39129A1.8244,1.8244,0,0,1,1113.95823,891.877Z"/></g><g class="cls-2"><path class="cls-10" d="M1123.87106,886.33356v.02176c-.6739.17394-1.34779.34789-1.99992.5217q-.88048.22829-1.69568.45656c-.39128.08691-.7608.19571-1.13046.30438-.47818.13042-.93474.26085-1.39117.36952-.39128.10866-.76093.21733-1.13045.32613-.21734.06515-.4348.10867-.63038.17381-.32613.087-.6305.17395-.89136.26086-.23909.06528-.45643.13056-.65213.17394-10.76067-17.34742-23.543-22.76032-30.82543-24.456l-.04352-.02176s.36952-1.13033,1.02179-2.97819h.02176S1112.17564,867.4644,1123.87106,886.33356Z"/></g><g class="cls-12"><path class="cls-10" d="M2172.19691,1259.78234c-2.413.19558-4.73915.28262-7.02155.28262,0,0,68.08541-105.65,56.0421-170.23556C2240.76051,1135.91528,2172.19691,1259.78234,2172.19691,1259.78234Z"/></g><g class="cls-27"><path class="cls-15" d="M2145.61055,1257.80405a84.22166,84.22166,0,0,1-38.19474-21.26036,100.49532,100.49532,0,0,1-9.28245-10.065,85.95188,85.95188,0,0,1-9.78241-14.71713s35.06423-84.38955,73.868-121.867c-1.5216,2.84776-53.31563,90.95159-61.55468,121.90744C2100.66425,1211.802,2106.48093,1233.23937,2145.61055,1257.80405Z"/></g><g class="cls-27"><path class="cls-15" d="M2063.395,1154.54534c-3.80427,12.97806-4.82619,29.782-3.609,36.71666-5.82582-26.60812-.95638-44.32519,5.73931-56.78141,6.76043-12.58665,36.80342-66.15078,36.80342-66.15078l5.9999-12.43459.04352.06528S2067.35132,1141.06747,2063.395,1154.54534Z"/></g><g class="cls-26"><path class="cls-13" d="M2087.19874,1228.76121v.02176a20.6128,20.6128,0,0,1-10.17355,5.26072c-6.761,1.52174-101.54153,42.39042-123.21506,54.9772-21.65164,12.56488-50.65109,23.21689-50.65109,23.21689a260.95419,260.95419,0,0,0-37.2166,49.17287l-.06515.02176a7.04376,7.04376,0,0,1-1.34778-.13043.48971.48971,0,0,1-.30438-.78269l16.82572-23.65169,18.1735-27.23849,51.93372-22.82561s113.32386-54.39021,121.23651-56.2597c7.9129-1.84774,9.326-3.2608,9.326-3.2608l3.08672-4.30422S2085.54658,1225.15265,2087.19874,1228.76121Z"/></g><g class="cls-12"><path class="cls-10" d="M2123.524,1263.7388c-2.23915,1.13032-5.04352,2.34768-8.28256,3.67384-22.34716-20.56484-30.43415-44.43386-30.43415-44.43386l5.5-7.69557a96.05615,96.05615,0,0,0,7.82614,11.19547,100.49532,100.49532,0,0,0,9.28245,10.065,86.62656,86.62656,0,0,0,27.5645,17.86913C2136.06724,1258.4997,2123.524,1263.7388,2123.524,1263.7388Z"/></g><g class="cls-9"><path class="cls-10" d="M2636.07853,729.59776,2577.645,863.421a23.13544,23.13544,0,0,1-30.47767,11.95627l-86.84616-37.91225a176.66327,176.66327,0,0,0,62.28162-13.93443c1.80421-.76094,3.56491-1.56526,5.32587-2.39134,29.26017-13.86928,52.58573-35.847,65.58541-63.52034,11.56513-24.65172,12.67382-48.9773,11.06518-67.0639l19.54305,8.54329A23.16712,23.16712,0,0,1,2636.07853,729.59776Z"/></g><g class="cls-27"><path class="cls-15" d="M1065.807,869.11656c-11.54323,8.08686-101.4326,71.06374-112.541,79.781-12.86939,10.13016-17.69531,5.93461-17.69531,5.93461-78.25924-31.2167-139.73627-45.499-149.10564-47.06415h-.02176c-.17381-.02176-.34776-.04352-.54346-.087-.60862-.06514-1.36942-.15218-2.239-.23909-13.56491-1.1956-52.86847-2.78248-54.84663-2.78248,19.23867-2.71734,55.89-3.21742,55.89-3.21742A537.6597,537.6597,0,0,1,856.007,917.85464c31.60812,9.54331,66.91171,22.84737,79.5854,27.71681a9.77177,9.77177,0,0,0,9.13013-1.10856c19.32572-13.41286,97.91108-67.84646,112.78026-75.75937a3.83988,3.83988,0,0,1,1.89125-.4348c.50008.02176,1.19574.06528,2.04344.17395C1062.61149,868.5731,1064.0897,868.7688,1065.807,869.11656Z"/></g><g class="cls-28"><path class="cls-16" d="M2109.54616,858.92112c-20.93462-2.47824-43.03166-14.98338-43.03166-14.98338l1.64114-3.21188a65.62341,65.62341,0,0,1,6.65216-9.89107h.04352A65.05056,65.05056,0,0,0,2109.54616,858.92112Z"/></g><g class="cls-28"><path class="cls-16" d="M2124.27228,863.97848s30.25342,14.69771,66.79945,2.53789C2191.07173,866.51637,2148.884,868.2535,2124.27228,863.97848Z"/></g><g class="cls-12"><path class="cls-10" d="M2322.19377,1909.85564v13.15187h-170.953v-4.3695q16.10817,1.14141,30.043,1.39131c39.499.73917,66.36824-3.47813,84.47619-10.17368,42.28189-15.60836,36.95575-44.62944,33.282-55.34672a57.50088,57.50088,0,0,0,3.63046,6.65216c4.67387,7.26065,9.17366,13.86916,13.065,19.93433a37.24587,37.24587,0,0,1,5.54321,15.49969v.0869c.15232,1.28264.28287,2.52176.39141,3.73913C2321.99819,1903.76883,2322.19377,1906.921,2322.19377,1909.85564Z"/></g><g class="cls-12"><path class="cls-10" d="M2071.52524,1906.61659c-.02176-.26085-.02176-.54346-.04352-.82608l-.06528-1.10869c-.02441-.42166-.06262-.85952-.09341-1.28781-.02441-.32866-.04352-.65094-.07111-.98371-.095-1.18074-.20354-2.37966-.33543-3.61958-.087-.78269-.17408-1.54349-.26111-2.34781-.06847-.565-.1563-1.17371-.22981-1.749-.08943-.71038-.18788-1.44265-.28447-2.16856q-.36381-2.70831-.77274-5.56085c-.11146-.77168-.21946-1.53487-.33436-2.32167q-.48284-3.30041-.98769-6.77516c-.05652-.39-.11278-.77871-.1693-1.17185q-.48563-3.378-.96062-6.90453c-.09766-.74129-.16931-1.473-.233-2.20133-.05228-.61817-.09447-1.233-.11464-1.842l-.00531.03132a58.11673,58.11673,0,0,1,1.07048-14.3354h-.02176s-2.49807,19.66392-5.04352,25.69513c-5.04292,11.94873-16.6925,24.14394-40.26007,32.71668-10.21707,3.73912-22.78195,6.76069-38.173,8.67371a340.46251,340.46251,0,0,1-49.857,2.04994c-14.53-.91259-27.22814-2.63839-33.6558-5.5716v3.63085l-.00717-.00053v4.3695h170.97487v-13.15187C2071.59052,1908.81222,2071.56876,1907.72529,2071.52524,1906.61659Z"/></g><g class="cls-9"><path class="cls-10" d="M806.75,1189.85c-.08,1.12-.17,2.23-.28,3.33C753.45,1181.79,694.06,1162.29,694.06,1162.29c-97.25-43.89014-162.61-114-162.61-114q-1.635-5.56512-2.8-11.03l16.35,2.1499,252.06,111.76c1.51,5.95008,3.06,11.11011,4.45,15.27,1.65,4.97,2.78,9.15,3.56,12.52A54.79309,54.79309,0,0,1,806.75,1189.85Z"/></g><path class="cls-13" d="M910.9,1152.27v.01a.07492.07492,0,0,0,.05-.01Zm0,0v.01a.07492.07492,0,0,0,.05-.01Zm0,0v.01a.07492.07492,0,0,0,.05-.01Z"/><path class="cls-13" d="M964.17,1185.51c4.93,1.51,7.22,2.40991,12.7,3.77a150.18026,150.18026,0,0,0,21.23,3.27c5.8.38989,12.16.05994,13.42-6.17-11.11005-2.62-23.42-6.54-34.06-9.24a113.94,113.94,0,0,1-28.98-11.63,5.258,5.258,0,0,1-.51-.30005c.12006.04.39.18005.4.18005,7.85,2.28992,17.55,2.91,25.55,4.37,8.02,1.47,17.18,1.90991,23.91-.04,6.73-1.95,8-3.92993,9.61-9.48-11.89-.69995-23.41.02-34.96-2.30005-9.61-1.91992-17.87-5.21-26.79-8.67993,5.39-.97,12.55-4.54,16.56-7.01,4.33-2.67,6.05-4.82007,4.8-9.1001-9.2,3.64014-19.28,4.44007-28.08,8.81006-8.78,4.37-18.75,7.26-28.09,10.30005a.07746.07746,0,0,0-.03.01.00976.00976,0,0,1-.01.01h-.04a.0347.0347,0,0,0-.02.01c-.07.01-.17.02-.30005.03992-.77.08-1.17.13-2.1.24011A52.37149,52.37149,0,0,1,904.3,1188.21q1.53.36,2.94.78a53.66078,53.66078,0,0,1,12.29,5.24.12417.12417,0,0,1,.03.02c7.06,3.49,14.01,7.42993,21.41,10.09h.01a.62856.62856,0,0,1,.09.06994c8.57,3.76,14.56,5.90015,22.03,9.56006,7.47,3.66,13.42,4.69995,19.92,1.49-6.87-3.24-10.21-4.46-17.08-9.24-6.86-4.76-12.92-7.04-19.62-13.28,7.99,2.65,18.84,6.88013,26.2,9.9,7.36,3.01,18.23,2.33,23.55,1.93,5.31-.41,3.8-1.09009,5.42-3.61011-9.73-3.2-21.87-5.25-30.74-8.55993-8.84-3.33-14.32-7.24-22.09-11.41h-.01c-.01,0-.02-.01-.03-.01h.02c-.24-.27.04-.68994.12-.99C953.56,1182.47,959.25,1184,964.17,1185.51Zm-53.29-33.21c0-.01-.02,0-.04,0v-.01h.01a.031.031,0,0,1,.02-.01h.01a.031.031,0,0,1,.02-.01h.09a.10875.10875,0,0,1,.05-.01A.28465.28465,0,0,1,910.88,1152.30005Z"/><path class="cls-23" d="M896.12,1200.42993l-21.01-5.5c1.51-1.43994,3.19-3.17993,4.91-5.17993l.02-.02a63.94815,63.94815,0,0,0,4.12-5.37,51.75716,51.75716,0,0,0,7.83-17.01c.16-.62.3-1.26.43-1.9a42.55009,42.55009,0,0,0,.89-10.65991,26.66158,26.66158,0,0,0-.26-2.80005,25.096,25.096,0,0,0-2.94-9.06006l15.86,2.24S919.39,1173.25,896.12,1200.42993Z"/><g class="cls-9"><path class="cls-10" d="M896.12,1200.42993l-21.01-5.5c1.51-1.43994,3.19-3.17993,4.91-5.17993l.02-.02a63.94815,63.94815,0,0,0,4.12-5.37,51.75716,51.75716,0,0,0,7.83-17.01c.16-.62.3-1.26.43-1.9a42.55009,42.55009,0,0,0,.89-10.65991,26.66158,26.66158,0,0,0-.26-2.80005,25.096,25.096,0,0,0-2.94-9.06006l15.86,2.24S919.39,1173.25,896.12,1200.42993Z"/></g><path class="cls-23" d="M892.42,1165.45c-.13.64-.27,1.28-.43,1.9a51.75716,51.75716,0,0,1-7.83,17.01,63.94815,63.94815,0,0,1-4.12,5.37l-.02.02a70.987,70.987,0,0,1-5.36005,5.61c-.06.05993-.12.11-.18.17a52.52254,52.52254,0,0,1-5.38,4.43994s-60.11-19.6499-113.74-31.47c-53.65-11.86-55.85-13.42-55.85-13.42-128.88-65.68995-173.24-111.24-187.9-131.56-.39-.53-.75-1.05-1.1-1.55a49.50491,49.50491,0,0,1-5.45-9.57c-.03-.07995-.05-.19-.1-.3-.15-.44-.28-.96-.42-1.57-.14-.74-.31-1.58-.44-2.52-.03-.23-.07-.46-.11-.69-.07-.47-.12-.94-.19-1.46-.03-.25-.08-.5-.09-.77a8.88483,8.88483,0,0,1-.11-1.05c-.05-.46-.11-.92-.17-1.42-.05-.58-.1-1.16-.16-1.77-.36005-3.89-.64-8.34-.9-12.81,12.35-13.58,28.2-22.14,44.95-23.57a50.87674,50.87674,0,0,1,10.4.08c13.2,1.53,18.15,8.71,23.16,13.15.47.41.93.8,1.41,1.16l15.95,13.87,23.47,20.41,108.86,83.5199s46.68,11.03,79.29,21.47009c32.61,10.43006,74.97,18.77991,74.97,18.77991a12.36589,12.36589,0,0,1,2.26,1.92,19.73,19.73,0,0,1,2.97,4.01,25.11875,25.11875,0,0,1,2.99,9.15,26.66158,26.66158,0,0,1,.26,2.80005A42.55009,42.55009,0,0,1,892.42,1165.45Z"/><path class="cls-23" d="M1106.78,909.59l-136.25,99.74a9.75278,9.75278,0,0,1-6.61005,1.87c-20.07-1.61-117.48-10.13-163.11-26.32-1,11.13-2.45,18.58-2.45,18.58s-7.35,51.13-8.5,84.2a207.54387,207.54387,0,0,0,.63,24.62012,242.79962,242.79962,0,0,0,6.57,38.88989c1.51,5.95008,3.06,11.11011,4.45,15.27,1.65,4.97,2.78,9.15,3.56,12.52.17.73.32,1.42.46,2.08008v.01a48.951,48.951,0,0,1,1.22,8.79993c-.08,1.12-.17,2.23-.28,3.33A158.53217,158.53217,0,0,1,794.86,1238.24c-12.92,11.35-56.02,20.26-56.02,20.26-66.13,11.30005-121.22,7.6499-140.5,0a70.71365,70.71365,0,0,1-32.41-26.37,6.12175,6.12175,0,0,1-1.24-2.37c-1.33-4.5.98-11,.98-11l7.34-22.11011c-2.89-34.92993-12.11-68.5-20.39-92.79992a397.54762,397.54762,0,0,0-14.67-37.5,153.58293,153.58293,0,0,1-6.5-18.05994c-.34-1.16-.66-2.31006-.97-3.46008-.69-2.53992-1.29-5.05994-1.83-7.57a163.5563,163.5563,0,0,1-2.9-18.54H508.37a41.11668,41.11668,0,0,1-3.3-5.37c-2.66-5.36-3.27-11.24-2.7-25.31.21-5.01,2.6-10.45,5.98-15.74v.02c6.47-9.67005,15.22-16.74,23.92-21.86.86-.51,1.71-.99,2.57-1.46a109.14422,109.14422,0,0,1,28.24-10.53,2.05516,2.05516,0,0,1,.24-.05c.19-.04.36-.07.53-.11.58-.11,1.04-.2,1.35-.26a.03665.03665,0,0,1,.03-.01c.12-.02.21-.04.28-.05.11-.02.16-.03.16-.03a1.11025,1.11025,0,0,0,.02.4,1.94324,1.94324,0,0,0,.05.2c.02.07.04.15.07.23.03.06.05.13.09.2a7.67723,7.67723,0,0,0,2.39,2.69c.26.21.55.43.87.64.35.25.73.5,1.16.75.16.09.32.19.49.29q.705.42,1.56.84c.16.09.33.17.49.25.29.15.59.29.91.44a83.42211,83.42211,0,0,0,11.8,4.26c.46.14.94.27,1.43.41.94.26,1.92.53,2.94.79.56.15,1.13.3,1.72.45,3.23.8,6.86005,1.62,10.93006,2.44.98.2,1.99.4,3.02.6q6.34506,1.215,14.09,2.42c1.04.16,2.09.32,3.16.47q4.41.66,9.28,1.3,1.11.15,2.25.3,4.52994.585,9.47,1.15c.82.09,1.66.19,2.5.28.85.1,1.71.19,2.57.29,1.37.15,2.77.3,4.19.44.35.04.7.08,1.05.11.89.1,1.8.19,2.71.28q6.855.69,14.39,1.34s29.96-15.71,49.17-55.89a.83109.83109,0,0,0,.12-.04c1.09-.32,2.42-.64,3.95-.94h.07c1.26-.23,2.65-.47,4.17-.69h.06c19.24-2.72,55.89-3.22,55.89-3.22a539.1406,539.1406,0,0,1,71.31,16.41c31.61,9.55,66.91,22.85,79.58,27.72A9.75,9.75,0,0,0,944.72,944.46c19.33-13.41,97.91-67.84,112.78-75.75995a3.91041,3.91041,0,0,1,1.89-.43005c.5.02,1.20008.06,2.04993.17,1.17.13,2.65015.33,4.37012.68.31994.06.6499.13.98.19,9.62988,2.15,25.58,8.63,37.18994,28.15a77.54979,77.54979,0,0,1,4.02,7.68A3.62988,3.62988,0,0,1,1106.78,909.59Z"/><g class="cls-27"><path class="cls-15" d="M571.9,943.96l-.56.39a99.49054,99.49054,0,0,0-34.88,15.74,77.38662,77.38662,0,0,0-8.22,6.84c-1.41,1.35-2.79,2.78-4.11,4.29-9.78,11.09-16.85,26.45-15.76,47.48v.02a41.11668,41.11668,0,0,1-3.3-5.37c-2.66-5.36-3.27-11.24-2.7-25.31.21-5.01,2.6-10.45,5.98-15.74v.02c6.47-9.67005,15.22-16.74,23.92-21.86.86-.51,1.71-.99,2.57-1.46a109.14422,109.14422,0,0,1,28.24-10.53,2.05516,2.05516,0,0,1,.24-.05c.19-.04.36-.07.53-.11.58-.11,1.04-.2,1.35-.26a.03665.03665,0,0,1,.03-.01c.12-.02.21-.04.28-.05.11-.02.16-.03.16-.03s-.38995,1.92,4.18,4.82C570.45,943.16,571.13,943.55,571.9,943.96Z"/></g><g class="cls-2"><path class="cls-10" d="M724.58,905.35c-17.27,41.87-51.65,64.24-51.65,64.24-83.61-10.02-95.03-21.82-101.59-25.24-6.54-3.41-5.67-6.39-5.67-6.39a1.11025,1.11025,0,0,0,.02.4.97173.97173,0,0,0,.05.2c.02.07.04.15.07.23.03.06.05.13.09.2a7.67723,7.67723,0,0,0,2.39,2.69c.26.21.55.43.87.64.35.25.73.5,1.16.75.16.1.32.19.49.29q.705.42,1.56.84c.16.09.32.17.49.25.29.15.59.29.91.44a83.42211,83.42211,0,0,0,11.8,4.26c.47.14.94.27,1.43.41.94.26,1.92.53,2.94.79.56.15,1.13.3,1.72.45,3.23.8,6.86005,1.62,10.93006,2.44.98.2,1.99.4,3.02.6q6.34506,1.215,14.09,2.42c1.04.16,2.09.32,3.16.47q4.41.66,9.28,1.3,1.11.15,2.25.3,4.52994.585,9.47,1.15c.82.09,1.66.19,2.5.28.85.1,1.71.19,2.57.29,1.37.15,2.77.3,4.19.44.35.04.7.08,1.05.11.89.1,1.8.19,2.71.28q6.855.69,14.39,1.34s29.96-15.71,49.17-55.89a.83109.83109,0,0,0,.12-.04c1.09-.32,2.42-.64,3.95-.94Z"/></g><path class="cls-23" d="M720.44,906.33c-19.21,40.18-49.17,55.89-49.17,55.89-108.58-9.41-105.6-24.26-105.6-24.26s.97-5.26,1.76-7.87a3.18832,3.18832,0,0,1,.13-.37,5.00052,5.00052,0,0,1,2.04-2.95s1.24-.69995,2.85-1.65a60.5745,60.5745,0,0,0,5.37-3.5,10.87779,10.87779,0,0,0,1.67-2,66.16319,66.16319,0,0,0,6.67-13.11v-.02a16.77134,16.77134,0,0,0,1-3.66,4.56944,4.56944,0,0,1,.55-1.67,7.76016,7.76016,0,0,1,2.32-2.5v-.02a19.66924,19.66924,0,0,1,5.33-2.61c1.59-.44,3.22-.81,4.91-1.13a.37585.37585,0,0,1,.13-.04,145.99648,145.99648,0,0,1,23.15-2.42c1.92,2.24,3.68,4.18,5.23,5.8q.375.405.75.78c-.06006.97-.14,1.9-.22,2.78a.59011.59011,0,0,1-.02.14c-.08.84-.17,1.64-.26,2.41-.04.31-.07.62-.12006.92-.04.32-.08.62-.12994.93005-.05005.38-.11005.75-.17,1.11-.12.73-.24,1.41-.37,2.06-.04.23-.09.45-.13.67-.08.41-.17.8-.26,1.18-.06.29-.13.57-.2.84-.13.55-.27,1.06-.4,1.53l-.06.21c-.21.7-.41,1.32-.6,1.87-.06.18-.12006.36-.19.53-.18005.48-.34.9-.5,1.27a.108.108,0,0,0-.03.07c-.05.11-.1.21-.14.31a1.50357,1.50357,0,0,1-.09.18,10.29007,10.29007,0,0,1-.82,1.52c9.65,5.8,22.41,12.15,35.89,15.26,0,0,8.11,1.74,10.56-.96,0,0,.01-.15.03-.43a1.21229,1.21229,0,0,1,.01-.18c.01-.08.01-.17.02-.27.02-.21.04-.46.07-.75.01-.16.03-.33.05-.51.01-.13995.03-.28.05-.44.07-.68.16-1.47.29-2.35.02-.17.05-.34.07-.52.11-.78.25-1.62.41-2.52.05-.28.1-.58.16-.87,0-.02.01-.04.01-.06.07-.35.14-.71.21-1.07.1-.5.21-1.01.33-1.54.06-.27.12-.55.19-.83.09-.41.19-.82.3-1.24A57.66205,57.66205,0,0,1,679.09,905.75c.37-.65.75-1.28,1.16-1.9a81.33677,81.33677,0,0,0,11.9.96,126.98832,126.98832,0,0,0,22.41-1.79c.33-.06.65-.13.95-.19.11.03.17.05.17.05C718.66,903.2,720.44,906.33,720.44,906.33Z"/><path class="cls-13" d="M680.25,903.85c-.41.62-.79,1.25-1.16,1.9A57.66205,57.66205,0,0,0,673.47,920.27c-.11.42-.21.83-.3,1.24-.07.28-.13.56-.19.83-.12.53-.23,1.04-.33,1.54-.08.36-.14.72-.21,1.07,0,.02-.01.04-.01.06-.06.29-.11.58-.16.87-.16.9-.30005,1.74-.41,2.52-.02.18-.05.35-.07.52-.13.88-.22,1.67-.29,2.35-.02.15-.04.30005-.05.44-.02.18-.04.35-.05.51-.03.28-.05.54-.07.75-.01.1-.01.19-.02.27a1.21229,1.21229,0,0,0-.01.18c-.02.28-.03.43-.03.43-2.45,2.7-10.56.96-10.56.96-13.48-3.11-26.24-9.46-35.89-15.26a10.29007,10.29007,0,0,0,.82-1.52l.09-.18c.04-.1.09-.2.14-.31a.48817.48817,0,0,0,.03-.07c.16-.37.31995-.79.5-1.27.06995-.17.13-.35.19-.53.19-.55.38995-1.17.6-1.87l.06-.21c.13-.47.27-.98.4-1.53.06995-.27.14-.55.2-.84.09-.38.18005-.77.26-1.18.05-.22.09-.44.13-.67.13-.65.25-1.33.37-2.06.06-.36.12-.73.17-1.11.05-.31.09-.61.12994-.93005.05-.3.08-.61.12006-.92.09-.67.16-1.38.24-2.11.01-.15.03-.29.04-.44.08-.88.16-1.81.22-2.78.26.27.51.52.75.77a25.43631,25.43631,0,0,0,6.93,5.39l.01.02c3.07,1.41,3.97-.16,3.97-.16.23-.29.44-.59.66-.89.22-.31.43005-.62.63-.94.2-.3.4-.62.58-.94.4-.66.78-1.36,1.15-2.06995.17-.34.34-.69.5-1.04.43-.91.83-1.84,1.2-2.78.18006-.44.35-.89.51-1.34.17-.45.33-.9.48-1.36.12-.36.24-.72.35-1.07.26-.78.49-1.55.7-2.31.09-.31.17-.61.25-.91.61-2.26,1.07-4.37,1.4-6.11.05-.27.1-.52.15-.77.07-.39.13-.76.19-1.11005.03-.17.06-.34.08-.5.11-.63995.19-1.17.24-1.55a2.09966,2.09966,0,0,1,.04-.28c.03-.28.05-.43.05-.43a131.34444,131.34444,0,0,0,9.95,15.68C664.74,899.78,672.22,902.57,680.25,903.85Z"/><path class="cls-13" d="M713.50078,834.71609c3.89418,11.7492,8.29682,27.97222,9.72172,44.60953a30.58339,30.58339,0,0,1,.043,4.34579l-.87439,14.82673s.69425,2.91963-7.827,4.5197a127.54172,127.54172,0,0,1-22.41609,1.79352c-11.84361-.154-25.23795-2.35132-31.846-10.49a131.1687,131.1687,0,0,1-9.95515-15.68361c-.1775-.35141-.34743-.68256-.49694-1.02119-.02038.00761-2.69625.98226-7.40093-5.84771-.31971-.484-.66735-.98072-1.02253-1.498-.38566-.59863-.78648-1.23791-1.21534-1.8901-4.37361-6.99973-9.14394-16.86777-6.693-24.23158,2.85272-8.65061,11.62694-2.47981,14.25738,1.89869,2.14858,3.58379,5.41953,12.47963,6.075,21.33.52826.54546,1.14286,1.19791,1.79531,1.95223,1.9218-4.61442,4.62609-12.79194,3.77868-21.03712,0,0,37.15082-10.374,42.79564-36.237a54.44085,54.44085,0,0,1,.2,17.21024,22.59433,22.59433,0,0,0,6.648-6.74805C710.27605,825.57092,711.83321,829.74656,713.50078,834.71609Z"/><g class="cls-26"><path class="cls-15" d="M671.27,933.85l-.02.15c-5.46,5.41-9.33,4.35-9.33,4.35-47.3-5.34-74.76-35.52-74.76-35.52a4.56944,4.56944,0,0,1,.55-1.67,7.76016,7.76016,0,0,1,2.32-2.5v-.02a19.66924,19.66924,0,0,1,5.33-2.61c1.59-.44,3.22-.81,4.91-1.13a.37585.37585,0,0,1,.13-.04,145.99648,145.99648,0,0,1,23.15-2.42c1.92,2.24,3.68,4.18,5.23,5.8q.375.405.75.78c-.06006.97-.14,1.9-.22,2.78a.59011.59011,0,0,1-.02.14c0,.1-.01.2-.02.3-.08.73-.15,1.44-.24,2.11-.04.31-.07.62-.12006.92-.04.32-.08.62-.12994.93005-.05005.38-.11005.75-.17,1.11-.12.73-.24,1.41-.37,2.06-.04.23-.09.45-.13.67-.08.41-.17.8-.26,1.18-.06.29-.13.57-.2.84-.13.55-.27,1.06-.4,1.53l-.06.21c-.21.7-.41,1.32-.6,1.87-.06.18-.12006.36-.19.53-.18005.48-.34.9-.5,1.27a.48817.48817,0,0,1-.03.07c-.05.11-.1.21-.14.31l-.09.18a10.29007,10.29007,0,0,1-.82,1.52c9.65,5.8,22.41,12.15,35.89,15.26C660.71,934.81,668.82,936.55,671.27,933.85Z"/></g><path class="cls-15" d="M629.53,899.02c-.06006.97-.14,1.9-.22,2.78a.59011.59011,0,0,1-.02.14c0,.1-.01.2-.02.3-.08.73-.15,1.44-.24,2.11-.04.31-.07.62-.12006.92-.04.32-.08.62-.12994.93005-.05005.38-.11005.75-.17,1.11-.12.73-.24,1.41-.37,2.06-.04.23-.09.45-.13.67-.08.41-.17.8-.26,1.18-.06.29-.13.57-.2.84-.13.55-.27,1.06-.4,1.53l-.06.21c-.21.7-.41,1.32-.6,1.87-.06.18-.12006.36-.19.53-.18005.48-.34.9-.5,1.27a.48817.48817,0,0,1-.03.07c-.05.11-.1.21-.14.31l-.09.18a10.29007,10.29007,0,0,1-.82,1.52,153.02375,153.02375,0,0,1-17.33-11.93c-3.3-2.46,1.33-5.4,1.33-5.4,5.75-3.56,13.77-4.16,19.96-3.98Q629.155,898.645,629.53,899.02Z"/><path class="cls-13" d="M680.25,903.85c-.41.62-.79,1.25-1.16,1.9A57.66205,57.66205,0,0,0,673.47,920.27,77.28923,77.28923,0,0,0,671.27,933.85c-2.45,2.7-10.56.96-10.56.96-13.48-3.11-26.24-9.46-35.89-15.26,0,0,3.68-5.06,4.71-20.53.26.27.51.52.75.77a25.43631,25.43631,0,0,0,6.93,5.39l.01.02c3.07,1.41,3.97-.16,3.97-.16,3.02-3.88,5.1-9.12,6.52-13.91a81.61588,81.61588,0,0,0,2.64-12.49,131.34444,131.34444,0,0,0,9.95,15.68C664.74,899.78,672.22,902.57,680.25,903.85Z"/><path class="cls-16" d="M719.59842,804.71691a36.08222,36.08222,0,0,1-6.09764,29.99918c-1.66757-4.96953-3.22473-9.14517-4.43281-12.19789a22.59433,22.59433,0,0,1-6.648,6.74805,54.44085,54.44085,0,0,0-.2-17.21024c-5.64482,25.863-42.79564,36.237-42.79564,36.237.84741,8.24518-1.85688,16.4227-3.77868,21.03712-.65245-.75432-1.26705-1.40677-1.79531-1.95223-.65547-8.85033-3.92642-17.74617-6.075-21.33-2.63044-4.3785-11.40466-10.5493-14.25738-1.89869-2.45093,7.36381,2.3194,17.23185,6.693,24.23158.42886.65219.82968,1.29147,1.21534,1.8901.35518.51725.70282,1.01394,1.02253,1.498,4.70468,6.83,7.38055,5.85532,7.40093,5.84771.14951.33863.31944.66978.49694,1.02119,0,0-1.94216,17.12741-9.15445,26.406,0,0-.901,1.56572-3.97718.16067l-.00761-.02039a25.43924,25.43924,0,0,1-6.931-5.39647c-8.79469-8.90087-27.86908-31.36907-37.11843-60.21565,0,0-4.549,1.302-12.2622.65178,0,0,10.39817-5.33931,9.99924-22.33615l.02039-.00761a48.38569,48.38569,0,0,0-.58395-6.23205,31.34129,31.34129,0,0,1-.15372-3.58525c.015-4.06579.72093-10.19882,4.83816-10.4814,0,0,1.01226-19.30962,29.12072-33.89819,28.12867-14.59625,61.00232-5.39438,68.69459-.25855C700.53116,768.58075,714.79667,782.81938,719.59842,804.71691Z"/><g class="cls-2"><path class="cls-10" d="M680.25,903.85c-.41.62-.79,1.25-1.16,1.9a57.66291,57.66291,0,0,0-5.62,14.52c-.42,1.67-.76,3.26-1.04,4.74-.06.29-.11.58-.16.87a69.78541,69.78541,0,0,0-1,7.97s3.23-3.16,7.57-7.65c4.36-4.5,9.85-10.34,14.33-15.69h-.16c3.23-3.94-4.65-5.69-4.65-5.69-.25-.06-.49-.12-.74-.18Z"/></g><g class="cls-2"><path class="cls-10" d="M680.25,903.85c-.41.62-.79,1.25-1.16,1.9A57.66205,57.66205,0,0,0,673.47,920.27h-.01c-18.74-4.16-25.75-29.12-25.75-29.12v-.02a81.61588,81.61588,0,0,0,2.64-12.49,131.34444,131.34444,0,0,0,9.95,15.68C664.74,899.78,672.22,902.57,680.25,903.85Z"/></g><g class="cls-28"><path class="cls-16" d="M625.6053,818.01585s-19.689,4.31618-34.68981-.13587a48.38569,48.38569,0,0,0-.58395-6.23205,31.34129,31.34129,0,0,1-.15372-3.58525A65.34685,65.34685,0,0,0,625.6053,818.01585Z"/></g><g class="cls-28"><path class="cls-16" d="M638.22923,815.89489s47.53957-.67692,55.77767-29.7252C694.01145,787.77524,676.93,807.51431,638.22923,815.89489Z"/></g><g class="cls-27"><path class="cls-15" d="M890.06,1142.84s-27.13568-5.5359-56.41714-13.12568c-24.18841-6.26966-49.96353-14.4019-62.03287-17.89422-26.68-7.71008-42.75-10.28-42.75-10.28s-59.57428-34.57046-140.55775-117.08847L621.71,1013.14l108.86,83.5199s46.68,11.03,79.29,21.47009c32.61,10.43006,74.97,18.77991,74.97,18.77991a12.36589,12.36589,0,0,1,2.26,1.92A19.73,19.73,0,0,1,890.06,1142.84Z"/></g><g class="cls-9"><path class="cls-10" d="M891.99,1167.35a51.75716,51.75716,0,0,1-7.83,17.01,63.94815,63.94815,0,0,1-4.12,5.37l-.02.02a70.987,70.987,0,0,1-5.36005,5.61c-.06.05993-.12.11-.18.17a52.52254,52.52254,0,0,1-5.38,4.43994s-60.11-19.6499-113.74-31.47l113.96,22.71C881.55,1186.27,891.99,1167.35,891.99,1167.35Z"/></g><g class="cls-9"><path class="cls-10" d="M577.97,748.47l-11.15,3.06,10.45,18a4.06592,4.06592,0,0,1-4.39,6.02l-51.89-11.43-90.17,24.76L349.56,811.2a2.17351,2.17351,0,0,1-.24.06995l-15.08,4.15-47.37,13a12.88358,12.88358,0,0,1-3.77.45c83.54-21.23,151.35-54.73,201.79-96.17q3.885-3.18007,7.64-6.45c29.76-25.83,52.99-54.54,69.31-85.15L569.73,669.82l17.26,62.82A12.87909,12.87909,0,0,1,577.97,748.47Z"/></g><g class="cls-29"><path class="cls-25" d="M482.06,575.36c-9.7,11.83-22.95,27.03-39.27,43.55q-2.955,2.985-6.02,6a574.89659,574.89659,0,0,1-61.53,52.89q-4.8,3.54-9.75,7.03c-33.95,23.85-73.04,44.86-115.84,56.76l-2.2-8.01-20.54-74.79a12.889,12.889,0,0,1,9-15.84L340.24,614.3l105.17-28.87Z"/></g><g class="cls-29"><path class="cls-25" d="M2509.10986,648.89c-5.32983,7.92-11.31982,16.06-18.0498,24.23-.9502,1.16-1.91016,2.32-2.90015,3.48a300.47744,300.47744,0,0,1-26.55981,27.63c-1.16016,1.07-2.3501,2.13-3.54,3.19q-5.53491,4.905-11.49,9.69-10.36524,8.295-21.01,15.35c-1.4502.98-2.90015,1.92-4.3501,2.85a299.57074,299.57074,0,0,1-40.24,21.65q-2.73011,1.215-5.46,2.36005c-33.88013,14.29-67.90015,21.56-99.05,24.72a3.60861,3.60861,0,0,1,.52-3.66l13.52-17.07-1.17993-.52a23.07782,23.07782,0,0,1-11.95-30.47L2335.78,598.49a23.14493,23.14493,0,0,1,30.5-11.95l93.45,40.8Z"/></g><g class="cls-30"><path class="cls-7" d="M1646.86,84.42q13.80011,4.395,27.27,9.46c-1.63-.51-11.29992-3.53-27.27-7.38-60.01-14.47-208.91-40.68-353.21,10.19q-11.13006,3.915-22.21008,8.46A435.97216,435.97216,0,0,0,1195.64,145.29C1055.21,238.59,990.73,343.06,963.58,458.36,950.31,514.67,945.95,573.55,946,634.98l-.01-.02c-2.66-13.13-4.43-25.34-5.55-36.4V534.17a432.66676,432.66676,0,0,1,6.67-75.81c27.63-155.8,139.13-286.42,291.52-353.21a561.21617,561.21617,0,0,1,55.02-20.73,588.3774,588.3774,0,0,1,353.21,0Z"/></g></g></g></svg>