<svg id="Vectors" xmlns="http://www.w3.org/2000/svg" viewBox="0 0 6000 4000"><defs><style>.cls-1{fill:#b1ccf4;}.cls-2{fill:#e3ecfb;}.cls-3{fill:#bfd5f6;}.cls-4{fill:#8e5536;}.cls-5{fill:#e29d71;}.DA{fill:#fbaf7e;}.NAU-3{fill:#a64c44;}.cls-6{fill:#eca57d;}.AO-NHAT-2{fill:#fadcbf;}.cls-7{fill:#7f332f;}.cls-8{fill:#2e354b;}.XANH-DAM-6{fill:#1d3856;}.XANH-DEN-3{fill:#112638;}.AO-DAM{fill:#e0b186;}.XANH-13{fill:#cde1fb;}.TRANG-3{fill:#fdfefe;}.XANH-12{fill:#7ca5df;}.XANH-DAM-8{fill:#204375;}.XANH-11{fill:#6394ce;}.XANH-DAM-7{fill:#2f5192;}.cls-9{fill:#231a10;}.cls-10{fill:#af8d6b;}.cls-11{fill:#f3974e;}.cls-12{fill:#dd7833;}.cls-13{fill:#b1500c;}.cls-14{fill:#e89160;}.cls-15{fill:#fbd2b1;}.cls-16{fill:#4a5667;}.cls-17{fill:#7c8fab;}.cls-18{fill:#576478;}.cls-19{fill:#475262;}.cls-20{fill:#8ea3c3;}.cls-21{fill:#3866ab;}.cls-22{fill:#a77e5d;}</style></defs><path class="cls-1" d="M5170,3359.58c-83.85-94.82-224.41-135.83-283.57-247.74-78.35-148.23,27.35-320.89,76-481.33,92.08-303.58-53-661.86-330.33-815.86s-658.16-87.71-867.16,150.94c-181.41,207.16-235.45,513.54-449.18,687.14-218,177.06-534.5,160.06-806.3,89.38s-539.09-186.49-819.78-177.42c-301,9.71-592.78,174.42-756.64,427.06-136.17,209.95-180.75,475.81-126.61,719.66H5237.74C5267.93,3588.35,5252.66,3453.08,5170,3359.58Z"/><path class="cls-2" d="M4685.06,3593.4a379.78,379.78,0,0,1-18.62,118H1908.67c-47.51-62.4-76-141.51-76-227.62,0-159.64,97.76-295.36,234-345.05,35.51-109.8,134.63-188.84,251.39-188.84a254.92,254.92,0,0,1,129.78,35.51c30.7-59.58,92.91-113.3,186-146.85a222,222,0,0,1-2.15-30.58c0-117.14,90.66-212.16,202.45-212.16a195.46,195.46,0,0,1,117.63,39.53c149.23-256.28,169.92-595.92,169.92-595.92H3520.5s19.44,319.33,156.63,572.38c35.21-31,80.61-49.7,130.15-49.7,111.84,0,202.46,95,202.46,212.16a222.11,222.11,0,0,1-8.69,61.69c78,26.79,135.15,67.56,170.93,114.32,145.87,7.82,261.88,134.25,261.88,289,0,1.1-.07,2.15-.07,3.2C4579,3286.67,4685.06,3427,4685.06,3593.4Z"/><path class="cls-3" d="M3258.89,2070.94s18.83,687.5,51,747.67c120.74,0,236,121.41,182.35,348.21,0,0,142.12,11.25,177,136.46s-127.1,185.35-127.1,185.35,142.29,149,132,222.77l206.92,9.38s-128.19-194.53-262.53-215.25c108.75-61.77,179.54-282-48.56-367.69-3.67-216.05-43.63-343.9-243.1-366.42C3286.66,2280,3275,2058.26,3275,2058.26Z"/><path class="cls-3" d="M3171.33,1988.49s-22,560.44-134.71,764.24c-120.77-56.31-284.35-42.91-295.08,171.62-48.26,13.41-227.93,43.27-201.11,210.69-101.9-107.82-383.55-65.36-444.12,140.6,0,0-264.46,225.28,0,435.77h468.25s-235.44-113.71-151.24-327,296-95.55,296-95.55-80.44-85.16-5.36-190,206.48-44.51,206.48-44.51-126-125.87-8-195,206.48-40.77,206.48-40.77,83.13-304.54,79.1-523.08,6.71-301.68,6.71-301.68Z"/><path class="cls-3" d="M4685.06,3593.4a379.78,379.78,0,0,1-18.62,118H4154c-61.65-209.86-205.23-659.72-330.94-766,33-209.6-137.61-240.9-261.18-238.26-51.72-90.13-130-496-162.2-667.7H3520.5s19.44,319.33,156.63,572.38c35.21-31,80.61-49.7,130.15-49.7,111.84,0,202.46,95,202.46,212.16a222.11,222.11,0,0,1-8.69,61.69c78,26.79,135.15,67.56,170.93,114.32,107.13,5.75,198.16,75.46,238.94,173.37a302.82,302.82,0,0,1,22.94,115.67c0,1.1-.07,2.15-.07,3.2,3.8,1.17,7.56,2.37,11.28,3.65C4584.4,3294,4685.06,3431.35,4685.06,3593.4Z"/><path class="cls-2" d="M4563.71,3671.6l-47.09,39.8L4388,3820s-18.28-41.75-47.17-108.6c-89.15-206.44-303.2-669.34-369-861.45,45-299.92-259.59-242-313-201.78-75.84-78.69-155.21-440.07-188.88-608.75h50.49s19.44,319.33,156.63,572.38c35.21-31,80.61-49.7,130.15-49.7,111.84,0,202.46,95,202.46,212.16a222.11,222.11,0,0,1-8.69,61.69c78,26.79,135.15,67.56,170.93,114.32,107.13,5.75,198.16,75.46,238.94,173.37l19.48,70,14.67,52.55Z"/><path class="cls-4" d="M3453.31,1490.09l141.16,69.81a216.9,216.9,0,0,1,118.77,165.16l109.81,473.31-44.36,7.15L3453.31,2020Z"/><path class="cls-4" d="M3171.33,1499l-141.16,69.81A216.9,216.9,0,0,0,2911.4,1734l-97.63,464.37,32.18,16.09,325.38-185.52Z"/><path class="cls-5" d="M3496.21,1482.94l141.16,69.81a216.89,216.89,0,0,1,118.78,165.16l65.44,480.46-325.38-185.52Z"/><path class="cls-5" d="M3139.15,1482.94,2998,1552.75a216.9,216.9,0,0,0-118.77,165.16l-65.45,480.46,325.38-185.52Z"/><path class="DA" d="M3299.25,995.11h0a151.32,151.32,0,0,0-115.56,53.62l-39.3,46.49h309.73l-39.31-46.49A151.3,151.3,0,0,0,3299.25,995.11Z"/><polygon class="NAU-3" points="3144.39 1095.22 3097.38 1278.89 3501.12 1278.89 3454.12 1095.22 3144.39 1095.22"/><polygon class="DA" points="3501.12 1278.89 3097.38 1278.89 3036.62 1962.44 3287.99 2030.24 3561.88 1962.44 3501.12 1278.89"/><path class="NAU-3" d="M3036.62,1962.44v99.22S3150.18,2098,3293.5,2098s268.38-36.38,268.38-36.38v-99.22s-167,24.25-276.1,24.25S3036.62,1962.44,3036.62,1962.44Z"/><path class="cls-4" d="M3337.29,1482.94l93.15,87.28a125.43,125.43,0,0,1,39.37,82.57L3509,2198.37h-38l-133.71-185.52-38-529.91Z"/><path class="cls-6" d="M3299.25,1482.94l93.16,87.28a125.52,125.52,0,0,1,39.37,82.57L3471,2198.37l-171.75-185.52Z"/><path class="cls-2" d="M3582.49,2230.72s72.4,228.83,85.81,256.54l25,46.48s84.92-42,178.78-8c-60.79-67.93-167.16-29.49-167.16-29.49Z"/><path class="cls-3" d="M2197,2902.9s143-12.51,239.55,35.76c91.18-94.75,171.62-112.63,171.62-112.63s-5.36-101.9,21.45-157.32c-62.57,53.63-62.57,135-62.57,135s-123.35,51-134.07,79.56C2366.84,2851.06,2197,2902.9,2197,2902.9Z"/><path class="cls-4" d="M3248.12,1511.85c0,54.43-26.78,99.5-61.65,106.83a47.23,47.23,0,0,1-10.08,1.09c-39.61,0-71.7-48.33-71.7-107.92s32.09-108,71.7-108a47.88,47.88,0,0,1,10.08,1.09C3221.34,1412.32,3248.12,1457.38,3248.12,1511.85Z"/><path class="AO-NHAT-2" d="M3248.12,1511.85c0,54.43-26.78,99.5-61.65,106.83-34.84-7.29-61.7-52.36-61.7-106.83s26.86-99.57,61.7-106.87C3221.34,1412.32,3248.12,1457.38,3248.12,1511.85Z"/><path class="DA" d="M4861.69,2134c-9.91-7.56-47.6-193.16,70.91-391.7s186.22-289.35,260.1-266.26-21.76,129.28-42.43,220.09S4929.3,2185.54,4861.69,2134Z"/><path class="cls-7" d="M4766.38,2404.87c34.21-7.8,87.72-182.78,81.57-437.81s-168.28-421.26-168.28-421.26-141,123.75-120.76,308.13,125.13,362.91,143.8,426.53S4739.37,2411,4766.38,2404.87Z"/><path class="DA" d="M5015.75,2311.86s26.67-107.74,184.69-119,280.11,169.3,279.08,235c-319.1-44.13-439.15,28.72-473,0S5015.75,2311.86,5015.75,2311.86Z"/><path class="cls-8" d="M5409,2357.78c-1.7-1.63-3.54-3.49-5.67-5.43l-7.16-6.14q-3.89-3.32-8.35-7.09l-9.93-7.46c-14.12-10.31-32-22.12-54.57-31.84a230.18,230.18,0,0,0-80-18.61c-15.12-.35-31,.24-47.07,3.2a257.58,257.58,0,0,0-48.5,13.8,328.49,328.49,0,0,0-47.43,23.93,426.1,426.1,0,0,0-44.79,32.48,537.18,537.18,0,0,0-41.45,39.24c-13.09,14.14-25.9,28.85-37.85,44.44s-23.52,31.63-34.25,48.32c-5.58,8.16-10.48,17-15.55,25.68a68.33,68.33,0,0,0-3.54,6.65l-3.32,6.76c-2.14,4.54-4.59,9-6.48,13.6-16.08,36.79-27,75.42-35,113.81A989.59,989.59,0,0,0,4861.86,2767c-6.45,74.33-6.19,144-4,203.62s6.73,109.27,10.72,144.08,7.52,54.7,8.43,55.5c1,.49-.35-13.63-2.52-42.23s-5.32-71.41-7.3-127.71c-1-28.14-1.61-59.65-1.31-94.37s1.43-72.67,4.57-113.57,8.24-84.76,17.32-130.87q1.88-8.59,3.79-17.33,1-4.38,1.93-8.77,1.13-4.37,2.26-8.75c1.54-5.85,3-11.77,4.63-17.68s3.58-11.78,5.39-17.73c7.67-23.65,16.91-47.57,29.09-70.73,7.6-14,31.36-53.91,69.92-99.38a490.13,490.13,0,0,1,69.83-67.81c13.68-10.5,28.1-20.69,43.54-29.33a294.64,294.64,0,0,1,48.29-21.77,227.59,227.59,0,0,1,50.86-10.87c8.48-1,16.94-1,25.26-1l12.37.71c4.1.18,8.1,1,12.1,1.43l6,.79,5.83,1.22c3.85.86,7.72,1.5,11.45,2.5,7.42,2.18,14.76,4,21.58,6.76,3.44,1.31,6.9,2.4,10.17,3.82l9.62,4.28,4.68,2.08,4.47,2.33,8.66,4.55c22.43,12.32,39.24,25.35,51,34.17,11.43,9.28,18.06,14.31,18.56,13.38C5419.22,2368,5415.72,2364.34,5409,2357.78Z"/><path class="DA" d="M4912.72,2243.39s134.94-313.91,331.95-301.94,225.73,23.09,225.73,23.09,27.7-98.5-103.12-127.74S4904,1778.31,4912.72,2243.39Z"/><path class="cls-8" d="M5117.24,1901.7c-22,21.06-53.34,54.75-88.18,103.85s-72.9,113.72-105.71,195.36a1083.62,1083.62,0,0,0-44.05,134.66c-3.3,12.19-5.9,24.76-8.95,37.43-2.81,12.72-5.23,25.73-7.92,38.88-2.25,13.23-4.57,26.67-6.72,40.3q-2.9,20.45-5.86,41.48c-1.13,8.7-3.82,25.19-6.36,47.57s-6.38,50.46-9.34,82.35c-6.65,63.7-12.66,142.31-15.33,218.79s-2.34,150.79.06,205.7,6.64,90.44,8.57,89.64c.33-.13.22-5.45-.1-15.36s-.71-24.41-1.23-42.79c-.87-36.81-1.44-89.35,0-152.33,2.63-125.93,14-293.72,39-459.84,5.93-41.54,13.57-82.66,23.43-122.7A1116.19,1116.19,0,0,1,4923.87,2229c27-73.75,60.65-139.34,94.35-192.46s67.12-94,92.11-121.22c12.49-13.61,22.85-23.87,30.08-30.81s11.32-10.55,11.33-10.92C5152,1872.15,5139.3,1880.64,5117.24,1901.7Z"/><path class="cls-8" d="M5148.18,2755c-11.88,1.17-29.73,4.05-52.31,11.23a305.53,305.53,0,0,0-78.58,38.48,310.79,310.79,0,0,0-43.4,35.39q-5.22,5.38-10.61,10.94l-10.36,11.82q-4.86,6.49-9.86,13.17-4.35,7-8.83,14.3c-1.56,3.12-4.85,9-8.75,17l-6.1,13.78-6.32,16.7c-8.55,23.91-15.8,54.28-20.13,84.11s-5.87,59.1-5.05,80.71,3.51,35.47,5.35,35.07c1.69-.24-.83-33,5-81.73,2.87-24.28,7.38-52.54,15.41-81.94s18.9-60.28,36.15-87.25c1.07-1.69,2.08-3.43,3.2-5.07l3.56-4.76c2.45-3.13,4.57-6.43,7.34-9.4l7.9-9.07,8.27-8.64a340.58,340.58,0,0,1,35.14-30.7,358,358,0,0,1,36.64-23.85,330.57,330.57,0,0,1,35.34-17.08,341,341,0,0,1,56.26-17.76c7-1.69,12.56-2.66,16.39-3.45s5.92-1.38,6-1.68C5166.08,2754.34,5160.11,2754,5148.18,2755Z"/><path class="cls-8" d="M4647.1,3127.3c-.12-6.73-.43-16.56-1-29-1.09-25-3-60.55-6.22-103.19s-7.69-92.35-14.5-145.42-16-109.52-29.68-165.16c-14-55.58-33.21-109.86-56.32-158.48-11.34-24.42-24.17-47.12-36.84-68.32-6.71-10.38-12.88-20.7-19.73-30.11l-9.85-14-10.05-13.13a523.39,523.39,0,0,0-71.52-76.12c-9.42-8.49-17.48-14.45-23-18.58s-8.59-6.28-8.92-6.18c-1.22.42,6.36,7.53,21.52,21.46a657.11,657.11,0,0,1,62.08,67.58c12.74,15.66,25.7,34.2,39.29,55a778.12,778.12,0,0,1,39.81,71.09c25.85,52.85,49.76,116.8,66.83,191,2.84,11.44,9.74,43.91,16.75,86.49s13.93,95.31,19.3,146.7c10.87,102.75,17.56,199.92,21.7,198.85C4647.12,3137.65,4647.22,3134,4647.1,3127.3Z"/><path class="cls-8" d="M4706.79,2980c-1.39-56.3-7.8-121.9-21-191-6.61-34.56-15-69.94-24.58-105.62-9.93-35.57-21.12-71.39-33.49-106.81C4578,2434.77,4509.21,2300.94,4455.77,2202c-26.84-49.51-50-90.41-66.38-119.11-8.2-14.35-14.75-25.62-19.33-33.34s-7.21-11.88-7.59-12c-1.34-.31,4.34,12,16.67,36.08s31.3,60,56,107.24,55.2,105.7,88.43,175.92S4593,2508.93,4625,2603.93c5,14.67,18.73,56.11,32.79,111,14.34,54.79,27.38,123.37,34.57,190.64,6.91,67.3,7.2,133.12,4.21,181.69-1.66,24.25-3.12,44.31-4.65,58.17-1.29,13.9-1.58,21.75-.56,21.65.35,0,1.36-4.68,2.94-13.39s4.07-21.43,5.79-37.8C4704.43,3083.26,4708,3036.3,4706.79,2980Z"/><path class="cls-8" d="M4769.28,2701.58c-10.3-76.59-29.7-157.64-61.71-234C4676,2391.13,4630.62,2320,4576,2264.33c-27.16-27.93-56.51-51.73-85.67-72.17a830,830,0,0,0-85.68-52.08c-54.89-29.11-102.68-49.07-136.21-63-16.8-6.93-30.12-12.23-39.32-15.79s-14.28-5.39-14.66-5.24c-1.34.58,12,7.13,39,19.56s67.84,30.51,119.78,57.28c25.91,13.48,54.49,29.37,84.64,48.94a666.47,666.47,0,0,1,92.53,72.18c30.95,28.92,60.27,64.2,87,104.88l5.06,7.64q2.4,3.93,4.79,7.9l9.64,16q4.53,8.26,9.14,16.64,2.28,4.2,4.6,8.43,2.16,4.31,4.32,8.66l8.68,17.53q4,9,8.12,18.12c1.34,3,2.77,6.08,4.06,9.18l3.79,9.37c2.49,6.28,5.19,12.54,7.56,19,2.84,8,8.69,23.1,15.19,43.93,1.75,5.17,3.42,10.73,5.08,16.63s3.5,12.08,5.37,18.55c3.28,13.07,7.18,27.18,10.38,42.37,6.8,30.29,12.84,64.44,17.44,100.34s7.84,73.52,9.79,110.68c4,74.33,3.15,146.72,2.83,200.31-.48,53.61-.41,88.46,1.64,87.94.34-.09.84-5.29,1.48-15s1.39-23.84,2.24-41.84c1.61-36,3.63-87.38,3.63-149.11S4779.7,2778.24,4769.28,2701.58Z"/><path class="cls-8" d="M4765.87,2278.11c-2.75-74.61-8.07-144.18-14.58-203.67-6.34-59.52-13.68-109-19.36-143.64-2.88-17.33-5.29-31-7.15-40.35s-2.93-14.47-3.26-14.7c-1.21-.8.31,13.5,3.85,42s9,71.32,14.6,127.6,11.24,126.08,14.38,208.52c1.51,41.22,2.43,85.59,2.12,133q-.14,71.09-4,151c-.7,16.49-3.1,62.84-7.54,123s-11.33,134-18.87,205.77c-7.75,71.67-15.27,141.21-20.86,192.83-5.42,51.56-8.27,85.12-6.21,84.81.35,0,1.3-5,2.78-14.27s3.48-22.82,5.92-40.06c4.86-34.49,11.51-83.71,18.9-142.84,14.72-118.23,32.05-276.31,38.46-435.31C4768.13,2432.38,4768.65,2352.73,4765.87,2278.11Z"/><path class="cls-8" d="M4711.47,2496.9c-9.73-73.73-23.77-146-41.24-212.21q-3.25-12.42-6.46-24.59c-2.08-8.13-4.79-16-7.12-23.86-4.91-15.67-9.36-31.08-14.31-45.85-9.95-29.54-20.11-57-29.1-82.4s-16.93-48.67-23.22-69.49-11-39.15-14.48-54.35-5.54-27.3-6.92-35.63-2.17-12.88-2.47-13.11c-.57-.43-.65,2.88-.26,9.85.19,3.48.47,7.89,1.16,13.15s1.32,11.46,2.55,18.47c4.29,28.13,14.55,69.81,32.29,123,8.74,26.62,19.24,56.14,29.94,88.88q2,6.14,4,12.43t3.79,12.81q3.82,13,7.84,26.47c5.69,17.92,10.05,37,15.17,56.73,19.53,79,36.31,171.55,45.95,276.44.67,7.43,1.9,21,3.55,39.29,1.29,18.29,2.86,41.25,4.45,67.37,2.74,52.28,4.66,117.25,5.1,182.75.61,129.83-3.22,261.55-1.36,300.31-4.19-4.49-6.65-6.7-7-6.17-.17.24,1.81,3.21,5.72,8.63l3.6,5,.41-6.29c1.95-29.91,6.5-122.58,8.6-245C4733.15,2797.1,4731.05,2644.5,4711.47,2496.9Z"/><path class="cls-8" d="M5071.46,1696c-19.52,29.49-46.3,75.32-79.64,136.5l-25.35,49.2q-6.66,13-13.65,26.69-6.48,13.93-13.3,28.55c-9,19.5-18.62,39.87-28.34,61.25q-13.59,32.5-28.31,67.72A2601.46,2601.46,0,0,0,4774,2398.78c-2.45,9.88-7.12,28.71-13.41,54.1-1.67,6.32-3.08,13.14-4.55,20.33l-4.73,22.66L4740.67,2547c-2,9.07-3.5,18.53-5.15,28.18l-5,29.61q-2.55,15.11-5.18,30.74-1.32,7.8-2.64,15.72c-.86,5.28-1.44,10.64-2.17,16-2.77,21.46-5.61,43.37-8.46,65.42q-1.07,8.26-2.13,16.56c-.62,5.54-1,11.1-1.57,16.65q-1.5,16.66-3,33.28t-2.95,33q-.72,8.2-1.44,16.35-.42,8.16-.82,16.24c-1.06,21.55-2.09,42.62-3.09,62.92-1.31,20.27-.93,39.83-1.19,58.27-.08,18.43-.16,35.77-.23,51.73-.16,8,.4,15.6.61,22.83s.59,14.07.86,20.49c.57,12.83,1.13,24,1.68,33.05,1.11,18.2,2.17,28.33,3.16,27.94.34-.13.53-6.34.6-17.85s0-28.34-.16-49.71c0-10.69-.39-22.51-.13-35.37s.7-26.77,1.09-41.63.76-30.65,1.18-47.3c.76-16.64,2-34.12,3.09-52.35q.82-13.68,1.7-27.92c.66-9.48.92-19.16,2.05-29q2.88-29.4,5.94-60.69c1.06-10.41,1.91-21,3.2-31.64s2.88-21.41,4.35-32.29c3-21.76,5.72-44,9.16-66.61,14.36-90.17,34.24-185.57,58.84-279.83,25.76-93.93,55.86-186.67,88.57-272l3-8,3.23-7.87,6.42-15.65,12.66-30.85q6.26-15.27,12.37-30.2c4-10,8.73-19.52,13-29.1q13-28.64,25.24-55.65c3.92-9.06,8.4-17.67,12.63-26.21s8.43-16.89,12.51-25.09l23.5-47.08,22.73-41.72q10.66-19.68,20-36.78c3-5.74,6.25-11,9.25-16.15l8.64-14.63,25.32-43.39c5.82-10.15,8.9-15.78,8.83-16.22C5100.45,1651.68,5090.51,1666.22,5071.46,1696Z"/><path class="cls-7" d="M4966,2856.32s14.94-96.73,120.62-128.72S5330.86,2695,5330.86,2695s-48.23,78.57-158,115.5S4966,2856.32,4966,2856.32Z"/><path class="cls-7" d="M4898.62,2447.3s-84.9,26.68-61.3,71.82,131.34,157,167.25,167.25,98.5-124.15,79-204.18,4.1-147.76-72.85-127.23S4898.62,2447.3,4898.62,2447.3Z"/><path class="cls-7" d="M4401.75,2113.27c-2.68-4.84-416.57-261.83-533.54-290.7,238.56-52,304.74,17.3,380.15,86.56s173.92,87.63,184.69,123.85S4401.75,2113.27,4401.75,2113.27Z"/><path class="DA" d="M4524.89,2224.92s-178,55.13-296.53-44.91-320.13-169.3-320.13-169.3,43.09-61.56,184.69-38.47,250.87,29.81,301.66,66.46S4521.3,2183.65,4524.89,2224.92Z"/><path class="cls-7" d="M3851.28,2393.43s4.62-121.59,157-121.59,178.53,14.63,286.27,16.17,249.91,62,219.61,202.62c-141.12-73.34-249.88-124.9-249.88-124.9l-254.46,15.51-138.52,35.27Z"/><path class="DA" d="M4517.67,2495s-120-155.45-257-155.45-400.17,52.33-409.4,53.87-15.39,46.18,49.25,43.1,178.54-77,252.41-38.48,120.05,52.33,166.22,46.17S4517.67,2495,4517.67,2495Z"/><rect class="XANH-DAM-6" x="4408.44" y="3092.69" width="757.2" height="618.73"/><path class="DA" d="M4656,2252.35s-113.81-99.52-138.43-219.37-186.75-474.87-43.1-577.47c129.29,190.84,145.54,410.42,181.53,539.7S4738.55,2235.24,4656,2252.35Z"/><path class="XANH-DEN-3" d="M5165.64,3092.69v618.72H4817.57c-.17-42.23,19.6-135.07,44.13-175,30.14-49.27,185.28-43.09,203.76-178.55,11.84-86.7-.73-197-11.31-265.12Z"/><path class="AO-NHAT-2" d="M4256.68,424.42c-65.77,30.79-143.19,61.71-227.18,90-89.43,30-174.77,53.13-249,68.37a260.73,260.73,0,0,1-34-210.42C3776.13,261.56,3877.22,180,3997.37,180a259.76,259.76,0,0,1,259.31,244.42Z"/><path class="AO-NHAT-2" d="M4256.23,461.52c-11,133.3-122.72,238-258.86,238a259.12,259.12,0,0,1-194.28-87.35c72.78-15.69,153.78-38.14,237.07-66.15C4117.72,520,4191.33,491.16,4256.23,461.52Z"/><path class="AO-DAM" d="M4371.24,403c-33.66,19.43-72.46,39.14-115,58.54-64.9,29.64-138.51,58.51-216.07,84.54-83.29,28-164.29,50.46-237.07,66.15-76.42,16.48-143.67,25.47-194.72,25.47-24.47,0-99,0-115.64-49.38-15-44.7,26.51-93.6,130.77-153.78,35.78-20.65,77.32-41.64,122.95-62.19a256.91,256.91,0,0,0-7.42,40.26c-139.27,65-226.62,129.17-214.58,165.09,11.66,34.7,113.41,34.36,256,5.07,74.27-15.24,159.61-38.32,249-68.37,84-28.25,161.41-59.17,227.18-90,138.71-64.82,225.68-128.79,213.64-164.6-12.46-37-127.19-34.18-284.61,1a256.26,256.26,0,0,0-30.4-27.35c91.41-21.69,172.06-33.69,231.06-33.69,24.5,0,99.05,0,115.67,49.35C4517.07,293.9,4475.53,342.76,4371.24,403Z"/><circle class="AO-DAM" cx="4003.27" cy="324.12" r="47.62"/><circle class="AO-DAM" cx="3860.09" cy="394.94" r="23.81"/><rect class="XANH-13" x="4205.24" y="874.38" width="344.84" height="490.26" transform="matrix(0.86, 0.5, -0.5, 0.86, 1162.31, -2055.2)"/><rect class="TRANG-3" x="4292.93" y="931.55" width="245.59" height="245.59" transform="translate(1134.64 -2083.29) rotate(30.29)"/><rect class="XANH-12" x="4235.28" y="1186.05" width="195.28" height="20.12" rx="8.72" transform="translate(1194.84 -2022.17) rotate(30.29)"/><rect class="TRANG-3" x="4175.12" y="1233.83" width="259.76" height="20.12" rx="10.06" transform="translate(1215.13 -2001.57) rotate(30.29)"/><rect class="TRANG-3" x="4154.36" y="1269.37" width="259.76" height="20.12" rx="10.06" transform="translate(1230.22 -1986.24) rotate(30.29)"/><path class="cls-1" d="M4444.52,1057.67l-3.64-2.13a42.46,42.46,0,1,0-37.89-22.13l-4.29-2.51a50.42,50.42,0,0,0-69,18.1l-17.44,29.87a17.05,17.05,0,0,0,6.12,23.33l103.42,60.41a17.06,17.06,0,0,0,23.33-6.12l17.45-29.87A50.41,50.41,0,0,0,4444.52,1057.67Z"/><path class="XANH-DAM-8" d="M4511.93,831.68l-41,70.1,50.52,29.51,40.95-70.1Zm7.2,45.67c-6.42-3.76-9.1-11.19-5.95-16.57s10.93-6.71,17.35-3,9.1,11.19,6,16.57S4525.56,881.1,4519.13,877.35Z"/><circle class="cls-1" cx="2049.94" cy="598.34" r="288.93"/><polygon class="TRANG-3" points="1903.79 760.81 2077.87 623.47 2022 573.22 1903.79 760.81"/><polygon class="NAU-3" points="2196.08 435.88 2022 573.22 2077.87 623.47 2196.08 435.88"/><rect class="XANH-DAM-8" x="2043.54" y="343.75" width="20.12" height="28.04" rx="10.06"/><rect class="XANH-DAM-8" x="2043.54" y="824.89" width="20.12" height="28.04" rx="10.06"/><rect class="XANH-DAM-8" x="1793.01" y="577.21" width="20.12" height="28.04" rx="10.06" transform="translate(2394.3 -1211.84) rotate(90)"/><rect class="XANH-DAM-8" x="2281.26" y="577.21" width="20.12" height="28.04" rx="10.06" transform="translate(2882.55 -1700.09) rotate(90)"/><rect class="XANH-13" x="392.36" y="1135.24" width="59.17" height="782.82" rx="29.59"/><rect class="XANH-13" x="503.6" y="1135.24" width="59.17" height="782.82" rx="29.59"/><rect class="XANH-13" x="614.85" y="1135.24" width="59.17" height="782.82" rx="29.59"/><rect class="XANH-13" x="726.09" y="1135.24" width="59.17" height="782.82" rx="29.59"/><rect class="XANH-13" x="837.34" y="1135.24" width="59.17" height="782.82" rx="29.59"/><rect class="XANH-13" x="948.58" y="1135.24" width="59.17" height="782.82" rx="29.59"/><rect class="XANH-13" x="1059.82" y="1135.24" width="59.17" height="782.82" rx="29.59"/><rect class="XANH-12" x="392.36" y="1315.12" width="59.17" height="602.94" rx="29.59"/><rect class="XANH-12" x="503.6" y="1450.03" width="59.17" height="468.03" rx="29.59"/><rect class="XANH-12" x="614.85" y="1665.42" width="59.17" height="252.64" rx="29.59"/><rect class="XANH-12" x="726.09" y="1324.59" width="59.17" height="593.47" rx="29.59"/><rect class="XANH-12" x="837.34" y="1360.09" width="59.17" height="557.97" rx="29.59"/><rect class="XANH-12" x="948.58" y="1450.03" width="59.17" height="468.03" rx="29.59"/><rect class="XANH-12" x="1059.82" y="1315.12" width="59.17" height="602.94" rx="29.59"/><path class="AO-DAM" d="M4298.86,2814.31a40.77,40.77,0,0,0-74.68,9.87l-10,37.31,78.77,21.06,10-37.31A40.63,40.63,0,0,0,4298.86,2814.31Zm-41,41.92a23.35,23.35,0,1,1,28.59-16.53A23.35,23.35,0,0,1,4257.81,2856.23Z"/><rect class="XANH-12" x="3849.58" y="2872.03" width="600.46" height="776.54" rx="38.41" transform="translate(982.67 -961.04) rotate(14.97)"/><rect class="TRANG-3" x="3899.24" y="2920.56" width="501.14" height="679.47" transform="translate(982.67 -961.04) rotate(14.97)"/><path class="AO-NHAT-2" d="M4169.47,2868.51h147.79a24.3,24.3,0,0,1,24.3,24.3v28.9a30.32,30.32,0,0,1-30.32,30.32H4175.49a30.32,30.32,0,0,1-30.32-30.32v-28.9A24.3,24.3,0,0,1,4169.47,2868.51Z" transform="translate(895.46 -997.07) rotate(14.97)"/><rect class="cls-1" x="4297.87" y="3121.07" width="66.03" height="66.03" transform="translate(961.39 -1011.4) rotate(14.97)"/><rect class="cls-1" x="4263.86" y="3248.29" width="66.03" height="66.03" transform="translate(993.08 -998.31) rotate(14.97)"/><rect class="cls-1" x="4229.86" y="3375.5" width="66.03" height="66.03" transform="translate(1024.78 -985.21) rotate(14.97)"/><rect class="cls-1" x="4195.85" y="3502.72" width="66.03" height="66.03" transform="translate(1056.48 -972.11) rotate(14.97)"/><rect class="XANH-11" x="4012.03" y="3047.59" width="156.7" height="13.54" rx="5.15" transform="translate(927.48 -952.68) rotate(14.97)"/><rect class="XANH-DAM-7" x="4112.83" y="3019.04" width="198.55" height="16.37" rx="6.37" transform="translate(924.6 -985.03) rotate(14.97)"/><rect class="XANH-11" x="4092.67" y="3201.28" width="107.6" height="11.29" rx="3.9" transform="translate(968.78 -961.99) rotate(14.97)"/><rect class="XANH-11" x="3944.28" y="3297.64" width="87.29" height="11.29" rx="3.51" transform="translate(988.28 -917.78) rotate(14.97)"/><rect class="XANH-11" x="3945.86" y="3442.28" width="128.29" height="11.29" rx="4.25" transform="translate(1026.38 -918.58) rotate(14.97)"/><path class="cls-1" d="M4252.82,3122.32,4008.57,3057a13.17,13.17,0,0,0-6.8,25.44L4246,3147.76a13.17,13.17,0,1,0,6.8-25.44Z"/><path class="cls-1" d="M4245,3151.44l-244.25-65.29a13.17,13.17,0,0,0-6.8,25.44l244.25,65.29a13.17,13.17,0,1,0,6.8-25.44Z"/><path class="cls-1" d="M4219.5,3247l-244.25-65.29a13.17,13.17,0,0,0-6.8,25.44l244.25,65.29a13.17,13.17,0,1,0,6.8-25.44Z"/><path class="cls-1" d="M4211.71,3276.11l-244.25-65.28a13.16,13.16,0,1,0-6.8,25.43l244.25,65.29a13.17,13.17,0,1,0,6.8-25.44Z"/><path class="cls-1" d="M4186.17,3371.66l-244.25-65.29a13.17,13.17,0,0,0-6.8,25.44l244.25,65.29a13.17,13.17,0,1,0,6.8-25.44Z"/><path class="cls-1" d="M4178.39,3400.78l-244.25-65.29a13.17,13.17,0,0,0-6.8,25.44l244.25,65.29a13.17,13.17,0,1,0,6.8-25.44Z"/><path class="cls-1" d="M4152.85,3496.33,3908.59,3431a13.17,13.17,0,0,0-6.79,25.44l244.25,65.29a13.17,13.17,0,1,0,6.8-25.44Z"/><path class="cls-1" d="M4145.06,3525.45l-244.25-65.29a13.17,13.17,0,0,0-6.8,25.44l244.25,65.29a13.17,13.17,0,1,0,6.8-25.44Z"/><polygon class="cls-9" points="812.63 3711.41 754.02 3711.41 722.32 3555.86 844.33 3555.86 812.63 3711.41"/><polygon class="cls-9" points="1308.72 3711.41 1250.12 3711.41 1218.41 3555.86 1340.42 3555.86 1308.72 3711.41"/><path class="AO-NHAT-2" d="M1438.5,2840.73V3600H663.11V2840.73c0-65.81,59.66-119.17,133.24-119.17H1305.3C1378.88,2721.56,1438.5,2774.92,1438.5,2840.73Z"/><path class="cls-10" d="M884.14,2721.56c-39.12,30.69-77.41,82.3-78.69,167-2,127.92-1.05,513.16-.45,711.47H663.11V2840.73c0-65.81,59.66-119.17,133.24-119.17Z"/><path class="cls-1" d="M323.73,3186.93a101.91,101.91,0,1,0,101.91,101.9A101.91,101.91,0,0,0,323.73,3186.93Zm0,160a58.09,58.09,0,1,1,58.09-58.09A58.07,58.07,0,0,1,323.73,3346.92Z"/><path class="cls-1" d="M5625.51,1975.36h0A152.66,152.66,0,0,1,5472.85,2128h0a152.66,152.66,0,0,1,152.66,152.66h0A152.66,152.66,0,0,1,5778.17,2128h0A152.66,152.66,0,0,1,5625.51,1975.36Z"/><path class="cls-1" d="M632.3,2507.8h0a66.57,66.57,0,0,1-66.56,66.57h0a66.56,66.56,0,0,1,66.56,66.56h0a66.57,66.57,0,0,1,66.57-66.56h0A66.58,66.58,0,0,1,632.3,2507.8Z"/><path class="cls-1" d="M5440.93,3062.68H5403v-37.92a15.73,15.73,0,1,0-31.45,0v37.92h-37.92a15.72,15.72,0,1,0,0,31.44h37.92V3132a15.73,15.73,0,1,0,31.45,0v-37.92h37.92a15.72,15.72,0,0,0,0-31.44Z"/><path class="cls-1" d="M2530.52,2498.31H2480.4V2448.2a20.78,20.78,0,1,0-41.55,0v50.11h-50.12a20.78,20.78,0,0,0,0,41.55h50.12V2590a20.78,20.78,0,1,0,41.55,0v-50.12h50.12a20.78,20.78,0,0,0,0-41.55Z"/><path class="cls-1" d="M2739.77,2389a51,51,0,1,0,50.95,50.95A51,51,0,0,0,2739.77,2389Zm0,80a29,29,0,1,1,29.05-29.05A29,29,0,0,1,2739.77,2469Z"/><path class="XANH-DEN-3" d="M1699.42,1245.69s1.95,31.17-15.28,43.24c-15.13-16.5-15.23-40.22-15.23-40.22Z"/><path class="DA" d="M1912.42,2087.2l-.27.18c-84.12,44.24-186.84,86.11-261.15,76.7-78.83-10-134.48-119.35-134.48-119.35s61.75-5.76,120.87-67c22.1,56.2,36.23,65.31,72.64,50.94,26.57-11.93,129.65-28.92,212-55,35.22-11.14,74.24-39.27,89.48-44.23a.11.11,0,0,0,.07,0l11.42-3.72,22.53,41-3.73,22.75S1996.47,2043,1912.42,2087.2Z"/><path class="cls-11" d="M1651.48,1977.76S1595.55,2049,1550,2060.19a66.36,66.36,0,0,1-15.8,2c-80.43-45.59-124.44-146.14-124.44-146.14l62.86-211.56,17.64-59.35Z"/><path class="cls-12" d="M1550,2060.19c-5.35,1.31-14.15,11.89-19.34,11.89-32.76-18.59-58.94-47.93-78.39-76.18a415.22,415.22,0,0,1-38.75-70.45c-2.48-5.91-3.76-9.37-3.76-9.37l62.86-211.56c11.28,29.65,24.68,79.75,19.64,142.72-8.32,103.71-13.17,151.07,24.3,181.46A323.53,323.53,0,0,1,1550,2060.19Z"/><path class="cls-13" d="M1476.53,1883.35c-5.72,45.78-17.83,90.55-24.3,112.55a415.22,415.22,0,0,1-38.75-70.45c9.9-57.33,66.36-170.71,66.36-170.71S1484.54,1819.14,1476.53,1883.35Z"/><path class="DA" d="M2275.28,3574s-152.2,2-201.29-2.71l-48.82-140.42-19-54.47,135.64-38.67,32.65,86.56,11.74,31.11,10.19,27,8.28,5.91,22.23,15.87,29.91,41.68Z"/><path class="cls-14" d="M2275.28,3574s-152.2,2-201.29-2.71l-48.82-140.42,88.88-42.54s2.71,0,60.45,36l11.74,31.11c-29,33.17-116.42,45.55-116.42,45.55l7.37,14.74s35.51,1.36,116.95,6c.6-10.87,6.32-24.6,10.57-33.4l22.23,15.87,29.91,41.68Z"/><path class="XANH-DEN-3" d="M2496.18,3607.6c-45.79,40.79-214,55.62-277.19,53.45s-159.27,10.56-159.27,10.56c4.59,21.73,10.08,39.8,10.08,39.8l127.91-16.11-2.48-19.75s61.46-5.91,95.83-.51c7.52,1.18,35.79,8.8,51.4,6.94,46.82-5.55,121.7-28.15,121.7-28.15s30.4-21.92,32.93-43.22C2496.78,3609.56,2496.48,3608.59,2496.18,3607.6Z"/><path class="cls-7" d="M2219,3661.05c63.19,2.17,231.4-12.66,277.19-53.45-6.6-21.42-12-24.54-12-24.54l-13-18.17s-5.29-9.62-23.5-7.34c-25.53,3.19-74.23,1.31-105.4-13.15-44-20.44-122-55.77-122-55.77s-17.16,26.78-6.74,43.71,58.42,37.33,58.42,37.33-37.92-6.32-52.83-16-17.35-6-17.35-6-132-11-143.81-21.25c0,0-6,71.44-4.16,104.95.7,12.63,3.15,27.11,5.93,40.26C2059.72,3671.61,2155.79,3658.87,2219,3661.05Z"/><polygon class="DA" points="1865.45 3556.05 1800.67 3562.06 1648.29 3486.57 1651.78 3455.01 1672.7 3265.83 1811.81 3288.52 1811.24 3295.4 1804.43 3376.43 1799.16 3439.51 1865.45 3556.05"/><path class="cls-14" d="M1811.24,3295.4l-6.81,81c-34.23-.68-102.88-25.24-102.88-25.24s-6.28,135.87-7.15,137.18-28.36-17.49-42.62-33.36l20.92-189.18Z"/><path class="XANH-DAM-6" d="M1898.59,2656.26c-.08.68-.12,1.35-.19,2.07v.07c-19.22,238.45-66.51,696.51-66.51,696.51s-31.18,13.17-149.22-26.63q-20.55-6.89-44.65-16.06c0-257-11-490.79-19.53-633.62-5.41-90.69-9.85-144.71-9.85-144.71s294.38-88.25,297.62-9.48C1907,2541.53,1903.85,2590.32,1898.59,2656.26Z"/><path class="XANH-DEN-3" d="M1899.53,2656.18l-1.13,2.15v.07l-33,63.16s-187.75,68.73-213.67,82.12c43,113.6,34.61,427.89,30.89,524.6q-20.55-6.89-44.65-16.06c0-257-11-490.79-19.53-633.62l280.1-22.34Z"/><path class="XANH-DAM-6" d="M2194.14,3408.74c-3.91,49-78.88,65.68-136.74,71.21-7.6.71-14.86,1.28-21.66,1.65-26.37,1.47-45.37.83-45.37.83L1806,2732s-98.14,32.35-270.5,51.16c-42.32,4.59-89.15,8.39-140.12,10.68-105.74,4.74-288.18-42.92-412.95-44.69-232.93-94-117.44-445.79-96.26-504.59,2-5.45,3.12-8.38,3.12-8.38l29.26,7L1193.09,2309l131,31.41s31.14,3.31,80.12,8.92c134.4,15.42,402.91,48.3,530.13,78.5C2134.7,2475.36,2144.64,3073.73,2194.14,3408.74Z"/><path class="XANH-DEN-3" d="M1404.23,2349.35c-24.6,14.4-84.45,46.53-128.16,45.81-56.31-.9-85.8,42.47-123.34,13-147.5,24.15-184-50.93-184-50.93L1193.09,2309l131,31.41S1355.25,2343.74,1404.23,2349.35Z"/><path class="XANH-DEN-3" d="M1535.51,2783.18c-42.32,4.59-89.15,8.39-140.12,10.68-105.74,4.74-288.18-42.92-412.95-44.69-232.93-94-117.44-445.79-96.26-504.59l53,9.37s-199.82,448.73,365.07,525.62C1412,2767.9,1505.57,2749.13,1535.51,2783.18Z"/><path class="cls-11" d="M1492,1665.55s-13.39,158.56-58.08,343.93c-7,28.89-13.35,56.88-19.22,83.51-4.18,19.11-8.12,37.54-11.77,55.11-23.82,115.07-35.51,194-35.51,194s-288.18,103.37-418.9,21.59c-34.8-21.78-100.51-15.5-111.53-50.71,49.8-292.58,129.7-528.1,215-675.48,2.6-4.51,5.19-9,7.83-13.28,30.54-50.55,65.82-87.12,101.07-112.92a312.29,312.29,0,0,1,57.89-33.67c34.54-15.23,66.17-21.18,89.76-21.25a108.63,108.63,0,0,1,19.29,1.47C1379.18,1466.75,1498.42,1606.35,1492,1665.55Z"/><path class="cls-13" d="M1425.79,1578.84s7.15,52.67,23.24,50.6,11.17-55.26,11.17-55.26Z"/><path class="cls-12" d="M1414.65,2093c-4.18,19.11-8.12,37.54-11.77,55.11-33.75-9.86-130.72-44-133.84-49.66-3.69-6.73-40.37-253.42-39.46-261.47s90.73-205.12,90.73-205.12,28.73-33.17,26.82,146.52c-.28,25.08-4.38,69.79-5.57,89.94-7.33,124.18-12.53,147.15,16.89,185.86C1378.46,2080.54,1400.13,2089.83,1414.65,2093Z"/><path class="XANH-DEN-3" d="M1743,3607.2c-56.18-28.45-148.45-57.48-148.45-57.48-5.16,21.16-7.93,39.47-7.93,39.47l122.49,39.41,6.21-18.53s58.07,20.57,86.81,39.77c6.29,4.2,28.58,22.8,43.47,27.71,44.7,14.73,122,26.15,122,26.15s36.85-6.65,48.26-24.45c.18-1.06.32-2.05.47-3C1957.55,3693.1,1799.2,3635.65,1743,3607.2Z"/><path class="cls-7" d="M2016,3649.42l-4-21.55s-.66-10.73-18.09-16.36c-24.44-7.89-67.65-30-89.62-55.88-31-36.58-86.32-100.56-86.32-100.56s-27,16.52-24.81,35.88,36.8,57.56,36.8,57.56-31.56-21.5-40.89-36.33-13.1-12.61-13.1-12.61-114.54-65.16-120.85-79.16c0,0-36,60.73-48.7,91.17-4.78,11.48-8.77,25.33-11.89,38.14,0,0,92.27,29,148.45,57.48s214.52,85.9,273.37,69C2019.61,3654.47,2016,3649.42,2016,3649.42Z"/><path class="cls-15" d="M1436.11,1582.7l28.38,40.62s.75-27.84.75-52.41a45.11,45.11,0,0,0-18.62-36.56l-34.82,20.39Z"/><path class="DA" d="M1652.64,1413.12c-60.12,149-154,63.71-154,63.71l-29.94,38.71-42.66,55.07-127.19-114.23s89.63-48.51,110.85-140.07,67.56-181.44,151.33-175.87,96.2,40.22,96.2,40.22S1725.31,1233,1652.64,1413.12Z"/><path class="cls-14" d="M1498.65,1476.83l-29.94,38.71c-19.08-32.61-11.63-91.07-11.63-91.07Z"/><path class="cls-12" d="M836.93,2313c11,35.21,76.73,28.93,111.54,50.73,24.12-91,111.92-424.88,125.14-551.29,10.74-102.76,35.06-213.27,87.25-301.11-35.27,25.81-70.55,62.37-101.07,112.94C971.57,1770.51,888.28,2011.44,836.93,2313Z"/><path class="cls-12" d="M1325.69,1505.12l-112.63,140.05s-21.48,67.1-82.26,360.29c-94.72-19.64-67.9-235.48-67.9-235.48-20.35-30.62-19.79-81-11-132.49,2.6-4.51,5.19-9,7.83-13.28,30.54-50.55,65.82-87.12,101.07-112.92a312.29,312.29,0,0,1,57.89-33.67c34.54-15.23,66.17-21.18,89.76-21.25Z"/><path class="cls-13" d="M1127.24,1704.52s-25.92,31-34,103.41c-2.17,19.52-8.85,165.71,27.71,178.77,50.06,17.88,56.31-216.71,56.31-216.71Z"/><path class="cls-11" d="M1352,1607.85s-.83,13-2.18,33.93c-.45,7-1,14.75-1.58,23.28-6,89.08-17.94,254-26,285.25,0,0-2.75,1-7.64,2.78v0c-7.86,2.82-21.22,7.52-37.54,12.75-49.43,15.95-125.83,37.06-157.35,26.86-28.29-80.42-.72-319.36,6-358.82,31.26-70.72,62.52-88.59,125.79-89.34,41.11-.49,71.21,26.33,87.27,45.21,0,0,0,0,0,0A136.91,136.91,0,0,1,1352,1607.85Z"/><path class="cls-13" d="M1298.86,1511.29c-.65,2.34,61,123.9,101.23,139.32,30.17-30.17,28.07-63.69,28.07-63.69Z"/><path class="cls-15" d="M1438.52,1582.41,1401.67,1626c-58.82-50.92-106.4-105-132.64-165l50-33.76S1380.54,1518.81,1438.52,1582.41Z"/><path class="XANH-DEN-3" d="M1718.08,1185.8c10.72-22.34-19-83.57-54.23-68.54,0-37.22-51-77.14-94.22-8.65-3-26.8-38.71-73-60.8,3.36-2.74-29.4-62.78-58.45-71.71,19-30.06-13.74-59.56,19.36-52.86,83.38-13.89,14.22-38.92,88.58-17.47,125-11.68,43.34,14,47.62,52.74,29.75,14.89,19.36,45.71-21.3,36.12-36.93-10.24-16.68,4.14-69.48,31.56-63.52,18.73,4.07,26,37.93,20.06,59.48,5.35,13.93,17.08,3.54,22.19,1.36,4.58-24.47,0-66,0-66s20.84,8.93,43.18,7.44,111.5,10.55,135.63-9.12S1704.12,1214.89,1718.08,1185.8Z"/><path class="cls-16" d="M1833.43,2470.67H1365.25c-16.9-11.18-23.21-21.76,0-30.7l291-164.69h468.18Z"/><polygon class="cls-17" points="1833.43 2439.97 1365.25 2439.97 1656.23 2244.58 2124.41 2244.58 1833.43 2439.97"/><polygon class="XANH-DAM-8" points="1764.99 2275.28 1580.3 2413.72 1742.54 2413.72 1928.24 2276.95 1764.99 2275.28"/><path class="cls-18" d="M1833.43,2440v30.7l291-195.39s17-7.46,15.86-21.54-15.86-9.16-15.86-9.16Z"/><polygon class="XANH-DAM-8" points="1903.05 2383.6 1900.5 2412.18 1996.14 2346.03 1999.47 2318.85 1903.05 2383.6"/><polygon class="XANH-DAM-8" points="2021.7 2300.94 2019.16 2329.52 2114.8 2263.37 2118.13 2236.2 2021.7 2300.94"/><polygon class="XANH-DAM-8" points="1609.55 2300 1533.81 2350.66 1631.72 2350.66 1696.47 2300.22 1609.55 2300"/><polygon class="cls-19" points="1963.45 2035.06 1855.36 2376.42 2134.4 2211.23 2285.61 1881.22 2258.93 1879.62 1963.45 2035.06"/><path class="cls-1" d="M1986,2043.82l-110.1,340.83a8,8,0,0,0,12.07,9.1l267.56-179.66a18.49,18.49,0,0,0,6.44-7.5l121.59-325.37L1997,2030.79A22.52,22.52,0,0,0,1986,2043.82Z"/><polygon class="cls-20" points="1963.45 2035.06 1988.79 2035.06 1876.97 2391.8 1855.36 2376.42 1963.45 2035.06"/><polygon class="cls-21" points="2096.7 2070.95 2070.48 2145.36 2118.13 2117.87 2096.7 2070.95"/><path class="cls-22" d="M1310.93,2055.53s40.49-25.65,30.63-39-46.39-3.6-46.39-3.6Z"/><path class="DA" d="M1875.72,2317.3a6.89,6.89,0,0,1-4.11.64c-15.42-1.85-44-42.4-47.88-39.5s39.27,39,37.09,49.13a2.94,2.94,0,0,1-1.84,2.14,9.34,9.34,0,0,1-5.53.11v0c-17-3.84-53.53-36.72-56.5-34.95-3.35,2,58,43.94,44.91,49.65a.81.81,0,0,1-.41.12c-13.73,4.77-65.64-34.69-69.67-35.29a3.49,3.49,0,0,0-1.92.08c-.94.37-.67,1.73,2.18,5.19l0,0a177.25,177.25,0,0,0,13.47,13.73c18.88,17.75,29.53,31.52,19.11,32.53s-62-32.53-62-32.53c-20.58-.79-76.4-31.87-76.4-31.87s-17.88-19.23-23.24-23.76c-7.29-2.93-43.57-1.19-258.92-32.15-297.84-42.81-223.22-189.5-223.22-189.5l134.82-60.29s8.91,29,27.91,68.12c9.52,19.56,95.28,52.59,178.68,80.76s160.62,58.65,160.62,58.65,113.16-4,146.15,32.85c5.83,6.51,24.74,19.13,31,25.3l-.19.15C1853,2271.63,1888.39,2310.83,1875.72,2317.3Z"/><circle class="cls-8" cx="1590.83" cy="1339.92" r="11.29"/><circle class="cls-8" cx="1662.4" cy="1349.77" r="10.52"/><path class="NAU-3" d="M1610.43,1435.39l-36.81-14.83s-8.94,21,7.73,28.06S1610.43,1435.39,1610.43,1435.39Z"/><path class="XANH-DEN-3" d="M2057.4,3480c-7.6.71-14.86,1.28-21.66,1.65-26.37,1.47-45.37.83-45.37.83L1806,2732s17.08-3.84,73.17,143.39C1930.79,3010.79,2040.1,3415.59,2057.4,3480Z"/><path class="cls-15" d="M1643.25,1953.63s-111.07,118-144.6,119.33l53.62,50.95s138.54-72.47,147.93-100.62C1685.45,1987.08,1643.25,1953.63,1643.25,1953.63Z"/><path class="cls-15" d="M1334.12,1945.09l7.44,71.47s-194.3,53.6-195,94.55c-34.24-37.23-49.87-111.67-46.9-128.8C1141.3,1927.22,1299.13,1929.46,1334.12,1945.09Z"/><path class="DA" d="M2228.78,1924.05a4.55,4.55,0,0,1-3.27,1.25c-14.44.82-59-33-61.43-29.65-2.71,3.69,69.37,34.16,54.62,43.9a8.35,8.35,0,0,1-1.31.72h0c-17.46,7.41-73-31.79-73.39-28.22,0,.34.49.83,1.39,1.51h0c9.44,6.73,62,29.42,50.55,39.38a8.6,8.6,0,0,1-1.69,1.17c-12.49,6.66-75.46-28.06-76-28.36-9.07-2.22-16.21-2.9-17.49,0-1,2.25-3.84,4.85-6.44,8-2.33,2.86-4.55,6.28-5.07,10.34l-54.21,52-28.66-66.58a.11.11,0,0,0,.07,0c2.82-2.22,93.22-72.52,111.72-75.8a15.84,15.84,0,0,1,2.86-.22c8.92,0,27.2,4.59,44.5,13.54,0,0,34.42,16.93,44.8,25.28s7.38,14.78,7.38,14.78S2237.47,1915.06,2228.78,1924.05Z"/><path class="cls-14" d="M2059.89,1935.86s-6.57,13.23-9,26.84c-2.18,12.18-.52,24.79,3.91,26.46,9.39,3.52,14.58-18.44,14.58-19.11S2072.15,1935.52,2059.89,1935.86Z"/><path class="DA" d="M2059.89,1935.86s-11.68,45.48-3.63,52.63c39.1-4,21.67-19.78,37.27-56.67C2108.21,1897.09,2059.89,1935.86,2059.89,1935.86Z"/><path class="cls-14" d="M2217.7,1907,2177,1882.12s40.26,17.2,40.66,19.87A17.47,17.47,0,0,1,2217.7,1907Z"/><path class="cls-14" d="M1871.61,2317.94c-15.42-1.85-44-42.4-47.88-39.5,0,0-23-20.69-19.07-23.14s31.86,18.1,39.23,28.14,21.37,32.73,27.65,34.46C1871.58,2317.9,1871.61,2317.9,1871.61,2317.94Z"/><path class="cls-14" d="M1853.45,2329.79c-17-3.84-53.53-36.72-56.5-34.95,0,0-27.24-19-24.12-24.56s17,7,28.82,17.38,16.78,22.6,27.95,26.63S1853.63,2327.42,1853.45,2329.79Z"/><path class="cls-14" d="M1772,2314.59s-26.7-14-22.68-21.07,26.41,10.8,34.19,19.45,50.41,29.42,57.9,31.64c-13.73,4.77-65.64-34.69-69.67-35.29a3.49,3.49,0,0,0-1.92.08C1768.92,2309.77,1769.19,2311.13,1772,2314.59Z"/><path class="cls-14" d="M2144,1912.05c0,.34.49.83,1.39,1.51-.9-.34-12.15-4.59-7.49-9.89,4.86-5.53,74,37.65,79.49,36.6C2199.89,1947.68,2144.3,1908.48,2144,1912.05Z"/><path class="cls-14" d="M2225.51,1925.3c-14.44.82-59-33-61.43-29.65,0,0-3.42-5.22,2.26-5.22s54.32,33.62,59,34.34C2225.4,1925,2225.44,1925.11,2225.51,1925.3Z"/><path class="cls-14" d="M2195.94,1952.94a8.6,8.6,0,0,1-1.69,1.17c-12.49,6.66-75.46-28.06-76-28.36-9.07-2.22-16.21-2.9-17.49,0-1,2.25-3.84,4.85-6.44,8,0,0,.31-17.46,12.72-16.4S2183.31,1955.24,2195.94,1952.94Z"/><path class="cls-8" d="M1636.8,1361.41c-.37,4.93-.78,10.48-1.25,16.77-.52,6.57-.85,14.34-2,22.56-.3,1,0,2.35-2,3.35-1.84,1-5.19,1.05-8.7.43a68,68,0,0,1-11-3.09c-1.83-.66-3.62-1.36-5.33-2.06l-2.72-1.15-3.93-1.85a76.7,76.7,0,0,0,1.25,9.46c.38,1.83.77,2.88,1.14,2.82.16,0,.24-1,.25-2.84,0-1,0-2.09,0-3.29a12.23,12.23,0,0,1,0-2.19l.65.4,2.26,1.12c1.74.83,3.63,1.67,5.65,2.47a54.71,54.71,0,0,0,13.75,3.81,15.26,15.26,0,0,0,8.27-1,6.28,6.28,0,0,0,3.35-3.6,24,24,0,0,0,.82-4.15c.66-5.19,1-10.3,1.25-15.25.52-9.86.75-18.91.81-25.53s-.06-10.77-.34-10.85C1638.28,1347.59,1637.57,1352.34,1636.8,1361.41Z"/><path class="cls-8" d="M1571,1305.38a38.29,38.29,0,0,1,17.14-.35,37.72,37.72,0,0,1,8.62,3,58.93,58.93,0,0,1,7,4.25c4,2.8,6.48,5.13,7.21,4.53,1.42-.78,1.2-4-1.93-8.57a32.05,32.05,0,0,0-20.39-12.41,43.54,43.54,0,0,0-6.21-.58c-1.53.08-3.23.19-5,.36-1.71.38-3.49.82-5.21,1.3-6.82,2.41-11.65,7-10,9.58.27.47,1.29.52,2.81.25S1568.58,1305.75,1571,1305.38Z"/><path class="cls-8" d="M1685.23,1324.9a16.05,16.05,0,0,0-2.39-5,31.27,31.27,0,0,0-2.3-3.05c-1-1-2.06-2-3.22-3a40.34,40.34,0,0,0-4.17-2.5,21.61,21.61,0,0,0-4.86-1.59,23.11,23.11,0,0,0-9.88.1,27.58,27.58,0,0,0-7.62,3c-4.07,2.44-6,5-5.53,5.79,1,1.25,3.63,1.15,7.45.53s9-1.7,14.51-.41a26.34,26.34,0,0,1,3.09,1.19c.71.44,1.58.76,2.42,1.32s1.72,1.16,2.62,1.76c3.5,2.61,6.92,5.93,9.77,4.27C1685.59,1327.05,1685.6,1326.21,1685.23,1324.9Z"/><path class="cls-8" d="M1606,1338.13c.62-.4-.4-3.46-3.46-7.17a25.29,25.29,0,0,0-6.3-5.45,19.74,19.74,0,0,0-9.62-2.91,32.22,32.22,0,0,0-17,4.65c-4.09,2.47-6.19,5-5.86,5.5.73.87,3.06.23,7-1s9.64-3.18,16.48-2.82a13.89,13.89,0,0,1,3.64.81,25.78,25.78,0,0,1,5.86,3.13C1600.84,1335.6,1604.15,1339.22,1606,1338.13Z"/><path class="cls-8" d="M1670.35,1338.09a23.73,23.73,0,0,0-4.07-1.95,16.91,16.91,0,0,0-5.43-1.06,21.61,21.61,0,0,0-11.16,2.62c-4.35,2.33-7.26,6-5.75,7.63.47.59,2.6-.52,5.81-1.77s7.52-2.61,11.55-2.2a21,21,0,0,1,5.9,1.67,25.28,25.28,0,0,1,4.84,2.56c2.54,1.78,2.89,3.2,3.51,3.08.54.07,1.19-.21,1.42-1.31a6.28,6.28,0,0,0-1.23-4.43A16.13,16.13,0,0,0,1670.35,1338.09Z"/><path class="cls-14" d="M1486.49,1294.2a13.18,13.18,0,0,0-4.52-1.69,10.86,10.86,0,0,0-6.3,1,13.92,13.92,0,0,0-5.1,5,17.47,17.47,0,0,0-1.68,3.53,16.53,16.53,0,0,0-.7,4.13c0,.44,0,1.3.06,2.42a20.93,20.93,0,0,0,.88,3.93,26.66,26.66,0,0,0,5,8.73c4.39,5.26,10,8.42,11.09,6.77.44-.54-2-3-5.09-7s-6.95-9.94-6.17-15.52a11.41,11.41,0,0,1,1.31-3.89,10.08,10.08,0,0,1,2.45-3.06c1.74-1.51,4-1.53,6.16-1,4.34,1.24,7.13,3.63,7.49,3.1C1492.09,1300.1,1491.15,1297.19,1486.49,1294.2Z"/><path class="cls-8" d="M5327.92,3703.89H624.17a7.52,7.52,0,1,0,0,15H5327.92a7.52,7.52,0,0,0,0-15Z"/></svg>